SplineFontDB: 3.2
FontName: JawiAlkalami-Regular
FullName: JawiAlkalami
FamilyName: JawiAlkalami
Weight: Regular
Copyright: Copyright (c) SIL International, 2015-2020\n\nAdditional glyphs added and some glyphs modified\nby Yaya MNH48 to support Jawi alphabet and Pegon alphabet.\nFor more information, see https://github.com/jawi-mnh48/jawifont/\n\nSee FONTLOG for full list of modifications made to the font.

StartChar: .notdef
Encoding: 444 -1 0
Width: 1033
Flags: W
LayerCount: 2
Fore
SplineSet
60 -226 m 1,0,-1
 60 699 l 1,1,-1
 973 699 l 1,2,-1
 973 -226 l 1,3,-1
 60 -226 l 1,0,-1
76 -209 m 1,4,-1
 957 -209 l 1,5,-1
 957 682 l 1,6,-1
 76 682 l 1,7,-1
 76 -209 l 1,4,-1
96 -52 m 1,8,9
 142 -65 142 -65 190 -72.5 c 128,-1,10
 238 -80 238 -80 285 -80 c 0,11,12
 392 -80 392 -80 489 -43 c 128,-1,13
 586 -6 586 -6 652 73 c 1,14,15
 654 106 654 106 655 125.5 c 128,-1,16
 656 145 656 145 656 170 c 0,17,18
 656 201 656 201 653 233.5 c 128,-1,19
 650 266 650 266 645 300 c 0,20,21
 645 301 645 301 645 301 c 129,-1,22
 645 301 645 301 645 302 c 0,23,24
 645 304 645 304 648 305.5 c 128,-1,25
 651 307 651 307 655 310 c 0,26,27
 676 318 676 318 702 318 c 1,28,29
 705 298 705 298 707.5 260.5 c 128,-1,30
 710 223 710 223 710 164 c 0,31,32
 710 148 710 148 712.5 144 c 128,-1,33
 715 140 715 140 725 140 c 2,34,-1
 758 140 l 2,35,36
 764 140 764 140 765.5 147.5 c 128,-1,37
 767 155 767 155 767 175 c 0,38,39
 766 234 766 234 760 264.5 c 128,-1,40
 754 295 754 295 754 300 c 0,41,42
 754 304 754 304 764 310 c 0,43,44
 785 318 785 318 811 318 c 1,45,46
 814 298 814 298 816.5 262.5 c 128,-1,47
 819 227 819 227 819 153 c 0,48,49
 819 143 819 143 820.5 141.5 c 128,-1,50
 822 140 822 140 827 140 c 2,51,-1
 862 140 l 2,52,53
 870 140 870 140 873 146.5 c 128,-1,54
 876 153 876 153 876 175 c 0,55,56
 876 234 876 234 869.5 264.5 c 128,-1,57
 863 295 863 295 863 300 c 0,58,59
 863 304 863 304 873 310 c 0,60,61
 883 314 883 314 896.5 316 c 128,-1,62
 910 318 910 318 920 318 c 1,63,64
 922 304 922 304 924 286.5 c 128,-1,65
 926 269 926 269 927.5 240.5 c 128,-1,66
 929 212 929 212 929 164 c 0,67,68
 929 103 929 103 921.5 63.5 c 128,-1,69
 914 24 914 24 894 24 c 2,70,-1
 722 24 l 1,71,72
 671 -43 671 -43 602.5 -90 c 128,-1,73
 534 -137 534 -137 457 -161 c 128,-1,74
 380 -185 380 -185 302 -185 c 0,75,76
 265 -185 265 -185 228.5 -179.5 c 128,-1,77
 192 -174 192 -174 157 -163 c 0,78,79
 143 -158 143 -158 129 -140.5 c 128,-1,80
 115 -123 115 -123 105.5 -99 c 128,-1,81
 96 -75 96 -75 96 -52 c 1,8,9
681 489 m 0,82,83
 694 492 694 492 708 493 c 128,-1,84
 722 494 722 494 738 494 c 0,85,86
 745 494 745 494 751 494 c 128,-1,87
 757 494 757 494 764 493 c 1,88,89
 769 480 769 480 771 460 c 128,-1,90
 773 440 773 440 773 423 c 0,91,92
 773 401 773 401 769 383.5 c 128,-1,93
 765 366 765 366 757 364 c 0,94,95
 744 361 744 361 729 360.5 c 128,-1,96
 714 360 714 360 699 360 c 0,97,98
 692 360 692 360 685.5 360 c 128,-1,99
 679 360 679 360 672 361 c 1,100,101
 667 375 667 375 664.5 393 c 128,-1,102
 662 411 662 411 662 430 c 0,103,104
 662 453 662 453 666.5 470.5 c 128,-1,105
 671 488 671 488 681 489 c 0,82,83
812 497 m 0,106,107
 825 500 825 500 839 501 c 128,-1,108
 853 502 853 502 869 502 c 0,109,110
 875 502 875 502 881.5 502 c 128,-1,111
 888 502 888 502 895 502 c 1,112,113
 900 488 900 488 902 468.5 c 128,-1,114
 904 449 904 449 904 431 c 0,115,116
 904 409 904 409 900 392 c 128,-1,117
 896 375 896 375 888 373 c 0,118,119
 875 370 875 370 860 369 c 128,-1,120
 845 368 845 368 829 368 c 0,121,122
 822 368 822 368 815.5 368.5 c 128,-1,123
 809 369 809 369 802 369 c 1,124,125
 797 383 797 383 794.5 401 c 128,-1,126
 792 419 792 419 792 438 c 0,127,128
 792 461 792 461 797 478.5 c 128,-1,129
 802 496 802 496 812 497 c 0,106,107
727 655 m 0,130,131
 735 659 735 659 758 661 c 128,-1,132
 781 663 781 663 805 663 c 0,133,134
 816 663 816 663 826.5 663 c 128,-1,135
 837 663 837 663 844 661 c 1,136,137
 849 646 849 646 851.5 625 c 128,-1,138
 854 604 854 604 854 584 c 0,139,140
 854 534 854 534 837 522 c 0,141,142
 831 518 831 518 807.5 516 c 128,-1,143
 784 514 784 514 758 514 c 0,144,145
 747 514 747 514 736 514.5 c 128,-1,146
 725 515 725 515 716 516 c 1,147,148
 706 549 706 549 706 591 c 0,149,150
 706 617 706 617 711.5 634 c 128,-1,151
 717 651 717 651 727 655 c 0,130,131
EndSplineSet
Validated: 1
EndChar

StartChar: exclam
Encoding: 1 33 6
Width: 263
Flags: W
LayerCount: 2
Fore
SplineSet
68 743 m 1,0,1
 109 737 109 737 142 727.5 c 128,-1,2
 175 718 175 718 203 701 c 1,3,4
 192 597 192 597 182.5 510.5 c 128,-1,5
 173 424 173 424 167 342.5 c 128,-1,6
 161 261 161 261 158 171 c 1,7,-1
 98 171 l 1,8,9
 93 261 93 261 85.5 342.5 c 128,-1,10
 78 424 78 424 65 513 c 128,-1,11
 52 602 52 602 30 711 c 1,12,-1
 68 743 l 1,0,1
128 119 m 0,13,14
 143 119 143 119 156.5 117 c 128,-1,15
 170 115 170 115 185 111 c 1,16,17
 188 96 188 96 189.5 83 c 128,-1,18
 191 70 191 70 191 55 c 0,19,20
 191 29 191 29 185 0 c 1,21,22
 170 -2 170 -2 156.5 -5 c 128,-1,23
 143 -8 143 -8 128 -8 c 0,24,25
 116 -8 116 -8 103 -5 c 128,-1,26
 90 -2 90 -2 74 0 c 1,27,28
 72 14 72 14 69.5 27.5 c 128,-1,29
 67 41 67 41 67 55 c 0,30,31
 67 70 67 70 69.5 83 c 128,-1,32
 72 96 72 96 74 111 c 1,33,34
 90 115 90 115 103 117 c 128,-1,35
 116 119 116 119 128 119 c 0,13,14
EndSplineSet
Validated: 1
EndChar

StartChar: numbersign
Encoding: 3 35 8
Width: 738
Flags: W
LayerCount: 2
Fore
SplineSet
428 584 m 1,0,-1
 189 -138 l 1,1,-1
 93 -138 l 1,2,-1
 331 584 l 1,3,-1
 428 584 l 1,0,-1
648 584 m 1,4,-1
 409 -138 l 1,5,-1
 313 -138 l 1,6,-1
 552 584 l 1,7,-1
 648 584 l 1,4,-1
672 165 m 1,8,-1
 672 85 l 1,9,-1
 13 85 l 1,10,-1
 13 165 l 1,11,-1
 672 165 l 1,8,-1
725 359 m 1,12,-1
 725 280 l 1,13,-1
 65 280 l 1,14,-1
 65 359 l 1,15,-1
 725 359 l 1,12,-1
EndSplineSet
Validated: 5
EndChar

StartChar: dollar
Encoding: 4 36 9
Width: 602
Flags: W
LayerCount: 2
Fore
SplineSet
288 -65 m 1,0,-1
 225 -65 l 1,1,2
 228 24 228 24 229 125 c 128,-1,3
 230 226 230 226 230 330.5 c 128,-1,4
 230 435 230 435 229 536 c 128,-1,5
 228 637 228 637 225 726 c 1,6,-1
 288 726 l 1,7,8
 285 637 285 637 284 536 c 128,-1,9
 283 435 283 435 283 330.5 c 128,-1,10
 283 226 283 226 284 125 c 128,-1,11
 285 24 285 24 288 -65 c 1,0,-1
378 -65 m 1,12,-1
 315 -65 l 1,13,14
 318 24 318 24 319 125 c 128,-1,15
 320 226 320 226 320 330.5 c 128,-1,16
 320 435 320 435 319 536 c 128,-1,17
 318 637 318 637 315 726 c 1,18,-1
 378 726 l 1,19,20
 375 637 375 637 374 536 c 128,-1,21
 373 435 373 435 373 330.5 c 128,-1,22
 373 226 373 226 374 125 c 128,-1,23
 375 24 375 24 378 -65 c 1,12,-1
307 673 m 0,24,25
 363 673 363 673 422 660.5 c 128,-1,26
 481 648 481 648 523 627 c 1,27,28
 512 578 512 578 504 541.5 c 128,-1,29
 496 505 496 505 488 466 c 1,30,-1
 422 466 l 1,31,-1
 412 575 l 1,32,33
 397 595 397 595 367 605.5 c 128,-1,34
 337 616 337 616 304 616 c 0,35,36
 264 616 264 616 232 594 c 128,-1,37
 200 572 200 572 200 530 c 0,38,39
 200 497 200 497 225 474.5 c 128,-1,40
 250 452 250 452 289.5 433.5 c 128,-1,41
 329 415 329 415 373.5 395 c 128,-1,42
 418 375 418 375 458 347.5 c 128,-1,43
 498 320 498 320 523 279 c 128,-1,44
 548 238 548 238 548 177 c 0,45,46
 548 111 548 111 510 69.5 c 128,-1,47
 472 28 472 28 411.5 9 c 128,-1,48
 351 -10 351 -10 283 -10 c 0,49,50
 221 -10 221 -10 160 5 c 128,-1,51
 99 20 99 20 55 47 c 1,52,53
 65 92 65 92 73 127.5 c 128,-1,54
 81 163 81 163 89 212 c 1,55,-1
 156 212 l 1,56,-1
 170 82 l 1,57,58
 193 66 193 66 220.5 57 c 128,-1,59
 248 48 248 48 278 48 c 0,60,61
 326 48 326 48 363 71.5 c 128,-1,62
 400 95 400 95 400 149 c 0,63,64
 400 191 400 191 375.5 217 c 128,-1,65
 351 243 351 243 313 261 c 128,-1,66
 275 279 275 279 232.5 296 c 128,-1,67
 190 313 190 313 151.5 336 c 128,-1,68
 113 359 113 359 89 395 c 128,-1,69
 65 431 65 431 65 488 c 0,70,71
 65 550 65 550 98 591 c 128,-1,72
 131 632 131 632 186.5 652.5 c 128,-1,73
 242 673 242 673 307 673 c 0,24,25
EndSplineSet
Validated: 5
EndChar

StartChar: percent
Encoding: 5 37 10
Width: 770
Flags: W
LayerCount: 2
Fore
SplineSet
192 671 m 0,0,1
 261 671 261 671 307 629 c 128,-1,2
 353 587 353 587 353 508 c 256,3,4
 353 429 353 429 307 387 c 128,-1,5
 261 345 261 345 192 345 c 0,6,7
 122 345 122 345 76 387 c 128,-1,8
 30 429 30 429 30 508 c 256,9,10
 30 587 30 587 76 629 c 128,-1,11
 122 671 122 671 192 671 c 0,0,1
192 626 m 256,12,13
 166 626 166 626 148.5 596.5 c 128,-1,14
 131 567 131 567 131 508 c 0,15,16
 131 450 131 450 148.5 420 c 128,-1,17
 166 390 166 390 192 390 c 256,18,19
 218 390 218 390 235 420 c 128,-1,20
 252 450 252 450 252 508 c 0,21,22
 252 567 252 567 235 596.5 c 128,-1,23
 218 626 218 626 192 626 c 256,12,13
653 683 m 1,24,-1
 213 -18 l 1,25,-1
 123 -18 l 1,26,-1
 562 683 l 1,27,-1
 653 683 l 1,24,-1
589 320 m 0,28,29
 658 320 658 320 704 278 c 128,-1,30
 750 236 750 236 750 157 c 256,31,32
 750 78 750 78 704 36 c 128,-1,33
 658 -6 658 -6 589 -6 c 0,34,35
 519 -6 519 -6 473 36 c 128,-1,36
 427 78 427 78 427 157 c 256,37,38
 427 236 427 236 473 278 c 128,-1,39
 519 320 519 320 589 320 c 0,28,29
589 275 m 256,40,41
 563 275 563 275 545.5 245.5 c 128,-1,42
 528 216 528 216 528 157 c 0,43,44
 528 99 528 99 545.5 69 c 128,-1,45
 563 39 563 39 589 39 c 256,46,47
 615 39 615 39 632 69 c 128,-1,48
 649 99 649 99 649 157 c 0,49,50
 649 216 649 216 632 245.5 c 128,-1,51
 615 275 615 275 589 275 c 256,40,41
EndSplineSet
Validated: 1
EndChar

StartChar: ampersand
Encoding: 6 38 11
Width: 759
Flags: W
LayerCount: 2
Fore
SplineSet
595 104 m 1,0,1
 620 115 620 115 647.5 129 c 128,-1,2
 675 143 675 143 695 153 c 1,3,-1
 709 118 l 1,4,5
 664 80 664 80 628.5 46.5 c 128,-1,6
 593 13 593 13 554 -24 c 1,7,8
 519 -9 519 -9 467 35.5 c 128,-1,9
 415 80 415 80 353.5 145 c 128,-1,10
 292 210 292 210 225 288 c 0,11,12
 196 322 196 322 165.5 357 c 128,-1,13
 135 392 135 392 114 429 c 128,-1,14
 93 466 93 466 93 507 c 0,15,16
 93 550 93 550 116.5 585.5 c 128,-1,17
 140 621 140 621 185 642.5 c 128,-1,18
 230 664 230 664 294 664 c 0,19,20
 332 664 332 664 382.5 655 c 128,-1,21
 433 646 433 646 483 620 c 1,22,23
 476 585 476 585 466.5 543.5 c 128,-1,24
 457 502 457 502 448 465 c 1,25,-1
 395 465 l 1,26,-1
 372 574 l 1,27,28
 347 597 347 597 321 605 c 128,-1,29
 295 613 295 613 265 613 c 1,30,31
 245 600 245 600 237.5 576 c 128,-1,32
 230 552 230 552 230 532 c 0,33,34
 230 497 230 497 251 464.5 c 128,-1,35
 272 432 272 432 309 393.5 c 128,-1,36
 346 355 346 355 394 300 c 0,37,38
 447 241 447 241 496.5 187.5 c 128,-1,39
 546 134 546 134 595 104 c 1,0,1
250 363 m 1,40,41
 214 334 214 334 197 294.5 c 128,-1,42
 180 255 180 255 180 214 c 0,43,44
 180 174 180 174 195.5 139 c 128,-1,45
 211 104 211 104 240.5 82.5 c 128,-1,46
 270 61 270 61 311 61 c 0,47,48
 363 61 363 61 402 85.5 c 128,-1,49
 441 110 441 110 467.5 150.5 c 128,-1,50
 494 191 494 191 507 239.5 c 128,-1,51
 520 288 520 288 520 335 c 0,52,53
 520 375 520 375 511 409 c 1,54,-1
 623 398 l 1,55,56
 601 254 601 254 546 164.5 c 128,-1,57
 491 75 491 75 416.5 33.5 c 128,-1,58
 342 -8 342 -8 259 -8 c 0,59,60
 188 -8 188 -8 139 19 c 128,-1,61
 90 46 90 46 65 89.5 c 128,-1,62
 40 133 40 133 40 181 c 0,63,64
 40 224 40 224 60.5 265 c 128,-1,65
 81 306 81 306 123 338.5 c 128,-1,66
 165 371 165 371 229 387 c 1,67,-1
 250 363 l 1,40,41
739 340 m 1,68,69
 654 349 654 349 567 357.5 c 128,-1,70
 480 366 480 366 397 366 c 1,71,-1
 413 420 l 1,72,-1
 727 420 l 1,73,-1
 739 340 l 1,68,69
EndSplineSet
Validated: 5
EndChar

StartChar: quotesingle
Encoding: 7 39 12
Width: 298
Flags: W
LayerCount: 2
Fore
SplineSet
95 477 m 1,0,1
 85 559 85 559 80 620.5 c 128,-1,2
 75 682 75 682 71 741 c 1,3,4
 98 753 98 753 128 753 c 0,5,6
 148 753 148 753 167 749 c 128,-1,7
 186 745 186 745 201 738 c 1,8,9
 194 686 194 686 181.5 622 c 128,-1,10
 169 558 169 558 139 472 c 1,11,-1
 95 477 l 1,0,1
EndSplineSet
Validated: 1
EndChar

StartChar: parenleft
Encoding: 8 40 13
Width: 354
Flags: W
LayerCount: 2
Fore
SplineSet
293 804 m 1,0,-1
 319 774 l 1,1,2
 266 735 266 735 231 669.5 c 128,-1,3
 196 604 196 604 178.5 525 c 128,-1,4
 161 446 161 446 161 364 c 0,5,6
 161 283 161 283 178 206 c 128,-1,7
 195 129 195 129 229.5 65 c 128,-1,8
 264 1 264 1 315 -41 c 1,9,-1
 289 -78 l 1,10,11
 200 -31 200 -31 140 38.5 c 128,-1,12
 80 108 80 108 50 192 c 128,-1,13
 20 276 20 276 20 364 c 256,14,15
 20 452 20 452 50.5 536.5 c 128,-1,16
 81 621 81 621 141.5 691 c 128,-1,17
 202 761 202 761 293 804 c 1,0,-1
EndSplineSet
Validated: 1
EndChar

StartChar: asterisk
Encoding: 10 42 15
Width: 420
Flags: W
LayerCount: 2
Fore
SplineSet
46 482 m 1,0,-1
 73 521 l 1,1,2
 95 521 95 521 122.5 512.5 c 128,-1,3
 150 504 150 504 175 497 c 1,4,5
 153 511 153 511 127.5 524.5 c 128,-1,6
 102 538 102 538 86 553 c 1,7,-1
 93 598 l 1,8,-1
 140 607 l 1,9,10
 155 591 155 591 168.5 566 c 128,-1,11
 182 541 182 541 195 518 c 1,12,13
 189 544 189 544 180.5 570.5 c 128,-1,14
 172 597 172 597 172 618 c 1,15,-1
 211 647 l 1,16,-1
 248 618 l 1,17,18
 248 597 248 597 239.5 571 c 128,-1,19
 231 545 231 545 225 519 c 1,20,21
 239 542 239 542 251.5 566.5 c 128,-1,22
 264 591 264 591 279 605 c 1,23,-1
 327 598 l 1,24,-1
 332 552 l 1,25,26
 318 537 318 537 293.5 524.5 c 128,-1,27
 269 512 269 512 246 498 c 1,28,29
 272 504 272 504 298 512.5 c 128,-1,30
 324 521 324 521 345 521 c 1,31,-1
 374 482 l 1,32,-1
 345 445 l 1,33,34
 324 445 324 445 298 453.5 c 128,-1,35
 272 462 272 462 246 468 c 1,36,37
 269 455 269 455 293.5 442 c 128,-1,38
 318 429 318 429 332 414 c 1,39,-1
 325 366 l 1,40,-1
 279 361 l 1,41,42
 264 375 264 375 251.5 400 c 128,-1,43
 239 425 239 425 225 447 c 1,44,45
 231 422 231 422 239.5 394.5 c 128,-1,46
 248 367 248 367 248 346 c 1,47,-1
 211 319 l 1,48,-1
 172 346 l 1,49,50
 172 368 172 368 180.5 395.5 c 128,-1,51
 189 423 189 423 196 448 c 1,52,53
 182 426 182 426 168.5 400.5 c 128,-1,54
 155 375 155 375 140 359 c 1,55,-1
 95 366 l 1,56,-1
 86 413 l 1,57,58
 102 428 102 428 127.5 441.5 c 128,-1,59
 153 455 153 455 175 469 c 1,60,61
 150 462 150 462 122.5 453.5 c 128,-1,62
 95 445 95 445 73 445 c 1,63,-1
 46 482 l 1,0,-1
EndSplineSet
Validated: 1
EndChar

StartChar: plus
Encoding: 11 43 16
Width: 571
Flags: W
LayerCount: 2
Fore
SplineSet
536 372 m 1,0,-1
 536 289 l 1,1,2
 461 291 461 291 373.5 291.5 c 128,-1,3
 286 292 286 292 198 291.5 c 128,-1,4
 110 291 110 291 35 289 c 1,5,-1
 35 372 l 1,6,7
 110 371 110 371 198 370.5 c 128,-1,8
 286 370 286 370 373.5 370.5 c 128,-1,9
 461 371 461 371 536 372 c 1,0,-1
327 80 m 1,10,-1
 244 80 l 1,11,12
 246 155 246 155 246.5 243 c 128,-1,13
 247 331 247 331 246.5 418.5 c 128,-1,14
 246 506 246 506 244 581 c 1,15,-1
 327 581 l 1,16,17
 326 506 326 506 325.5 418.5 c 128,-1,18
 325 331 325 331 325.5 243 c 128,-1,19
 326 155 326 155 327 80 c 1,10,-1
EndSplineSet
Validated: 37
EndChar

StartChar: comma
Encoding: 12 44 17
Width: 244
Flags: W
LayerCount: 2
Fore
SplineSet
-13 -158 m 1,0,1
 33 -122 33 -122 58.5 -95 c 128,-1,2
 84 -68 84 -68 96.5 -47 c 128,-1,3
 109 -26 109 -26 114 -8 c 1,4,5
 104 -7 104 -7 90.5 -4 c 128,-1,6
 77 -1 77 -1 69 1 c 1,7,8
 61 35 61 35 61 63 c 0,9,10
 61 95 61 95 69 121 c 1,11,12
 83 126 83 126 96.5 129.5 c 128,-1,13
 110 133 110 133 128 133 c 0,14,15
 163 133 163 133 191 122 c 1,16,17
 201 94 201 94 201 62 c 0,18,19
 201 27 201 27 188 -12 c 128,-1,20
 175 -51 175 -51 136 -97.5 c 128,-1,21
 97 -144 97 -144 19 -202 c 1,22,-1
 -13 -158 l 1,0,1
EndSplineSet
Validated: 1
EndChar

StartChar: hyphen
Encoding: 13 45 19
Width: 348
Flags: W
LayerCount: 2
Fore
SplineSet
300 310 m 1,0,-1
 300 227 l 1,1,-1
 48 227 l 1,2,-1
 48 310 l 1,3,-1
 300 310 l 1,0,-1
EndSplineSet
Validated: 1
EndChar

StartChar: period
Encoding: 14 46 20
Width: 255
Flags: W
LayerCount: 2
Fore
SplineSet
123 133 m 0,0,1
 137 133 137 133 152 130 c 128,-1,2
 167 127 167 127 183 122 c 1,3,4
 192 92 192 92 192 62 c 0,5,6
 192 33 192 33 183 1 c 1,7,8
 167 -3 167 -3 152 -6.5 c 128,-1,9
 137 -10 137 -10 123 -10 c 0,10,11
 107 -10 107 -10 92.5 -6.5 c 128,-1,12
 78 -3 78 -3 62 1 c 1,13,14
 53 33 53 33 53 62 c 0,15,16
 53 92 53 92 62 122 c 1,17,18
 78 127 78 127 92.5 130 c 128,-1,19
 107 133 107 133 123 133 c 0,0,1
EndSplineSet
Validated: 1
EndChar

StartChar: slash
Encoding: 15 47 21
Width: 438
Flags: W
LayerCount: 2
Fore
SplineSet
412 763 m 1,0,-1
 111 -138 l 1,1,-1
 26 -138 l 1,2,-1
 326 763 l 1,3,-1
 412 763 l 1,0,-1
EndSplineSet
Validated: 1
EndChar

StartChar: zero
Encoding: 16 48 22
Width: 561
Flags: W
LayerCount: 2
Fore
SplineSet
281 625 m 256,0,1
 396 625 396 625 466 542.5 c 128,-1,2
 536 460 536 460 536 303 c 0,3,4
 536 204 536 204 504 135 c 128,-1,5
 472 66 472 66 415 30 c 128,-1,6
 358 -6 358 -6 281 -6 c 256,7,8
 204 -6 204 -6 146.5 30 c 128,-1,9
 89 66 89 66 57 135 c 128,-1,10
 25 204 25 204 25 303 c 0,11,12
 25 460 25 460 95.5 542.5 c 128,-1,13
 166 625 166 625 281 625 c 256,0,1
275 572 m 0,14,15
 249 572 249 572 223 546 c 128,-1,16
 197 520 197 520 179.5 461 c 128,-1,17
 162 402 162 402 162 303 c 0,18,19
 162 210 162 210 180 153.5 c 128,-1,20
 198 97 198 97 226.5 72 c 128,-1,21
 255 47 255 47 288 47 c 0,22,23
 314 47 314 47 339.5 72 c 128,-1,24
 365 97 365 97 382 153.5 c 128,-1,25
 399 210 399 210 399 303 c 0,26,27
 399 402 399 402 381.5 461 c 128,-1,28
 364 520 364 520 335.5 546 c 128,-1,29
 307 572 307 572 275 572 c 0,14,15
EndSplineSet
Validated: 1
Substitution2: "Single Substitution lookup 2 subtable" zero.small
Substitution2: "'aalt' Access All Alternates lookup 0 subtable" zero.small
EndChar

StartChar: zero.small
Encoding: 449 -1 23
Width: 350
Flags: W
LayerCount: 2
Fore
SplineSet
175 468 m 0,0,1
 217 468 217 468 254.5 443.5 c 128,-1,2
 292 419 292 419 316 365.5 c 128,-1,3
 340 312 340 312 340 225 c 0,4,5
 340 137 340 137 316 86 c 128,-1,6
 292 35 292 35 254 13 c 128,-1,7
 216 -9 216 -9 175 -9 c 256,8,9
 134 -9 134 -9 95.5 13 c 128,-1,10
 57 35 57 35 33 86 c 128,-1,11
 9 137 9 137 9 225 c 0,12,13
 9 311 9 311 33 364.5 c 128,-1,14
 57 418 57 418 95.5 443 c 128,-1,15
 134 468 134 468 175 468 c 0,0,1
175 426 m 0,16,17
 159 426 159 426 143.5 410 c 128,-1,18
 128 394 128 394 117.5 350.5 c 128,-1,19
 107 307 107 307 107 225 c 0,20,21
 107 147 107 147 117.5 106 c 128,-1,22
 128 65 128 65 144 49.5 c 128,-1,23
 160 34 160 34 176 34 c 256,24,25
 192 34 192 34 207.5 49 c 128,-1,26
 223 64 223 64 233.5 105.5 c 128,-1,27
 244 147 244 147 244 225 c 0,28,29
 244 307 244 307 233.5 350 c 128,-1,30
 223 393 223 393 207.5 409.5 c 128,-1,31
 192 426 192 426 175 426 c 0,16,17
EndSplineSet
Validated: 1
Position2: "Single Positioning lookup 4 subtable" dx=-800 dy=0 dh=-350 dv=0
Position2: "Single Positioning lookup 3 subtable" dx=-1100 dy=0 dh=-300 dv=0
Position2: "Single Positioning lookup 2 subtable" dx=-1375 dy=0 dh=-275 dv=0
EndChar

StartChar: one
Encoding: 17 49 24
Width: 466
Flags: W
LayerCount: 2
Fore
SplineSet
324 630 m 1,0,1
 323 563 323 563 322.5 517 c 128,-1,2
 322 471 322 471 321.5 438.5 c 128,-1,3
 321 406 321 406 320.5 378 c 128,-1,4
 320 350 320 350 320 319 c 0,5,6
 320 274 320 274 320.5 235.5 c 128,-1,7
 321 197 321 197 322 158 c 128,-1,8
 323 119 323 119 324 70 c 1,9,-1
 446 45 l 1,10,-1
 430 0 l 1,11,12
 402 2 402 2 351.5 2.5 c 128,-1,13
 301 3 301 3 251 3 c 0,14,15
 223 3 223 3 186.5 2.5 c 128,-1,16
 150 2 150 2 116 1.5 c 128,-1,17
 82 1 82 1 60 0 c 1,18,-1
 44 45 l 1,19,-1
 171 70 l 1,20,21
 173 117 173 117 173.5 154 c 128,-1,22
 174 191 174 191 174.5 226.5 c 128,-1,23
 175 262 175 262 175 305 c 0,24,25
 175 344 175 344 174.5 370.5 c 128,-1,26
 174 397 174 397 173.5 423.5 c 128,-1,27
 173 450 173 450 171 490 c 1,28,-1
 53 487 l 1,29,-1
 35 537 l 1,30,31
 92 545 92 545 155 566 c 128,-1,32
 218 587 218 587 270 630 c 1,33,-1
 324 630 l 1,0,1
EndSplineSet
Validated: 1
Substitution2: "Single Substitution lookup 2 subtable" one.small
Substitution2: "'aalt' Access All Alternates lookup 0 subtable" one.small
EndChar

StartChar: one.small
Encoding: 450 -1 25
Width: 340
Flags: W
LayerCount: 2
Fore
SplineSet
224 469 m 1,0,1
 224 407 224 407 223.5 366.5 c 128,-1,2
 223 326 223 326 222.5 296.5 c 128,-1,3
 222 267 222 267 222 238 c 0,4,5
 222 190 222 190 222.5 145.5 c 128,-1,6
 223 101 223 101 224 50 c 1,7,-1
 307 32 l 1,8,-1
 296 1 l 1,9,10
 276 2 276 2 242.5 2.5 c 128,-1,11
 209 3 209 3 177 3 c 0,12,13
 147 3 147 3 110 2 c 128,-1,14
 73 1 73 1 50 1 c 1,15,-1
 39 32 l 1,16,-1
 124 50 l 1,17,18
 126 99 126 99 126.5 141 c 128,-1,19
 127 183 127 183 127 228 c 0,20,21
 127 269 127 269 126.5 306 c 128,-1,22
 126 343 126 343 124 385 c 1,23,-1
 45 383 l 1,24,-1
 32 418 l 1,25,26
 50 422 50 422 77 429 c 128,-1,27
 104 436 104 436 131.5 446 c 128,-1,28
 159 456 159 456 180 469 c 1,29,-1
 224 469 l 1,0,1
EndSplineSet
Validated: 1
Position2: "Single Positioning lookup 4 subtable" dx=-800 dy=0 dh=-350 dv=0
Position2: "Single Positioning lookup 3 subtable" dx=-1100 dy=0 dh=-300 dv=0
Position2: "Single Positioning lookup 2 subtable" dx=-1375 dy=0 dh=-275 dv=0
EndChar

StartChar: two
Encoding: 18 50 26
Width: 538
Flags: W
LayerCount: 2
Fore
SplineSet
40 459 m 1,0,1
 89 539 89 539 155 584 c 128,-1,2
 221 629 221 629 299 629 c 0,3,4
 345 629 345 629 387.5 612.5 c 128,-1,5
 430 596 430 596 457.5 561 c 128,-1,6
 485 526 485 526 485 470 c 0,7,8
 485 440 485 440 477 412.5 c 128,-1,9
 469 385 469 385 448 353.5 c 128,-1,10
 427 322 427 322 387 281 c 128,-1,11
 347 240 347 240 283.5 183.5 c 128,-1,12
 220 127 220 127 128 47 c 1,13,-1
 143 106 l 1,14,15
 163 105 163 105 184.5 105 c 128,-1,16
 206 105 206 105 229 105 c 0,17,18
 264 105 264 105 307.5 106 c 128,-1,19
 351 107 351 107 396 109 c 128,-1,20
 441 111 441 111 480 114 c 1,21,-1
 496 0 l 1,22,23
 442 2 442 2 386.5 3 c 128,-1,24
 331 4 331 4 268 4 c 0,25,26
 220 4 220 4 184.5 3.5 c 128,-1,27
 149 3 149 3 119.5 2.5 c 128,-1,28
 90 2 90 2 58 0 c 1,29,-1
 40 41 l 1,30,31
 129 132 129 132 188 192.5 c 128,-1,32
 247 253 247 253 282 294 c 128,-1,33
 317 335 317 335 331.5 364.5 c 128,-1,34
 346 394 346 394 346 424 c 0,35,36
 346 470 346 470 316 498.5 c 128,-1,37
 286 527 286 527 236 527 c 0,38,39
 192 527 192 527 152.5 505 c 128,-1,40
 113 483 113 483 63 427 c 1,41,-1
 40 459 l 1,0,1
411 105 m 1,42,43
 423 135 423 135 431.5 161.5 c 128,-1,44
 440 188 440 188 450 215 c 1,45,-1
 503 215 l 1,46,47
 499 174 499 174 497 131 c 128,-1,48
 495 88 495 88 495 45 c 0,49,50
 495 34 495 34 495.5 22.5 c 128,-1,51
 496 11 496 11 496 0 c 1,52,-1
 411 105 l 1,42,43
EndSplineSet
Validated: 5
Substitution2: "Single Substitution lookup 2 subtable" two.small
Substitution2: "'aalt' Access All Alternates lookup 0 subtable" two.small
EndChar

StartChar: two.small
Encoding: 451 -1 27
Width: 390
Flags: W
LayerCount: 2
Fore
SplineSet
35 348 m 1,0,1
 73 401 73 401 119 434.5 c 128,-1,2
 165 468 165 468 217 468 c 0,3,4
 271 468 271 468 308 436.5 c 128,-1,5
 345 405 345 405 345 349 c 0,6,7
 345 307 345 307 316.5 264 c 128,-1,8
 288 221 288 221 238.5 167.5 c 128,-1,9
 189 114 189 114 125 41 c 1,10,-1
 135 77 l 1,11,12
 185 77 185 77 230 78.5 c 128,-1,13
 275 80 275 80 333 88 c 1,14,-1
 344 0 l 1,15,16
 307 2 307 2 269 2.5 c 128,-1,17
 231 3 231 3 187 3 c 0,18,19
 155 3 155 3 123.5 2.5 c 128,-1,20
 92 2 92 2 54 0 c 1,21,-1
 43 29 l 1,22,23
 112 106 112 106 152 154 c 128,-1,24
 192 202 192 202 211 231 c 128,-1,25
 230 260 230 260 235.5 279.5 c 128,-1,26
 241 299 241 299 241 320 c 0,27,28
 241 352 241 352 223 371 c 128,-1,29
 205 390 205 390 175 390 c 0,30,31
 151 390 151 390 123.5 377 c 128,-1,32
 96 364 96 364 56 321 c 1,33,-1
 35 348 l 1,0,1
285 81 m 1,34,35
 294 101 294 101 300 119.5 c 128,-1,36
 306 138 306 138 313 157 c 1,37,-1
 349 157 l 1,38,39
 347 129 347 129 345 99 c 128,-1,40
 343 69 343 69 343 37 c 0,41,42
 343 28 343 28 343.5 19 c 128,-1,43
 344 10 344 10 344 0 c 1,44,-1
 285 81 l 1,34,35
EndSplineSet
Validated: 5
Position2: "Single Positioning lookup 4 subtable" dx=-800 dy=0 dh=-350 dv=0
Position2: "Single Positioning lookup 3 subtable" dx=-1100 dy=0 dh=-300 dv=0
Position2: "Single Positioning lookup 2 subtable" dx=-1375 dy=0 dh=-275 dv=0
EndChar

StartChar: three
Encoding: 19 51 28
Width: 509
Flags: W
LayerCount: 2
Fore
SplineSet
242 -8 m 0,0,1
 196 -8 196 -8 140 10 c 128,-1,2
 84 28 84 28 30 80 c 1,3,-1
 49 124 l 1,4,5
 90 90 90 90 135.5 72.5 c 128,-1,6
 181 55 181 55 222 55 c 0,7,8
 276 55 276 55 312.5 87 c 128,-1,9
 349 119 349 119 349 174 c 0,10,11
 349 215 349 215 326.5 243 c 128,-1,12
 304 271 304 271 267.5 285.5 c 128,-1,13
 231 300 231 300 190 300 c 1,14,-1
 173 346 l 1,15,16
 209 384 209 384 233.5 410.5 c 128,-1,17
 258 437 258 437 276.5 461.5 c 128,-1,18
 295 486 295 486 314 515 c 1,19,20
 296 516 296 516 277.5 516.5 c 128,-1,21
 259 517 259 517 233 517 c 0,22,23
 206 517 206 517 184.5 516.5 c 128,-1,24
 163 516 163 516 134 514 c 1,25,26
 124 492 124 492 116 467.5 c 128,-1,27
 108 443 108 443 97 417 c 1,28,-1
 48 417 l 1,29,30
 52 465 52 465 52.5 521.5 c 128,-1,31
 53 578 53 578 53 620 c 1,32,33
 97 619 97 619 145 618 c 128,-1,34
 193 617 193 617 238 617 c 0,35,36
 291 617 291 617 337.5 618 c 128,-1,37
 384 619 384 619 435 620 c 1,38,-1
 445 547 l 1,39,40
 409 511 409 511 372 476.5 c 128,-1,41
 335 442 335 442 304 409 c 1,42,43
 369 395 369 395 408.5 364.5 c 128,-1,44
 448 334 448 334 466 294.5 c 128,-1,45
 484 255 484 255 484 212 c 0,46,47
 484 158 484 158 455.5 107.5 c 128,-1,48
 427 57 427 57 373 24.5 c 128,-1,49
 319 -8 319 -8 242 -8 c 0,0,1
EndSplineSet
Validated: 1
Substitution2: "Single Substitution lookup 2 subtable" three.small
Substitution2: "'aalt' Access All Alternates lookup 0 subtable" three.small
EndChar

StartChar: three.small
Encoding: 452 -1 29
Width: 370
Flags: W
LayerCount: 2
Fore
SplineSet
179 -2 m 0,0,1
 144 -2 144 -2 108 8.5 c 128,-1,2
 72 19 72 19 43 40 c 1,3,-1
 50 78 l 1,4,5
 82 63 82 63 106.5 54.5 c 128,-1,6
 131 46 131 46 157 46 c 0,7,8
 196 46 196 46 226.5 68.5 c 128,-1,9
 257 91 257 91 257 132 c 0,10,11
 257 166 257 166 240 186 c 128,-1,12
 223 206 223 206 197 216 c 128,-1,13
 171 226 171 226 143 227 c 1,14,-1
 133 268 l 1,15,16
 159 294 159 294 173 310 c 128,-1,17
 187 326 187 326 197 340.5 c 128,-1,18
 207 355 207 355 220 375 c 1,19,20
 207 376 207 376 196.5 376.5 c 128,-1,21
 186 377 186 377 172 377 c 0,22,23
 153 377 153 377 138 376.5 c 128,-1,24
 123 376 123 376 103 374 c 1,25,26
 96 358 96 358 90.5 341.5 c 128,-1,27
 85 325 85 325 77 307 c 1,28,-1
 43 307 l 1,29,30
 45 329 45 329 46.5 357 c 128,-1,31
 48 385 48 385 49 412.5 c 128,-1,32
 50 440 50 440 50 460 c 1,33,34
 80 459 80 459 114 458 c 128,-1,35
 148 457 148 457 179 457 c 0,36,37
 246 457 246 457 318 460 c 1,38,-1
 332 409 l 1,39,40
 301 378 301 378 274 353 c 128,-1,41
 247 328 247 328 221 304 c 1,42,43
 291 287 291 287 320.5 243 c 128,-1,44
 350 199 350 199 350 152 c 0,45,46
 350 101 350 101 325 66.5 c 128,-1,47
 300 32 300 32 261 15 c 128,-1,48
 222 -2 222 -2 179 -2 c 0,0,1
EndSplineSet
Validated: 1
Position2: "Single Positioning lookup 4 subtable" dx=-800 dy=0 dh=-350 dv=0
Position2: "Single Positioning lookup 3 subtable" dx=-1100 dy=0 dh=-300 dv=0
Position2: "Single Positioning lookup 2 subtable" dx=-1375 dy=0 dh=-275 dv=0
EndChar

StartChar: four
Encoding: 20 52 30
Width: 565
Flags: W
LayerCount: 2
Fore
SplineSet
423 628 m 1,0,1
 422 534 422 534 422 449.5 c 128,-1,2
 422 365 422 365 422 279 c 0,3,4
 422 232 422 232 422 192.5 c 128,-1,5
 422 153 422 153 422.5 110.5 c 128,-1,6
 423 68 423 68 424 10 c 1,7,-1
 280 10 l 1,8,9
 283 66 283 66 283.5 109 c 128,-1,10
 284 152 284 152 284 203 c 0,11,12
 284 255 284 255 283 303 c 128,-1,13
 282 351 282 351 282 416 c 1,14,15
 237 348 237 348 207 306 c 128,-1,16
 177 264 177 264 148 228 c 1,17,18
 174 223 174 223 222.5 221.5 c 128,-1,19
 271 220 271 220 318 220 c 0,20,21
 363 220 363 220 390.5 220.5 c 128,-1,22
 418 221 418 221 438 221.5 c 128,-1,23
 458 222 458 222 477.5 223.5 c 128,-1,24
 497 225 497 225 525 228 c 1,25,-1
 525 146 l 1,26,27
 485 148 485 148 445 149 c 128,-1,28
 405 150 405 150 358 150 c 128,-1,29
 311 150 311 150 249 150 c 0,30,31
 213 150 213 150 185.5 150 c 128,-1,32
 158 150 158 150 125 149 c 128,-1,33
 92 148 92 148 38 146 c 1,34,-1
 15 198 l 1,35,36
 103 296 103 296 195 402 c 128,-1,37
 287 508 287 508 369 628 c 1,38,-1
 423 628 l 1,0,1
423 70 m 1,39,-1
 520 45 l 1,40,-1
 503 0 l 1,41,42
 484 1 484 1 462 1.5 c 128,-1,43
 440 2 440 2 407 2.5 c 128,-1,44
 374 3 374 3 321 3 c 0,45,46
 299 3 299 3 268.5 2.5 c 128,-1,47
 238 2 238 2 207.5 1.5 c 128,-1,48
 177 1 177 1 155 0 c 1,49,-1
 138 45 l 1,50,-1
 283 70 l 1,51,-1
 423 70 l 1,39,-1
EndSplineSet
Validated: 5
Substitution2: "Single Substitution lookup 2 subtable" four.small
Substitution2: "'aalt' Access All Alternates lookup 0 subtable" four.small
EndChar

StartChar: four.small
Encoding: 453 -1 31
Width: 390
Flags: W
LayerCount: 2
Fore
SplineSet
314 468 m 1,0,1
 313 402 313 402 313 343 c 128,-1,2
 313 284 313 284 313 224 c 0,3,4
 313 174 313 174 313 117.5 c 128,-1,5
 313 61 313 61 314 0 c 1,6,-1
 216 0 l 1,7,8
 218 40 218 40 218.5 79 c 128,-1,9
 219 118 219 118 219 156 c 0,10,11
 219 203 219 203 218 242 c 128,-1,12
 217 281 217 281 217 327 c 1,13,14
 186 280 186 280 159.5 241 c 128,-1,15
 133 202 133 202 110 163 c 1,16,17
 149 162 149 162 179.5 160.5 c 128,-1,18
 210 159 210 159 237 159 c 0,19,20
 267 159 267 159 299 160.5 c 128,-1,21
 331 162 331 162 368 164 c 1,22,-1
 368 103 l 1,23,24
 342 104 342 104 297 104.5 c 128,-1,25
 252 105 252 105 202 105 c 0,26,27
 153 105 153 105 106 104.5 c 128,-1,28
 59 104 59 104 27 103 c 1,29,-1
 27 163 l 1,30,31
 89 231 89 231 143.5 307.5 c 128,-1,32
 198 384 198 384 255 468 c 1,33,-1
 314 468 l 1,0,1
EndSplineSet
Validated: 5
Position2: "Single Positioning lookup 4 subtable" dx=-800 dy=0 dh=-350 dv=0
Position2: "Single Positioning lookup 3 subtable" dx=-1100 dy=0 dh=-300 dv=0
Position2: "Single Positioning lookup 2 subtable" dx=-1375 dy=0 dh=-275 dv=0
EndChar

StartChar: five
Encoding: 21 53 32
Width: 504
Flags: W
LayerCount: 2
Fore
SplineSet
52 321 m 1,0,1
 60 368 60 368 65 422.5 c 128,-1,2
 70 477 70 477 73.5 529.5 c 128,-1,3
 77 582 77 582 77 620 c 1,4,5
 121 619 121 619 156 618.5 c 128,-1,6
 191 618 191 618 241 618 c 0,7,8
 259 618 259 618 286 618 c 128,-1,9
 313 618 313 618 343 618.5 c 128,-1,10
 373 619 373 619 399 619.5 c 128,-1,11
 425 620 425 620 440 620 c 1,12,-1
 436 497 l 1,13,14
 406 506 406 506 361.5 511.5 c 128,-1,15
 317 517 317 517 271.5 519 c 128,-1,16
 226 521 226 521 192 521.5 c 128,-1,17
 158 522 158 522 147 522 c 1,18,19
 140 499 140 499 136 474.5 c 128,-1,20
 132 450 132 450 130 423 c 1,21,22
 149 426 149 426 166.5 427 c 128,-1,23
 184 428 184 428 212 428 c 0,24,25
 294 428 294 428 351.5 396.5 c 128,-1,26
 409 365 409 365 439 316.5 c 128,-1,27
 469 268 469 268 469 215 c 0,28,29
 469 140 469 140 429.5 90.5 c 128,-1,30
 390 41 390 41 325 16.5 c 128,-1,31
 260 -8 260 -8 182 -8 c 0,32,33
 114 -8 114 -8 45 10 c 1,34,-1
 53 64 l 1,35,36
 112 46 112 46 170 46 c 0,37,38
 218 46 218 46 257 59.5 c 128,-1,39
 296 73 296 73 319.5 101 c 128,-1,40
 343 129 343 129 343 172 c 0,41,42
 343 205 343 205 324.5 233.5 c 128,-1,43
 306 262 306 262 269.5 279.5 c 128,-1,44
 233 297 233 297 179 297 c 0,45,46
 145 297 145 297 121.5 294 c 128,-1,47
 98 291 98 291 82 286 c 1,48,-1
 52 321 l 1,0,1
EndSplineSet
Validated: 1
Substitution2: "Single Substitution lookup 2 subtable" five.small
Substitution2: "'aalt' Access All Alternates lookup 0 subtable" five.small
EndChar

StartChar: five.small
Encoding: 454 -1 33
Width: 370
Flags: W
LayerCount: 2
Fore
SplineSet
31 237 m 1,0,1
 36 270 36 270 39.5 311 c 128,-1,2
 43 352 43 352 45.5 392 c 128,-1,3
 48 432 48 432 49 460 c 1,4,5
 80 459 80 459 105 458.5 c 128,-1,6
 130 458 130 458 170 458 c 0,7,8
 187 458 187 458 212.5 458.5 c 128,-1,9
 238 459 238 459 263 459.5 c 128,-1,10
 288 460 288 460 302 460 c 1,11,-1
 299 372 l 1,12,13
 278 379 278 379 247 382.5 c 128,-1,14
 216 386 216 386 184.5 387.5 c 128,-1,15
 153 389 153 389 129 389.5 c 128,-1,16
 105 390 105 390 97 390 c 1,17,-1
 83 309 l 1,18,19
 98 312 98 312 113 313.5 c 128,-1,20
 128 315 128 315 150 315 c 0,21,22
 210 315 210 315 251 293.5 c 128,-1,23
 292 272 292 272 312.5 237.5 c 128,-1,24
 333 203 333 203 333 164 c 0,25,26
 333 123 333 123 308 83.5 c 128,-1,27
 283 44 283 44 233 19 c 128,-1,28
 183 -6 183 -6 106 -6 c 0,29,30
 88 -6 88 -6 68 -4 c 128,-1,31
 48 -2 48 -2 25 5 c 1,32,-1
 31 46 l 1,33,34
 45 40 45 40 64.5 37.5 c 128,-1,35
 84 35 84 35 105 35 c 0,36,37
 173 35 173 35 205.5 65.5 c 128,-1,38
 238 96 238 96 238 132 c 0,39,40
 238 167 238 167 207.5 196 c 128,-1,41
 177 225 177 225 116 225 c 0,42,43
 94 225 94 225 77.5 223 c 128,-1,44
 61 221 61 221 46 218 c 1,45,-1
 31 237 l 1,0,1
EndSplineSet
Validated: 1
Position2: "Single Positioning lookup 4 subtable" dx=-800 dy=0 dh=-350 dv=0
Position2: "Single Positioning lookup 3 subtable" dx=-1100 dy=0 dh=-300 dv=0
Position2: "Single Positioning lookup 2 subtable" dx=-1375 dy=0 dh=-275 dv=0
EndChar

StartChar: six
Encoding: 22 54 34
Width: 534
Flags: W
LayerCount: 2
Fore
SplineSet
156 347 m 1,0,1
 179 368 179 368 216.5 384 c 128,-1,2
 254 400 254 400 295 400 c 0,3,4
 364 400 364 400 409 372 c 128,-1,5
 454 344 454 344 476.5 299.5 c 128,-1,6
 499 255 499 255 499 206 c 0,7,8
 499 154 499 154 473.5 105.5 c 128,-1,9
 448 57 448 57 398 25.5 c 128,-1,10
 348 -6 348 -6 273 -6 c 0,11,12
 195 -6 195 -6 142 27.5 c 128,-1,13
 89 61 89 61 62 115.5 c 128,-1,14
 35 170 35 170 35 232 c 0,15,16
 35 326 35 326 83 409 c 128,-1,17
 131 492 131 492 221 551 c 128,-1,18
 311 610 311 610 436 633 c 1,19,-1
 453 595 l 1,20,21
 312 556 312 556 246 466 c 128,-1,22
 180 376 180 376 180 248 c 0,23,24
 180 148 180 148 210 97.5 c 128,-1,25
 240 47 240 47 277 47 c 0,26,27
 305 47 305 47 323 66.5 c 128,-1,28
 341 86 341 86 350 117 c 128,-1,29
 359 148 359 148 359 183 c 0,30,31
 359 221 359 221 348.5 256 c 128,-1,32
 338 291 338 291 318 313.5 c 128,-1,33
 298 336 298 336 268 336 c 0,34,35
 239 336 239 336 218 326 c 128,-1,36
 197 316 197 316 184.5 303.5 c 128,-1,37
 172 291 172 291 168 284 c 1,38,-1
 156 347 l 1,0,1
EndSplineSet
Validated: 5
Substitution2: "Single Substitution lookup 2 subtable" six.small
Substitution2: "'aalt' Access All Alternates lookup 0 subtable" six.small
EndChar

StartChar: six.small
Encoding: 455 -1 35
Width: 390
Flags: W
LayerCount: 2
Fore
SplineSet
108 250 m 1,0,1
 124 264 124 264 154.5 276.5 c 128,-1,2
 185 289 185 289 210 289 c 0,3,4
 260 289 260 289 291.5 269.5 c 128,-1,5
 323 250 323 250 338.5 219 c 128,-1,6
 354 188 354 188 354 151 c 0,7,8
 354 113 354 113 337 77 c 128,-1,9
 320 41 320 41 285.5 18.5 c 128,-1,10
 251 -4 251 -4 196 -4 c 0,11,12
 144 -4 144 -4 108 20 c 128,-1,13
 72 44 72 44 53.5 85.5 c 128,-1,14
 35 127 35 127 35 177 c 0,15,16
 35 236 35 236 62 292 c 128,-1,17
 89 348 89 348 148 394.5 c 128,-1,18
 207 441 207 441 301 471 c 1,19,-1
 316 442 l 1,20,21
 225 399 225 399 182.5 333 c 128,-1,22
 140 267 140 267 140 188 c 0,23,24
 140 107 140 107 163 71.5 c 128,-1,25
 186 36 186 36 208 36 c 256,26,27
 230 36 230 36 242.5 64 c 128,-1,28
 255 92 255 92 255 127 c 0,29,30
 255 154 255 154 248.5 180 c 128,-1,31
 242 206 242 206 228 223 c 128,-1,32
 214 240 214 240 191 240 c 0,33,34
 157 240 157 240 138 226 c 128,-1,35
 119 212 119 212 115 204 c 1,36,-1
 108 250 l 1,0,1
EndSplineSet
Validated: 5
Position2: "Single Positioning lookup 4 subtable" dx=-800 dy=0 dh=-350 dv=0
Position2: "Single Positioning lookup 3 subtable" dx=-1100 dy=0 dh=-300 dv=0
Position2: "Single Positioning lookup 2 subtable" dx=-1375 dy=0 dh=-275 dv=0
EndChar

StartChar: seven
Encoding: 23 55 36
Width: 474
Flags: W
LayerCount: 2
Fore
SplineSet
110 510 m 1,0,1
 99 483 99 483 90.5 458 c 128,-1,2
 82 433 82 433 74 408 c 1,3,-1
 25 408 l 1,4,5
 28 467 28 467 29.5 524.5 c 128,-1,6
 31 582 31 582 31 620 c 1,7,8
 77 619 77 619 132.5 618 c 128,-1,9
 188 617 188 617 230 617 c 0,10,11
 298 617 298 617 345.5 618 c 128,-1,12
 393 619 393 619 441 620 c 1,13,-1
 469 575 l 1,14,15
 408 473 408 473 372 385.5 c 128,-1,16
 336 298 336 298 318.5 225.5 c 128,-1,17
 301 153 301 153 294.5 96 c 128,-1,18
 288 39 288 39 284 0 c 1,19,-1
 137 0 l 1,20,21
 157 116 157 116 214 246.5 c 128,-1,22
 271 377 271 377 366 510 c 1,23,24
 312 513 312 513 272 514 c 128,-1,25
 232 515 232 515 194.5 514 c 128,-1,26
 157 513 157 513 110 510 c 1,0,1
EndSplineSet
Validated: 33
Substitution2: "Single Substitution lookup 2 subtable" seven.small
Substitution2: "'aalt' Access All Alternates lookup 0 subtable" seven.small
EndChar

StartChar: seven.small
Encoding: 456 -1 37
Width: 350
Flags: W
LayerCount: 2
Fore
SplineSet
87 377 m 1,0,1
 73 342 73 342 62 306 c 1,2,-1
 28 306 l 1,3,4
 30 347 30 347 32 390.5 c 128,-1,5
 34 434 34 434 34 461 c 1,6,7
 66 460 66 460 105 459.5 c 128,-1,8
 144 459 144 459 173 459 c 0,9,10
 220 459 220 459 253.5 459.5 c 128,-1,11
 287 460 287 460 321 461 c 1,12,-1
 338 435 l 1,13,14
 282 335 282 335 255 254 c 128,-1,15
 228 173 228 173 218.5 110 c 128,-1,16
 209 47 209 47 205 -1 c 1,17,-1
 100 -1 l 1,18,19
 120 97 120 97 157.5 185.5 c 128,-1,20
 195 274 195 274 253 377 c 1,21,22
 231 378 231 378 208.5 378 c 128,-1,23
 186 378 186 378 166 378 c 0,24,25
 142 378 142 378 127.5 378 c 128,-1,26
 113 378 113 378 87 377 c 1,0,1
EndSplineSet
Validated: 1
Position2: "Single Positioning lookup 4 subtable" dx=-800 dy=0 dh=-350 dv=0
Position2: "Single Positioning lookup 3 subtable" dx=-1100 dy=0 dh=-300 dv=0
Position2: "Single Positioning lookup 2 subtable" dx=-1375 dy=0 dh=-275 dv=0
EndChar

StartChar: eight
Encoding: 24 56 38
Width: 505
Flags: W
LayerCount: 2
Fore
SplineSet
443 486 m 0,0,1
 443 462 443 462 426 431.5 c 128,-1,2
 409 401 409 401 374 374.5 c 128,-1,3
 339 348 339 348 284 334 c 1,4,-1
 237 366 l 1,5,6
 280 383 280 383 301 403.5 c 128,-1,7
 322 424 322 424 329 443.5 c 128,-1,8
 336 463 336 463 336 478 c 0,9,10
 336 527 336 527 307 552 c 128,-1,11
 278 577 278 577 242 577 c 0,12,13
 213 577 213 577 192.5 557 c 128,-1,14
 172 537 172 537 172 505 c 0,15,16
 172 477 172 477 194 455.5 c 128,-1,17
 216 434 216 434 251.5 415 c 128,-1,18
 287 396 287 396 326 375.5 c 128,-1,19
 365 355 365 355 400.5 328.5 c 128,-1,20
 436 302 436 302 458 266.5 c 128,-1,21
 480 231 480 231 480 181 c 0,22,23
 480 124 480 124 451 82 c 128,-1,24
 422 40 422 40 370.5 17 c 128,-1,25
 319 -6 319 -6 250 -6 c 0,26,27
 172 -6 172 -6 122.5 18 c 128,-1,28
 73 42 73 42 49 81 c 128,-1,29
 25 120 25 120 25 163 c 0,30,31
 25 196 25 196 43 232 c 128,-1,32
 61 268 61 268 101 299 c 128,-1,33
 141 330 141 330 206 347 c 1,34,-1
 239 325 l 1,35,36
 192 296 192 296 174 251.5 c 128,-1,37
 156 207 156 207 156 167 c 256,38,39
 156 127 156 127 171.5 101 c 128,-1,40
 187 75 187 75 211.5 61.5 c 128,-1,41
 236 48 236 48 261 48 c 0,42,43
 295 48 295 48 321.5 71.5 c 128,-1,44
 348 95 348 95 348 141 c 0,45,46
 348 178 348 178 326 204 c 128,-1,47
 304 230 304 230 269 251 c 128,-1,48
 234 272 234 272 195 291.5 c 128,-1,49
 156 311 156 311 121 334.5 c 128,-1,50
 86 358 86 358 64 389 c 128,-1,51
 42 420 42 420 42 464 c 0,52,53
 42 513 42 513 68 550 c 128,-1,54
 94 587 94 587 141.5 608 c 128,-1,55
 189 629 189 629 251 629 c 0,56,57
 318 629 318 629 360.5 608.5 c 128,-1,58
 403 588 403 588 423 555.5 c 128,-1,59
 443 523 443 523 443 486 c 0,0,1
EndSplineSet
Validated: 5
Substitution2: "Single Substitution lookup 2 subtable" eight.small
Substitution2: "'aalt' Access All Alternates lookup 0 subtable" eight.small
EndChar

StartChar: eight.small
Encoding: 457 -1 39
Width: 390
Flags: W
LayerCount: 2
Fore
SplineSet
219 244 m 1,0,-1
 186 266 l 1,1,2
 213 279 213 279 233.5 306 c 128,-1,3
 254 333 254 333 254 359 c 0,4,5
 254 391 254 391 232.5 408 c 128,-1,6
 211 425 211 425 188 425 c 0,7,8
 169 425 169 425 155 413.5 c 128,-1,9
 141 402 141 402 141 377 c 0,10,11
 141 351 141 351 163 331.5 c 128,-1,12
 185 312 185 312 217 293.5 c 128,-1,13
 249 275 249 275 281 253 c 128,-1,14
 313 231 313 231 335 200.5 c 128,-1,15
 357 170 357 170 357 126 c 0,16,17
 357 81 357 81 332.5 51 c 128,-1,18
 308 21 308 21 270 6 c 128,-1,19
 232 -9 232 -9 191 -9 c 0,20,21
 151 -9 151 -9 114.5 4.5 c 128,-1,22
 78 18 78 18 55 45.5 c 128,-1,23
 32 73 32 73 32 113 c 0,24,25
 32 158 32 158 66 196.5 c 128,-1,26
 100 235 100 235 176 253 c 1,27,-1
 187 238 l 1,28,29
 163 217 163 217 148.5 185.5 c 128,-1,30
 134 154 134 154 134 116 c 0,31,32
 134 75 134 75 156 54.5 c 128,-1,33
 178 34 178 34 203 34 c 0,34,35
 225 34 225 34 242.5 50.5 c 128,-1,36
 260 67 260 67 260 98 c 0,37,38
 260 132 260 132 238 155 c 128,-1,39
 216 178 216 178 184 196.5 c 128,-1,40
 152 215 152 215 120 234.5 c 128,-1,41
 88 254 88 254 66 281 c 128,-1,42
 44 308 44 308 44 349 c 0,43,44
 44 405 44 405 87.5 436 c 128,-1,45
 131 467 131 467 195 467 c 0,46,47
 261 467 261 467 297 436 c 128,-1,48
 333 405 333 405 333 364 c 0,49,50
 333 328 333 328 302.5 293 c 128,-1,51
 272 258 272 258 219 244 c 1,0,-1
EndSplineSet
Validated: 5
Position2: "Single Positioning lookup 4 subtable" dx=-800 dy=0 dh=-350 dv=0
Position2: "Single Positioning lookup 3 subtable" dx=-1100 dy=0 dh=-300 dv=0
Position2: "Single Positioning lookup 2 subtable" dx=-1375 dy=0 dh=-275 dv=0
EndChar

StartChar: nine
Encoding: 25 57 40
Width: 538
Flags: W
LayerCount: 2
Fore
SplineSet
382 276 m 1,0,1
 359 255 359 255 319.5 239 c 128,-1,2
 280 223 280 223 239 223 c 0,3,4
 171 223 171 223 125.5 251 c 128,-1,5
 80 279 80 279 57.5 323.5 c 128,-1,6
 35 368 35 368 35 417 c 0,7,8
 35 469 35 469 60 517.5 c 128,-1,9
 85 566 85 566 135.5 597.5 c 128,-1,10
 186 629 186 629 261 629 c 0,11,12
 340 629 340 629 393.5 595.5 c 128,-1,13
 447 562 447 562 475 507.5 c 128,-1,14
 503 453 503 453 503 391 c 0,15,16
 503 297 503 297 457.5 214 c 128,-1,17
 412 131 412 131 324.5 72 c 128,-1,18
 237 13 237 13 112 -10 c 1,19,-1
 95 28 l 1,20,21
 236 67 236 67 297 157.5 c 128,-1,22
 358 248 358 248 358 375 c 0,23,24
 358 442 358 442 343 486.5 c 128,-1,25
 328 531 328 531 305 553.5 c 128,-1,26
 282 576 282 576 257 576 c 0,27,28
 230 576 230 576 211.5 556.5 c 128,-1,29
 193 537 193 537 184 506 c 128,-1,30
 175 475 175 475 175 440 c 0,31,32
 175 403 175 403 185.5 367.5 c 128,-1,33
 196 332 196 332 216.5 309.5 c 128,-1,34
 237 287 237 287 266 287 c 256,35,36
 295 287 295 287 317 297 c 128,-1,37
 339 307 339 307 353 319.5 c 128,-1,38
 367 332 367 332 370 339 c 1,39,-1
 382 276 l 1,0,1
EndSplineSet
Validated: 5
Substitution2: "Single Substitution lookup 2 subtable" nine.small
Substitution2: "'aalt' Access All Alternates lookup 0 subtable" nine.small
EndChar

StartChar: less
Encoding: 28 60 44
Width: 565
Flags: W
LayerCount: 2
Fore
SplineSet
35 370 m 1,0,-1
 530 600 l 1,1,-1
 530 520 l 1,2,-1
 67 298 l 1,3,-1
 67 371 l 1,4,-1
 530 149 l 1,5,-1
 530 69 l 1,6,-1
 35 300 l 1,7,-1
 35 370 l 1,0,-1
EndSplineSet
Validated: 5
EndChar

StartChar: equal
Encoding: 29 61 45
Width: 571
Flags: W
LayerCount: 2
Fore
SplineSet
536 301 m 1,0,-1
 536 218 l 1,1,2
 461 220 461 220 373.5 220.5 c 128,-1,3
 286 221 286 221 198 220.5 c 128,-1,4
 110 220 110 220 35 218 c 1,5,-1
 35 301 l 1,6,7
 110 300 110 300 198 299.5 c 128,-1,8
 286 299 286 299 373.5 299.5 c 128,-1,9
 461 300 461 300 536 301 c 1,0,-1
536 471 m 1,10,-1
 536 388 l 1,11,12
 461 390 461 390 373.5 390.5 c 128,-1,13
 286 391 286 391 198 390.5 c 128,-1,14
 110 390 110 390 35 388 c 1,15,-1
 35 471 l 1,16,17
 110 470 110 470 198 469.5 c 128,-1,18
 286 469 286 469 373.5 469.5 c 128,-1,19
 461 470 461 470 536 471 c 1,10,-1
EndSplineSet
Validated: 33
EndChar

StartChar: question
Encoding: 31 63 47
Width: 458
Flags: W
LayerCount: 2
Fore
SplineSet
188 721 m 0,0,1
 264 721 264 721 313.5 689.5 c 128,-1,2
 363 658 363 658 388 608 c 128,-1,3
 413 558 413 558 413 502 c 0,4,5
 413 447 413 447 387.5 395 c 128,-1,6
 362 343 362 343 311 309 c 128,-1,7
 260 275 260 275 183 272 c 1,8,9
 181 250 181 250 180 227 c 128,-1,10
 179 204 179 204 177 171 c 1,11,-1
 115 171 l 1,12,13
 112 210 112 210 108 242.5 c 128,-1,14
 104 275 104 275 99 312 c 128,-1,15
 94 349 94 349 86 398 c 1,16,17
 95 397 95 397 106.5 397 c 128,-1,18
 118 397 118 397 142 397 c 0,19,20
 226 397 226 397 260 436 c 128,-1,21
 294 475 294 475 294 533 c 0,22,23
 294 571 294 571 284 601 c 128,-1,24
 274 631 274 631 256 656 c 1,25,26
 250 657 250 657 244.5 657 c 128,-1,27
 239 657 239 657 233 657 c 0,28,29
 196 657 196 657 166.5 648 c 128,-1,30
 137 639 137 639 111 625 c 1,31,-1
 91 520 l 1,32,-1
 41 520 l 1,33,34
 34 564 34 564 25 604 c 128,-1,35
 16 644 16 644 5 687 c 1,36,37
 40 702 40 702 86.5 711.5 c 128,-1,38
 133 721 133 721 188 721 c 0,0,1
147 117 m 0,39,40
 162 117 162 117 175.5 115 c 128,-1,41
 189 113 189 113 204 109 c 1,42,43
 207 94 207 94 208.5 81 c 128,-1,44
 210 68 210 68 210 53 c 0,45,46
 210 27 210 27 204 -2 c 1,47,48
 189 -4 189 -4 175.5 -7 c 128,-1,49
 162 -10 162 -10 147 -10 c 0,50,51
 135 -10 135 -10 122 -7 c 128,-1,52
 109 -4 109 -4 93 -2 c 1,53,54
 91 12 91 12 88.5 25.5 c 128,-1,55
 86 39 86 39 86 53 c 0,56,57
 86 68 86 68 88.5 81 c 128,-1,58
 91 94 91 94 93 109 c 1,59,60
 109 113 109 113 122 115 c 128,-1,61
 135 117 135 117 147 117 c 0,39,40
EndSplineSet
Validated: 1
EndChar

StartChar: at
Encoding: 32 64 48
Width: 740
Flags: W
LayerCount: 2
Fore
SplineSet
365 -134 m 0,0,1
 302 -134 302 -134 241.5 -113.5 c 128,-1,2
 181 -93 181 -93 132 -52 c 128,-1,3
 83 -11 83 -11 54 49 c 128,-1,4
 25 109 25 109 25 187 c 0,5,6
 25 276 25 276 54.5 342 c 128,-1,7
 84 408 84 408 134.5 452.5 c 128,-1,8
 185 497 185 497 247 519 c 128,-1,9
 309 541 309 541 375 541 c 0,10,11
 460 541 460 541 523.5 514 c 128,-1,12
 587 487 587 487 629.5 442 c 128,-1,13
 672 397 672 397 693.5 342 c 128,-1,14
 715 287 715 287 715 231 c 0,15,16
 715 177 715 177 694.5 128 c 128,-1,17
 674 79 674 79 632.5 43 c 128,-1,18
 591 7 591 7 527 -8 c 1,19,20
 481 -5 481 -5 453.5 15.5 c 128,-1,21
 426 36 426 36 414.5 63.5 c 128,-1,22
 403 91 403 91 403 115 c 0,23,24
 403 127 403 127 408.5 156.5 c 128,-1,25
 414 186 414 186 422 223.5 c 128,-1,26
 430 261 430 261 439 299 c 128,-1,27
 448 337 448 337 455 368 c 128,-1,28
 462 399 462 399 465 414 c 1,29,30
 496 414 496 414 531.5 399.5 c 128,-1,31
 567 385 567 385 587 374 c 1,32,33
 567 327 567 327 551.5 277 c 128,-1,34
 536 227 536 227 527 184 c 128,-1,35
 518 141 518 141 518 115 c 0,36,37
 518 95 518 95 521.5 75.5 c 128,-1,38
 525 56 525 56 539 42 c 1,39,40
 595 57 595 57 628.5 103 c 128,-1,41
 662 149 662 149 662 222 c 0,42,43
 662 312 662 312 623 373 c 128,-1,44
 584 434 584 434 517.5 464.5 c 128,-1,45
 451 495 451 495 369 495 c 0,46,47
 315 495 315 495 264 477.5 c 128,-1,48
 213 460 213 460 172.5 422.5 c 128,-1,49
 132 385 132 385 108 326.5 c 128,-1,50
 84 268 84 268 84 187 c 0,51,52
 84 117 84 117 109 65.5 c 128,-1,53
 134 14 134 14 175.5 -20 c 128,-1,54
 217 -54 217 -54 268.5 -71 c 128,-1,55
 320 -88 320 -88 372 -88 c 0,56,57
 432 -88 432 -88 494.5 -71.5 c 128,-1,58
 557 -55 557 -55 615 -19 c 1,59,-1
 633 -53 l 1,60,61
 569 -96 569 -96 500 -115 c 128,-1,62
 431 -134 431 -134 365 -134 c 0,0,1
271 -4 m 0,63,64
 228 -4 228 -4 200 20.5 c 128,-1,65
 172 45 172 45 158 84 c 128,-1,66
 144 123 144 123 144 169 c 0,67,68
 144 213 144 213 156.5 258 c 128,-1,69
 169 303 169 303 193.5 340 c 128,-1,70
 218 377 218 377 254 399.5 c 128,-1,71
 290 422 290 422 337 422 c 0,72,73
 367 422 367 422 392 408.5 c 128,-1,74
 417 395 417 395 432 377 c 1,75,-1
 418 321 l 1,76,77
 404 338 404 338 386.5 355 c 128,-1,78
 369 372 369 372 350 372 c 1,79,80
 324 357 324 357 305 321.5 c 128,-1,81
 286 286 286 286 276 243 c 128,-1,82
 266 200 266 200 266 161 c 0,83,84
 266 124 266 124 276.5 98 c 128,-1,85
 287 72 287 72 309 72 c 0,86,87
 336 72 336 72 361.5 105 c 128,-1,88
 387 138 387 138 408 193 c 128,-1,89
 429 248 429 248 442 312 c 1,90,-1
 444 176 l 1,91,92
 431 134 431 134 407 92.5 c 128,-1,93
 383 51 383 51 349 23.5 c 128,-1,94
 315 -4 315 -4 271 -4 c 0,63,64
EndSplineSet
Validated: 5
EndChar

StartChar: A
Encoding: 33 65 49
Width: 715
GlyphClass: 2
Flags: W
AnchorPoint: "Anchor-5" 358 661 basechar 0
LayerCount: 2
Fore
SplineSet
384 664 m 1,0,1
 443 499 443 499 510.5 345.5 c 128,-1,2
 578 192 578 192 635 59 c 1,3,-1
 713 38 l 1,4,-1
 700 0 l 1,5,6
 669 2 669 2 630.5 2.5 c 128,-1,7
 592 3 592 3 561 3 c 0,8,9
 543 3 543 3 513.5 2.5 c 128,-1,10
 484 2 484 2 455 1.5 c 128,-1,11
 426 1 426 1 408 0 c 1,12,-1
 394 38 l 1,13,-1
 472 59 l 1,14,15
 442 136 442 136 396.5 246.5 c 128,-1,16
 351 357 351 357 299 481 c 1,17,-1
 384 664 l 1,0,1
384 664 m 1,18,19
 377 646 377 646 370.5 631 c 128,-1,20
 364 616 364 616 357 595 c 128,-1,21
 350 574 350 574 342 538 c 1,22,23
 323 486 323 486 299.5 421.5 c 128,-1,24
 276 357 276 357 251.5 290.5 c 128,-1,25
 227 224 227 224 207 163.5 c 128,-1,26
 187 103 187 103 176 59 c 1,27,-1
 250 38 l 1,28,-1
 237 0 l 1,29,30
 173 3 173 3 119 3 c 0,31,32
 69 3 69 3 15 0 c 1,33,-1
 2 38 l 1,34,-1
 76 59 l 1,35,36
 95 94 95 94 120.5 147.5 c 128,-1,37
 146 201 146 201 174.5 266 c 128,-1,38
 203 331 203 331 232 401 c 128,-1,39
 261 471 261 471 287 538.5 c 128,-1,40
 313 606 313 606 333 664 c 1,41,-1
 384 664 l 1,18,19
477 225 m 1,42,-1
 477 147 l 1,43,44
 434 152 434 152 395.5 153 c 128,-1,45
 357 154 357 154 325 154 c 0,46,47
 291 154 291 154 258.5 153 c 128,-1,48
 226 152 226 152 187 147 c 1,49,-1
 187 224 l 1,50,51
 226 219 226 219 258.5 217 c 128,-1,52
 291 215 291 215 325 215 c 0,53,54
 357 215 357 215 395.5 217 c 128,-1,55
 434 219 434 219 477 225 c 1,42,-1
EndSplineSet
Validated: 1048581
EndChar

StartChar: B
Encoding: 34 66 50
Width: 644
GlyphClass: 2
Flags: W
AnchorPoint: "Anchor-6" 309 0 basechar 0
AnchorPoint: "Anchor-5" 309 660 basechar 0
LayerCount: 2
Fore
SplineSet
33 0 m 1,0,-1
 20 38 l 1,1,-1
 108 59 l 1,2,3
 110 145 110 145 111.5 223.5 c 128,-1,4
 113 302 113 302 113 379 c 0,5,6
 113 441 113 441 112 493 c 128,-1,7
 111 545 111 545 108 597 c 1,8,-1
 20 621 l 1,9,-1
 30 660 l 1,10,11
 62 658 62 658 99 657 c 128,-1,12
 136 656 136 656 182 656 c 0,13,14
 227 656 227 656 274.5 658 c 128,-1,15
 322 660 322 660 362 660 c 0,16,17
 429 660 429 660 469.5 637.5 c 128,-1,18
 510 615 510 615 528 579.5 c 128,-1,19
 546 544 546 544 546 504 c 0,20,21
 546 458 546 458 518.5 420 c 128,-1,22
 491 382 491 382 442.5 359.5 c 128,-1,23
 394 337 394 337 331 337 c 1,24,25
 335 337 335 337 324 336.5 c 128,-1,26
 313 336 313 336 297 335.5 c 128,-1,27
 281 335 281 335 270 335 c 0,28,29
 262 335 262 335 247.5 335.5 c 128,-1,30
 233 336 233 336 220 337.5 c 128,-1,31
 207 339 207 339 202 341 c 1,32,-1
 202 390 l 1,33,34
 233 385 233 385 255 382.5 c 128,-1,35
 277 380 277 380 301 380 c 0,36,37
 319 380 319 380 324 380 c 128,-1,38
 329 380 329 380 332.5 380.5 c 128,-1,39
 336 381 336 381 348 382 c 1,40,41
 375 398 375 398 388 427.5 c 128,-1,42
 401 457 401 457 401 489 c 0,43,44
 401 532 401 532 378.5 566.5 c 128,-1,45
 356 601 356 601 308 601 c 0,46,47
 293 601 293 601 281.5 599 c 128,-1,48
 270 597 270 597 259 592 c 1,49,50
 259 523 259 523 258.5 466.5 c 128,-1,51
 258 410 258 410 257.5 377 c 128,-1,52
 257 344 257 344 257 344 c 2,53,54
 257 284 257 284 257 241.5 c 128,-1,55
 257 199 257 199 257 168.5 c 128,-1,56
 257 138 257 138 257.5 113 c 128,-1,57
 258 88 258 88 259 62 c 1,58,-1
 256 43 l 2,59,60
 252 39 252 39 251 32 c 128,-1,61
 250 25 250 25 244.5 18 c 128,-1,62
 239 11 239 11 224 6.5 c 128,-1,63
 209 2 209 2 178 3 c 0,64,65
 133 4 133 4 98.5 2.5 c 128,-1,66
 64 1 64 1 33 0 c 1,0,-1
347 -1 m 0,67,68
 312 -1 312 -1 276 1 c 128,-1,69
 240 3 240 3 178 3 c 0,70,71
 176 3 176 3 185.5 10.5 c 128,-1,72
 195 18 195 18 208 29.5 c 128,-1,73
 221 41 221 41 232.5 52 c 128,-1,74
 244 63 244 63 247 70 c 1,75,76
 279 60 279 60 302.5 56.5 c 128,-1,77
 326 53 326 53 348 53 c 1,78,79
 406 67 406 67 430.5 103 c 128,-1,80
 455 139 455 139 455 180 c 0,81,82
 455 215 455 215 438.5 247.5 c 128,-1,83
 422 280 422 280 389 301 c 128,-1,84
 356 322 356 322 305 322 c 0,85,86
 294 322 294 322 267 320 c 128,-1,87
 240 318 240 318 200 313 c 1,88,-1
 205 359 l 1,89,90
 237 363 237 363 272.5 365 c 128,-1,91
 308 367 308 367 336 367 c 0,92,93
 416 367 416 367 476 348.5 c 128,-1,94
 536 330 536 330 570 290 c 128,-1,95
 604 250 604 250 604 183 c 0,96,97
 604 132 604 132 576.5 90.5 c 128,-1,98
 549 49 549 49 492.5 24 c 128,-1,99
 436 -1 436 -1 347 -1 c 0,67,68
EndSplineSet
Validated: 1048613
EndChar

StartChar: C
Encoding: 35 67 51
Width: 651
GlyphClass: 2
Flags: W
AnchorPoint: "Anchor-6" 361 0 basechar 0
AnchorPoint: "Anchor-5" 369 660 basechar 0
LayerCount: 2
Fore
SplineSet
578 156 m 1,0,-1
 616 106 l 1,1,2
 553 48 553 48 494 21.5 c 128,-1,3
 435 -5 435 -5 358 -5 c 0,4,5
 263 -5 263 -5 191 38.5 c 128,-1,6
 119 82 119 82 79.5 158.5 c 128,-1,7
 40 235 40 235 40 335 c 0,8,9
 40 398 40 398 60 458 c 128,-1,10
 80 518 80 518 120 566 c 128,-1,11
 160 614 160 614 221.5 642.5 c 128,-1,12
 283 671 283 671 365 671 c 0,13,14
 428 671 428 671 490 657.5 c 128,-1,15
 552 644 552 644 607 618 c 1,16,17
 597 575 597 575 587.5 529.5 c 128,-1,18
 578 484 578 484 570 440 c 1,19,-1
 512 440 l 1,20,-1
 492 556 l 1,21,22
 453 585 453 585 400.5 596.5 c 128,-1,23
 348 608 348 608 292 608 c 1,24,25
 231 575 231 575 206 508 c 128,-1,26
 181 441 181 441 181 358 c 0,27,28
 181 269 181 269 208 204.5 c 128,-1,29
 235 140 235 140 282 105.5 c 128,-1,30
 329 71 329 71 388 71 c 0,31,32
 443 71 443 71 484.5 92 c 128,-1,33
 526 113 526 113 578 156 c 1,0,-1
EndSplineSet
Validated: 1048577
EndChar

StartChar: D
Encoding: 36 68 52
Width: 728
GlyphClass: 2
Flags: W
AnchorPoint: "Anchor-7" 187 324 basechar 0
AnchorPoint: "Anchor-5" 345 659 basechar 0
LayerCount: 2
Fore
SplineSet
181 656 m 0,0,1
 222 656 222 656 261.5 658 c 128,-1,2
 301 660 301 660 361 660 c 0,3,4
 420 660 420 660 476 640 c 128,-1,5
 532 620 532 620 578 580 c 128,-1,6
 624 540 624 540 651 478.5 c 128,-1,7
 678 417 678 417 678 334 c 0,8,9
 678 246 678 246 649 182.5 c 128,-1,10
 620 119 620 119 573 78.5 c 128,-1,11
 526 38 526 38 471 18.5 c 128,-1,12
 416 -1 416 -1 364 -1 c 0,13,14
 315 -1 315 -1 274.5 1 c 128,-1,15
 234 3 234 3 184 3 c 1,16,-1
 258 76 l 1,17,18
 300 63 300 63 339 59 c 128,-1,19
 378 55 378 55 410 55 c 1,20,21
 449 80 449 80 474 121 c 128,-1,22
 499 162 499 162 511 212.5 c 128,-1,23
 523 263 523 263 523 315 c 0,24,25
 523 370 523 370 510.5 422 c 128,-1,26
 498 474 498 474 473.5 516 c 128,-1,27
 449 558 449 558 413.5 582.5 c 128,-1,28
 378 607 378 607 333 607 c 0,29,30
 310 607 310 607 293 604 c 128,-1,31
 276 601 276 601 258 596 c 1,32,33
 257 539 257 539 257 477 c 128,-1,34
 257 415 257 415 257 356 c 0,35,36
 257 283 257 283 257.5 212 c 128,-1,37
 258 141 258 141 259 73 c 1,38,-1
 300 30 l 1,39,-1
 289 1 l 1,40,41
 272 2 272 2 258 2 c 128,-1,42
 244 2 244 2 227.5 2.5 c 128,-1,43
 211 3 211 3 184 3 c 0,44,45
 134 4 134 4 99 2.5 c 128,-1,46
 64 1 64 1 33 0 c 1,47,-1
 20 38 l 1,48,-1
 108 58 l 1,49,50
 110 153 110 153 112 225 c 128,-1,51
 114 297 114 297 114 356 c 0,52,53
 114 424 114 424 112.5 486.5 c 128,-1,54
 111 549 111 549 109 597 c 1,55,-1
 21 621 l 1,56,-1
 33 660 l 1,57,58
 63 659 63 659 84 658 c 128,-1,59
 105 657 105 657 127.5 656.5 c 128,-1,60
 150 656 150 656 181 656 c 0,0,1
EndSplineSet
Validated: 1048613
EndChar

StartChar: E
Encoding: 37 69 53
Width: 602
GlyphClass: 2
Flags: W
AnchorPoint: "Anchor-6" 323 0 basechar 0
AnchorPoint: "Anchor-5" 323 660 basechar 0
LayerCount: 2
Fore
SplineSet
416 371 m 1,0,-1
 416 287 l 1,1,2
 393 291 393 291 377 293.5 c 128,-1,3
 361 296 361 296 342.5 297.5 c 128,-1,4
 324 299 324 299 293 299 c 0,5,6
 269 299 269 299 241.5 298 c 128,-1,7
 214 297 214 297 181 292 c 1,8,-1
 181 366 l 1,9,10
 216 363 216 363 241.5 361.5 c 128,-1,11
 267 360 267 360 291 360 c 0,12,13
 322 360 322 360 341 361.5 c 128,-1,14
 360 363 360 363 376.5 365.5 c 128,-1,15
 393 368 393 368 416 371 c 1,0,-1
445 454 m 1,16,17
 444 424 444 424 442.5 394.5 c 128,-1,18
 441 365 441 365 441 333 c 0,19,20
 441 300 441 300 442.5 262.5 c 128,-1,21
 444 225 444 225 445 204 c 1,22,-1
 390 204 l 1,23,-1
 357 308 l 1,24,-1
 357 351 l 1,25,-1
 390 454 l 1,26,-1
 445 454 l 1,16,17
567 0 m 1,27,28
 479 3 479 3 188 3 c 0,29,30
 153 3 153 3 120 2.5 c 128,-1,31
 87 2 87 2 32 0 c 1,32,-1
 20 38 l 1,33,-1
 108 59 l 1,34,35
 110 140 110 140 111.5 218.5 c 128,-1,36
 113 297 113 297 113 376 c 0,37,38
 113 439 113 439 111.5 492 c 128,-1,39
 110 545 110 545 108 597 c 1,40,-1
 20 621 l 1,41,-1
 33 660 l 1,42,43
 83 658 83 658 123 657 c 128,-1,44
 163 656 163 656 192 656 c 256,45,46
 221 656 221 656 262 656 c 128,-1,47
 303 656 303 656 348 656.5 c 128,-1,48
 393 657 393 657 435 657.5 c 128,-1,49
 477 658 477 658 509.5 658.5 c 128,-1,50
 542 659 542 659 557 660 c 1,51,52
 554 597 554 597 552 548.5 c 128,-1,53
 550 500 550 500 549 462 c 1,54,-1
 485 462 l 1,55,-1
 467 567 l 1,56,57
 442 580 442 580 407 586 c 128,-1,58
 372 592 372 592 333 592 c 0,59,60
 315 592 315 592 296.5 590.5 c 128,-1,61
 278 589 278 589 259 587 c 1,62,63
 258 497 258 497 257.5 417 c 128,-1,64
 257 337 257 337 257 263 c 0,65,66
 257 217 257 217 257.5 169 c 128,-1,67
 258 121 258 121 259 69 c 1,68,69
 276 67 276 67 294 65.5 c 128,-1,70
 312 64 312 64 330 64 c 0,71,72
 370 64 370 64 408 70 c 128,-1,73
 446 76 446 76 471 89 c 1,74,-1
 494 210 l 1,75,-1
 558 210 l 1,76,77
 558 164 558 164 560.5 107.5 c 128,-1,78
 563 51 563 51 567 0 c 1,27,28
EndSplineSet
Validated: 1048581
EndChar

StartChar: F
Encoding: 38 70 54
Width: 579
GlyphClass: 2
Flags: W
AnchorPoint: "Anchor-6" 193 0 basechar 0
AnchorPoint: "Anchor-5" 317 660 basechar 0
LayerCount: 2
Fore
SplineSet
418 371 m 1,0,-1
 418 287 l 1,1,2
 396 291 396 291 379 293.5 c 128,-1,3
 362 296 362 296 342 297.5 c 128,-1,4
 322 299 322 299 290 299 c 0,5,6
 266 299 266 299 241.5 298 c 128,-1,7
 217 297 217 297 183 292 c 1,8,-1
 183 366 l 1,9,10
 217 363 217 363 241.5 361.5 c 128,-1,11
 266 360 266 360 290 360 c 0,12,13
 322 360 322 360 342 361.5 c 128,-1,14
 362 363 362 363 379 365.5 c 128,-1,15
 396 368 396 368 418 371 c 1,0,-1
447 454 m 1,16,17
 446 424 446 424 444.5 392 c 128,-1,18
 443 360 443 360 443 328 c 0,19,20
 443 297 443 297 444.5 265 c 128,-1,21
 446 233 446 233 447 204 c 1,22,-1
 392 204 l 1,23,-1
 359 308 l 1,24,-1
 359 351 l 1,25,-1
 392 454 l 1,26,-1
 447 454 l 1,16,17
25 38 m 1,27,-1
 110 59 l 1,28,29
 112 130 112 130 113.5 199 c 128,-1,30
 115 268 115 268 115 335 c 0,31,32
 115 403 115 403 114 471 c 128,-1,33
 113 539 113 539 110 597 c 1,34,-1
 20 621 l 1,35,-1
 33 660 l 1,36,37
 59 659 59 659 79 658 c 128,-1,38
 99 657 99 657 123 656.5 c 128,-1,39
 147 656 147 656 182 656 c 0,40,41
 212 656 212 656 262.5 656 c 128,-1,42
 313 656 313 656 369.5 656.5 c 128,-1,43
 426 657 426 657 477 658 c 128,-1,44
 528 659 528 659 559 660 c 1,45,46
 557 608 557 608 554.5 559 c 128,-1,47
 552 510 552 510 551 462 c 1,48,-1
 487 462 l 1,49,-1
 469 568 l 1,50,51
 434 583 434 583 383 589.5 c 128,-1,52
 332 596 332 596 261 587 c 1,53,54
 261 522 261 522 260.5 467.5 c 128,-1,55
 260 413 260 413 259.5 375.5 c 128,-1,56
 259 338 259 338 259 325 c 0,57,58
 259 259 259 259 259 214.5 c 128,-1,59
 259 170 259 170 259.5 136 c 128,-1,60
 260 102 260 102 261 68 c 1,61,-1
 382 37 l 1,62,-1
 369 0 l 1,63,64
 336 1 336 1 310 1.5 c 128,-1,65
 284 2 284 2 255 2.5 c 128,-1,66
 226 3 226 3 182 3 c 0,67,68
 142 3 142 3 109 2.5 c 128,-1,69
 76 2 76 2 38 0 c 1,70,-1
 25 38 l 1,27,-1
EndSplineSet
Validated: 1048613
EndChar

StartChar: G
Encoding: 39 71 55
Width: 738
GlyphClass: 2
Flags: W
AnchorPoint: "Anchor-6" 387 0 basechar 0
AnchorPoint: "Anchor-5" 377 660 basechar 0
LayerCount: 2
Fore
SplineSet
481 93 m 1,0,1
 483 122 483 122 484 144.5 c 128,-1,2
 485 167 485 167 485 189 c 256,3,4
 485 211 485 211 484 232 c 128,-1,5
 483 253 483 253 480 274 c 1,6,-1
 391 301 l 1,7,-1
 402 338 l 1,8,9
 436 336 436 336 476 335 c 128,-1,10
 516 334 516 334 560 334 c 0,11,12
 598 334 598 334 633.5 335 c 128,-1,13
 669 336 669 336 705 338 c 1,14,-1
 718 301 l 1,15,-1
 630 274 l 1,16,17
 629 250 629 250 628 225.5 c 128,-1,18
 627 201 627 201 628 175 c 0,19,20
 628 145 628 145 630.5 112.5 c 128,-1,21
 633 80 633 80 634 42 c 1,22,23
 576 24 576 24 517 8.5 c 128,-1,24
 458 -7 458 -7 377 -7 c 0,25,26
 287 -7 287 -7 223.5 21.5 c 128,-1,27
 160 50 160 50 121 97.5 c 128,-1,28
 82 145 82 145 63.5 204.5 c 128,-1,29
 45 264 45 264 45 327 c 0,30,31
 45 393 45 393 65 454.5 c 128,-1,32
 85 516 85 516 126 565 c 128,-1,33
 167 614 167 614 231.5 642.5 c 128,-1,34
 296 671 296 671 384 671 c 0,35,36
 447 671 447 671 505.5 660.5 c 128,-1,37
 564 650 564 650 624 622 c 1,38,39
 614 576 614 576 605 531 c 128,-1,40
 596 486 596 486 589 439 c 1,41,-1
 522 439 l 1,42,-1
 502 571 l 1,43,44
 454 591 454 591 412 599 c 128,-1,45
 370 607 370 607 312 607 c 1,46,47
 257 567 257 567 231 500 c 128,-1,48
 205 433 205 433 205 345 c 0,49,50
 205 291 205 291 215.5 239 c 128,-1,51
 226 187 226 187 247.5 145 c 128,-1,52
 269 103 269 103 302.5 78 c 128,-1,53
 336 53 336 53 382 53 c 0,54,55
 412 53 412 53 435 63.5 c 128,-1,56
 458 74 458 74 481 93 c 1,0,1
EndSplineSet
Validated: 1048609
EndChar

StartChar: H
Encoding: 40 72 56
Width: 773
GlyphClass: 2
Flags: W
AnchorPoint: "Anchor-7" 387 333 basechar 0
AnchorPoint: "Anchor-5" 391 660 basechar 0
LayerCount: 2
Fore
SplineSet
335 660 m 1,0,-1
 346 621 l 1,1,-1
 258 597 l 1,2,3
 257 491 257 491 256.5 419.5 c 128,-1,4
 256 348 256 348 256 325 c 0,5,6
 256 260 256 260 256 214 c 128,-1,7
 256 168 256 168 256.5 132 c 128,-1,8
 257 96 257 96 258 59 c 1,9,-1
 346 38 l 1,10,-1
 335 0 l 1,11,12
 281 3 281 3 183 3 c 0,13,14
 137 3 137 3 100.5 2 c 128,-1,15
 64 1 64 1 33 0 c 1,16,-1
 20 38 l 1,17,-1
 108 59 l 1,18,19
 110 144 110 144 111 214 c 128,-1,20
 112 284 112 284 112 359 c 0,21,22
 112 411 112 411 111 469 c 128,-1,23
 110 527 110 527 108 597 c 1,24,-1
 20 621 l 1,25,-1
 32 660 l 1,26,27
 64 658 64 658 103 656.5 c 128,-1,28
 142 655 142 655 188 655 c 0,29,30
 228 655 228 655 268 657 c 128,-1,31
 308 659 308 659 335 660 c 1,0,-1
552 368 m 1,32,-1
 552 296 l 1,33,34
 465 302 465 302 378 302 c 0,35,36
 338 302 338 302 299 300.5 c 128,-1,37
 260 299 260 299 222 297 c 1,38,-1
 222 367 l 1,39,40
 260 365 260 365 299 363.5 c 128,-1,41
 338 362 338 362 378 362 c 0,42,43
 465 362 465 362 552 368 c 1,32,-1
742 660 m 1,44,-1
 753 621 l 1,45,-1
 665 597 l 1,46,47
 665 521 665 521 664.5 459.5 c 128,-1,48
 664 398 664 398 663.5 343.5 c 128,-1,49
 663 289 663 289 663 234 c 0,50,51
 663 194 663 194 663.5 151 c 128,-1,52
 664 108 664 108 665 59 c 1,53,-1
 753 38 l 1,54,-1
 742 0 l 1,55,56
 688 3 688 3 592 3 c 0,57,58
 546 3 546 3 508.5 2 c 128,-1,59
 471 1 471 1 440 0 c 1,60,-1
 427 38 l 1,61,-1
 515 59 l 1,62,63
 517 144 517 144 518.5 213 c 128,-1,64
 520 282 520 282 520 354 c 0,65,66
 520 407 520 407 518.5 466 c 128,-1,67
 517 525 517 525 515 597 c 1,68,-1
 427 621 l 1,69,-1
 439 660 l 1,70,71
 470 658 470 658 510 656.5 c 128,-1,72
 550 655 550 655 596 655 c 0,73,74
 636 655 636 655 675.5 657 c 128,-1,75
 715 659 715 659 742 660 c 1,44,-1
EndSplineSet
Validated: 1048581
EndChar

StartChar: I
Encoding: 41 73 57
Width: 393
GlyphClass: 2
Flags: W
AnchorPoint: "Anchor-5" 199 660 basechar 0
LayerCount: 2
Fore
SplineSet
350 660 m 1,0,-1
 363 621 l 1,1,-1
 272 597 l 1,2,3
 272 512 272 512 271.5 447 c 128,-1,4
 271 382 271 382 271 324.5 c 128,-1,5
 271 267 271 267 271 204 c 128,-1,6
 271 141 271 141 272 59 c 1,7,-1
 363 38 l 1,8,-1
 350 0 l 1,9,10
 296 3 296 3 198 3 c 0,11,12
 152 3 152 3 113 2 c 128,-1,13
 74 1 74 1 43 0 c 1,14,-1
 30 38 l 1,15,-1
 122 59 l 1,16,17
 124 140 124 140 125.5 203 c 128,-1,18
 127 266 127 266 127 323.5 c 128,-1,19
 127 381 127 381 126 446.5 c 128,-1,20
 125 512 125 512 122 597 c 1,21,-1
 30 621 l 1,22,-1
 43 660 l 1,23,24
 82 658 82 658 119 657 c 128,-1,25
 156 656 156 656 202 656 c 0,26,27
 243 656 243 656 283 657.5 c 128,-1,28
 323 659 323 659 350 660 c 1,0,-1
EndSplineSet
Validated: 1048577
EndChar

StartChar: J
Encoding: 42 74 58
Width: 396
GlyphClass: 2
Flags: W
AnchorPoint: "Anchor-5" 204 660 basechar 0
LayerCount: 2
Fore
SplineSet
276 177 m 0,0,1
 275 130 275 130 266.5 88 c 128,-1,2
 258 46 258 46 234 4.5 c 128,-1,3
 210 -37 210 -37 163.5 -82.5 c 128,-1,4
 117 -128 117 -128 39 -182 c 1,5,-1
 5 -139 l 1,6,7
 52 -93 52 -93 78.5 -49.5 c 128,-1,8
 105 -6 105 -6 116.5 47.5 c 128,-1,9
 128 101 128 101 130 175 c 0,10,11
 135 312 135 312 131 422 c 128,-1,12
 127 532 127 532 125 595 c 1,13,-1
 29 621 l 1,14,-1
 39 660 l 1,15,16
 62 659 62 659 84.5 658 c 128,-1,17
 107 657 107 657 135 656.5 c 128,-1,18
 163 656 163 656 204 656 c 0,19,20
 263 656 263 656 295.5 657.5 c 128,-1,21
 328 659 328 659 354 660 c 1,22,-1
 366 621 l 1,23,-1
 277 595 l 1,24,25
 277 540 277 540 277.5 479.5 c 128,-1,26
 278 419 278 419 278 346 c 128,-1,27
 278 273 278 273 276 177 c 0,0,1
EndSplineSet
Validated: 1048609
EndChar

StartChar: K
Encoding: 43 75 59
Width: 740
GlyphClass: 2
Flags: W
AnchorPoint: "Anchor-6" 384 0 basechar 0
AnchorPoint: "Anchor-5" 384 660 basechar 0
LayerCount: 2
Fore
SplineSet
33 0 m 1,0,-1
 20 38 l 1,1,-1
 108 59 l 1,2,3
 110 115 110 115 111 156.5 c 128,-1,4
 112 198 112 198 112.5 234.5 c 128,-1,5
 113 271 113 271 113 312 c 0,6,7
 113 368 113 368 111.5 440.5 c 128,-1,8
 110 513 110 513 108 595 c 1,9,-1
 20 621 l 1,10,-1
 32 660 l 1,11,12
 64 658 64 658 103 657 c 128,-1,13
 142 656 142 656 188 656 c 0,14,15
 231 656 231 656 266.5 657.5 c 128,-1,16
 302 659 302 659 336 660 c 1,17,-1
 347 621 l 1,18,-1
 258 595 l 1,19,20
 258 529 258 529 257.5 482.5 c 128,-1,21
 257 436 257 436 257 397 c 128,-1,22
 257 358 257 358 257 312 c 0,23,24
 257 263 257 263 257 196 c 128,-1,25
 257 129 257 129 258 59 c 1,26,-1
 347 38 l 1,27,-1
 336 0 l 1,28,29
 282 3 282 3 184 3 c 0,30,31
 138 3 138 3 101 2 c 128,-1,32
 64 1 64 1 33 0 c 1,0,-1
701 0 m 1,33,34
 641 3 641 3 588 3 c 0,35,36
 554 3 554 3 519.5 2 c 128,-1,37
 485 1 485 1 468 1 c 1,38,39
 441 48 441 48 418 86 c 128,-1,40
 395 124 395 124 373 160 c 128,-1,41
 351 196 351 196 325.5 235.5 c 128,-1,42
 300 275 300 275 267 324 c 1,43,44
 286 338 286 338 310 352 c 128,-1,45
 334 366 334 366 355 378.5 c 128,-1,46
 376 391 376 391 383 399 c 1,47,48
 424 334 424 334 460 278 c 128,-1,49
 496 222 496 222 533.5 169 c 128,-1,50
 571 116 571 116 614 59 c 1,51,-1
 715 38 l 1,52,-1
 701 0 l 1,33,34
353 313 m 1,53,-1
 267 324 l 1,54,55
 329 379 329 379 370 422.5 c 128,-1,56
 411 466 411 466 442.5 508.5 c 128,-1,57
 474 551 474 551 505 600 c 1,58,-1
 424 621 l 1,59,-1
 436 660 l 1,60,61
 471 658 471 658 501 657.5 c 128,-1,62
 531 657 531 657 565 657 c 0,63,64
 633 657 633 657 685 660 c 1,65,-1
 697 621 l 1,66,-1
 610 600 l 1,67,68
 540 526 540 526 477.5 457 c 128,-1,69
 415 388 415 388 353 313 c 1,53,-1
EndSplineSet
Validated: 1048581
EndChar

StartChar: L
Encoding: 44 76 60
Width: 604
GlyphClass: 2
Flags: W
AnchorPoint: "Anchor-6" 323 0 basechar 0
AnchorPoint: "Anchor-5" 193 660 basechar 0
LayerCount: 2
Fore
SplineSet
20 621 m 1,0,-1
 33 660 l 1,1,2
 69 658 69 658 103 657 c 128,-1,3
 137 656 137 656 184 656 c 0,4,5
 227 656 227 656 273 657 c 128,-1,6
 319 658 319 658 361 660 c 1,7,-1
 375 621 l 1,8,-1
 261 598 l 1,9,10
 260 515 260 515 260 448 c 128,-1,11
 260 381 260 381 260 313 c 0,12,13
 260 261 260 261 259.5 193.5 c 128,-1,14
 259 126 259 126 261 69 c 1,15,16
 323 62 323 62 376.5 66 c 128,-1,17
 430 70 430 70 473 89 c 1,18,-1
 496 210 l 1,19,-1
 560 210 l 1,20,21
 560 164 560 164 562.5 106.5 c 128,-1,22
 565 49 565 49 569 0 c 1,23,24
 447 2 447 2 352 2.5 c 128,-1,25
 257 3 257 3 188 3 c 0,26,27
 137 3 137 3 100.5 2 c 128,-1,28
 64 1 64 1 33 0 c 1,29,-1
 21 38 l 1,30,-1
 110 59 l 1,31,32
 112 138 112 138 113.5 196.5 c 128,-1,33
 115 255 115 255 115 303 c 0,34,35
 115 371 115 371 115.5 443.5 c 128,-1,36
 116 516 116 516 110 597 c 1,37,-1
 20 621 l 1,0,-1
EndSplineSet
Validated: 1048609
EndChar

StartChar: M
Encoding: 45 77 61
Width: 965
Flags: W
LayerCount: 2
Fore
SplineSet
685 660 m 1,0,-1
 756 599 l 1,1,2
 711 514 711 514 675.5 440 c 128,-1,3
 640 366 640 366 608.5 295.5 c 128,-1,4
 577 225 577 225 547 150.5 c 128,-1,5
 517 76 517 76 484 -9 c 1,6,-1
 430 -9 l 1,7,-1
 439 97 l 1,8,9
 507 220 507 220 565.5 359.5 c 128,-1,10
 624 499 624 499 685 660 c 1,0,-1
204 589 m 1,11,12
 199 539 199 539 196 474 c 128,-1,13
 193 409 193 409 192 337 c 128,-1,14
 191 265 191 265 191.5 193.5 c 128,-1,15
 192 122 192 122 194 59 c 1,16,-1
 301 38 l 1,17,-1
 287 0 l 1,18,19
 250 2 250 2 220 2.5 c 128,-1,20
 190 3 190 3 151 3 c 0,21,22
 104 3 104 3 72.5 2.5 c 128,-1,23
 41 2 41 2 15 0 c 1,24,-1
 2 38 l 1,25,-1
 102 59 l 1,26,27
 110 145 110 145 115.5 237.5 c 128,-1,28
 121 330 121 330 123.5 421 c 128,-1,29
 126 512 126 512 126 591 c 1,30,-1
 27 619 l 1,31,-1
 43 660 l 1,32,33
 75 659 75 659 102.5 658 c 128,-1,34
 130 657 130 657 164 657 c 0,35,36
 194 657 194 657 223 658 c 128,-1,37
 252 659 252 659 275 660 c 1,38,39
 308 586 308 586 337 522 c 128,-1,40
 366 458 366 458 395 398 c 128,-1,41
 424 338 424 338 456 277.5 c 128,-1,42
 488 217 488 217 528 149 c 1,43,-1
 484 -9 l 1,44,-1
 430 -9 l 1,45,46
 393 72 393 72 364.5 131.5 c 128,-1,47
 336 191 336 191 312.5 238.5 c 128,-1,48
 289 286 289 286 267 329 c 128,-1,49
 245 372 245 372 221.5 419 c 128,-1,50
 198 466 198 466 169 525 c 1,51,-1
 204 589 l 1,11,12
913 660 m 1,52,-1
 929 619 l 1,53,-1
 836 591 l 1,54,55
 839 523 839 523 841 469 c 128,-1,56
 843 415 843 415 845 368.5 c 128,-1,57
 847 322 847 322 849 276 c 128,-1,58
 851 230 851 230 853.5 177.5 c 128,-1,59
 856 125 856 125 860 59 c 1,60,-1
 953 38 l 1,61,-1
 937 0 l 1,62,63
 911 2 911 2 878 2.5 c 128,-1,64
 845 3 845 3 786 3 c 0,65,66
 732 3 732 3 697.5 2 c 128,-1,67
 663 1 663 1 633 0 c 1,68,-1
 619 38 l 1,69,-1
 712 59 l 1,70,71
 710 167 710 167 706.5 255.5 c 128,-1,72
 703 344 703 344 699 428.5 c 128,-1,73
 695 513 695 513 688 608 c 2,74,-1
 685 660 l 1,75,76
 707 659 707 659 734 658 c 128,-1,77
 761 657 761 657 789 657 c 0,78,79
 821 657 821 657 854 658 c 128,-1,80
 887 659 887 659 913 660 c 1,52,-1
EndSplineSet
Validated: 37
EndChar

StartChar: N
Encoding: 46 78 62
Width: 774
GlyphClass: 2
Flags: W
AnchorPoint: "Anchor-6" 421 0 basechar 0
AnchorPoint: "Anchor-5" 382 660 basechar 0
LayerCount: 2
Fore
SplineSet
266 660 m 1,0,1
 320 577 320 577 377 502.5 c 128,-1,2
 434 428 434 428 493.5 354 c 128,-1,3
 553 280 553 280 615 199 c 1,4,-1
 599 -10 l 1,5,-1
 589 -10 l 1,6,7
 527 80 527 80 473.5 151 c 128,-1,8
 420 222 420 222 371 282.5 c 128,-1,9
 322 343 322 343 274 402.5 c 128,-1,10
 226 462 226 462 175 530 c 1,11,12
 180 567 180 567 196.5 592 c 128,-1,13
 213 617 213 617 233 633 c 128,-1,14
 253 649 253 649 266 660 c 1,0,1
266 660 m 1,15,-1
 199 568 l 1,16,17
 199 546 199 546 199 488.5 c 128,-1,18
 199 431 199 431 199 359 c 0,19,20
 199 297 199 297 202 227 c 128,-1,21
 205 157 205 157 212 59 c 1,22,-1
 313 38 l 1,23,-1
 299 0 l 1,24,25
 272 2 272 2 234 2.5 c 128,-1,26
 196 3 196 3 163 3 c 0,27,28
 133 3 133 3 98.5 2 c 128,-1,29
 64 1 64 1 33 0 c 1,30,-1
 20 38 l 1,31,-1
 121 59 l 1,32,33
 126 140 126 140 128.5 214.5 c 128,-1,34
 131 289 131 289 131 361 c 0,35,36
 131 420 131 420 129.5 477.5 c 128,-1,37
 128 535 128 535 126 594 c 1,38,-1
 22 621 l 1,39,-1
 34 660 l 1,40,41
 96 657 96 657 156 657 c 0,42,43
 180 657 180 657 213.5 658 c 128,-1,44
 247 659 247 659 266 660 c 1,15,-1
740 660 m 1,45,-1
 754 621 l 1,46,-1
 666 600 l 1,47,48
 660 494 660 494 657.5 404 c 128,-1,49
 655 314 655 314 655 225 c 0,50,51
 655 169 655 169 656 111.5 c 128,-1,52
 657 54 657 54 658 -10 c 1,53,-1
 595 -10 l 1,54,-1
 583 33 l 1,55,56
 586 84 586 84 587.5 127.5 c 128,-1,57
 589 171 589 171 589 223 c 0,58,59
 589 306 589 306 585.5 401.5 c 128,-1,60
 582 497 582 497 574 600 c 1,61,-1
 487 621 l 1,62,-1
 499 660 l 1,63,64
 530 659 530 659 558 657.5 c 128,-1,65
 586 656 586 656 617 656 c 0,66,67
 649 656 649 656 681 657 c 128,-1,68
 713 658 713 658 740 660 c 1,45,-1
EndSplineSet
Validated: 1048581
EndChar

StartChar: O
Encoding: 47 79 63
Width: 715
GlyphClass: 2
Flags: W
AnchorPoint: "Anchor-5" 358 660 basechar 0
LayerCount: 2
Fore
SplineSet
357 670 m 0,0,1
 434 670 434 670 493 642 c 128,-1,2
 552 614 552 614 592.5 566.5 c 128,-1,3
 633 519 633 519 654 459.5 c 128,-1,4
 675 400 675 400 675 337 c 0,5,6
 675 268 675 268 656 206 c 128,-1,7
 637 144 637 144 598.5 95 c 128,-1,8
 560 46 560 46 500.5 18 c 128,-1,9
 441 -10 441 -10 361 -10 c 256,10,11
 281 -10 281 -10 220.5 18.5 c 128,-1,12
 160 47 160 47 120 95.5 c 128,-1,13
 80 144 80 144 60 206.5 c 128,-1,14
 40 269 40 269 40 338 c 0,15,16
 40 428 40 428 74.5 503.5 c 128,-1,17
 109 579 109 579 179.5 624.5 c 128,-1,18
 250 670 250 670 357 670 c 0,0,1
537 296 m 0,19,20
 537 358 537 358 522.5 415 c 128,-1,21
 508 472 508 472 482 516.5 c 128,-1,22
 456 561 456 561 419.5 587 c 128,-1,23
 383 613 383 613 338 613 c 0,24,25
 282 613 282 613 246.5 578.5 c 128,-1,26
 211 544 211 544 194.5 489 c 128,-1,27
 178 434 178 434 178 370 c 0,28,29
 178 308 178 308 192.5 250 c 128,-1,30
 207 192 207 192 234 146 c 128,-1,31
 261 100 261 100 298 73.5 c 128,-1,32
 335 47 335 47 379 47 c 0,33,34
 436 47 436 47 470.5 82.5 c 128,-1,35
 505 118 505 118 521 175 c 128,-1,36
 537 232 537 232 537 296 c 0,19,20
EndSplineSet
Validated: 1048577
EndChar

StartChar: P
Encoding: 48 80 64
Width: 619
GlyphClass: 2
Flags: W
AnchorPoint: "Anchor-6" 308 0 basechar 0
AnchorPoint: "Anchor-5" 308 660 basechar 0
LayerCount: 2
Fore
SplineSet
359 660 m 0,0,1
 471 660 471 660 525 608.5 c 128,-1,2
 579 557 579 557 579 473 c 0,3,4
 579 409 579 409 547.5 360.5 c 128,-1,5
 516 312 516 312 457.5 285 c 128,-1,6
 399 258 399 258 318 258 c 0,7,8
 300 258 300 258 274 261 c 128,-1,9
 248 264 248 264 219 270 c 1,10,-1
 219 333 l 1,11,12
 252 326 252 326 275.5 321.5 c 128,-1,13
 299 317 299 317 317 317 c 0,14,15
 331 317 331 317 343 318.5 c 128,-1,16
 355 320 355 320 366 322 c 1,17,18
 398 343 398 343 413.5 380.5 c 128,-1,19
 429 418 429 418 429 460 c 0,20,21
 429 496 429 496 418 528.5 c 128,-1,22
 407 561 407 561 385 581.5 c 128,-1,23
 363 602 363 602 331 602 c 0,24,25
 311 602 311 602 294 599.5 c 128,-1,26
 277 597 277 597 264 595 c 1,27,28
 264 567 264 567 264 522.5 c 128,-1,29
 264 478 264 478 264 430 c 128,-1,30
 264 382 264 382 264 341 c 128,-1,31
 264 300 264 300 264 278 c 0,32,33
 264 244 264 244 264 223.5 c 128,-1,34
 264 203 264 203 264 189.5 c 128,-1,35
 264 176 264 176 264 161.5 c 128,-1,36
 264 147 264 147 264 124.5 c 128,-1,37
 264 102 264 102 264 64 c 1,38,-1
 374 38 l 1,39,-1
 360 0 l 1,40,41
 308 3 308 3 189 3 c 0,42,43
 140 3 140 3 103 2 c 128,-1,44
 66 1 66 1 35 0 c 1,45,-1
 20 38 l 1,46,-1
 113 59 l 1,47,48
 115 104 115 104 116 160.5 c 128,-1,49
 117 217 117 217 117.5 272 c 128,-1,50
 118 327 118 327 118 366 c 0,51,52
 118 418 118 418 117.5 454.5 c 128,-1,53
 117 491 117 491 116 523.5 c 128,-1,54
 115 556 115 556 113 596 c 1,55,-1
 24 622 l 1,56,-1
 35 660 l 1,57,58
 66 659 66 659 89 658 c 128,-1,59
 112 657 112 657 135.5 656.5 c 128,-1,60
 159 656 159 656 188 656 c 0,61,62
 219 656 219 656 244 657 c 128,-1,63
 269 658 269 658 295.5 659 c 128,-1,64
 322 660 322 660 359 660 c 0,0,1
EndSplineSet
Validated: 1048581
EndChar

StartChar: Q
Encoding: 49 81 65
Width: 714
GlyphClass: 2
Flags: W
AnchorPoint: "Anchor-6" 357 0 basechar 0
AnchorPoint: "Anchor-5" 357 660 basechar 0
LayerCount: 2
Fore
SplineSet
660 -20 m 1,0,-1
 699 -48 l 1,1,2
 656 -139 656 -139 605 -182.5 c 128,-1,3
 554 -226 554 -226 502 -226 c 0,4,5
 472 -226 472 -226 439 -212.5 c 128,-1,6
 406 -199 406 -199 373 -179 c 128,-1,7
 340 -159 340 -159 308.5 -138.5 c 128,-1,8
 277 -118 277 -118 248.5 -104.5 c 128,-1,9
 220 -91 220 -91 196 -91 c 0,10,11
 143 -91 143 -91 93 -124 c 1,12,-1
 68 -86 l 1,13,14
 109 -57 109 -57 151.5 -38.5 c 128,-1,15
 194 -20 194 -20 233 -20 c 0,16,17
 270 -20 270 -20 314 -33 c 128,-1,18
 358 -46 358 -46 403 -63.5 c 128,-1,19
 448 -81 448 -81 489 -94 c 128,-1,20
 530 -107 530 -107 561 -107 c 1,21,22
 589 -92 589 -92 612 -71 c 128,-1,23
 635 -50 635 -50 660 -20 c 1,0,-1
357 670 m 0,24,25
 434 670 434 670 493 642 c 128,-1,26
 552 614 552 614 592.5 566.5 c 128,-1,27
 633 519 633 519 654 459.5 c 128,-1,28
 675 400 675 400 675 337 c 0,29,30
 675 268 675 268 656 206 c 128,-1,31
 637 144 637 144 598.5 95 c 128,-1,32
 560 46 560 46 500.5 18 c 128,-1,33
 441 -10 441 -10 361 -10 c 256,34,35
 281 -10 281 -10 220.5 18.5 c 128,-1,36
 160 47 160 47 120 95.5 c 128,-1,37
 80 144 80 144 60 206.5 c 128,-1,38
 40 269 40 269 40 338 c 0,39,40
 40 428 40 428 74.5 503.5 c 128,-1,41
 109 579 109 579 179.5 624.5 c 128,-1,42
 250 670 250 670 357 670 c 0,24,25
537 296 m 0,43,44
 537 358 537 358 522.5 415 c 128,-1,45
 508 472 508 472 482 516.5 c 128,-1,46
 456 561 456 561 419.5 587 c 128,-1,47
 383 613 383 613 338 613 c 0,48,49
 282 613 282 613 246.5 578.5 c 128,-1,50
 211 544 211 544 194.5 489 c 128,-1,51
 178 434 178 434 178 370 c 0,52,53
 178 308 178 308 192.5 250 c 128,-1,54
 207 192 207 192 234 146 c 128,-1,55
 261 100 261 100 298 73.5 c 128,-1,56
 335 47 335 47 379 47 c 0,57,58
 436 47 436 47 470.5 82.5 c 128,-1,59
 505 118 505 118 521 175 c 128,-1,60
 537 232 537 232 537 296 c 0,43,44
EndSplineSet
Validated: 1048577
EndChar

StartChar: R
Encoding: 50 82 66
Width: 695
GlyphClass: 2
Flags: W
AnchorPoint: "Anchor-6" 366 0 basechar 0
AnchorPoint: "Anchor-5" 326 660 basechar 0
LayerCount: 2
Fore
SplineSet
364 660 m 0,0,1
 439 660 439 660 486.5 636.5 c 128,-1,2
 534 613 534 613 557 574.5 c 128,-1,3
 580 536 580 536 580 490 c 0,4,5
 580 456 580 456 566.5 419 c 128,-1,6
 553 382 553 382 524 350.5 c 128,-1,7
 495 319 495 319 448 299.5 c 128,-1,8
 401 280 401 280 335 280 c 0,9,10
 301 280 301 280 274 282 c 128,-1,11
 247 284 247 284 214 291 c 1,12,-1
 214 354 l 1,13,14
 246 347 246 347 272 342.5 c 128,-1,15
 298 338 298 338 322 338 c 0,16,17
 334 338 334 338 345.5 339.5 c 128,-1,18
 357 341 357 341 370 343 c 1,19,20
 393 361 393 361 409 392 c 128,-1,21
 425 423 425 423 425 483 c 256,22,23
 425 543 425 543 394.5 574 c 128,-1,24
 364 605 364 605 320 605 c 0,25,26
 292 605 292 605 259 596 c 1,27,28
 259 540 259 540 259 491.5 c 128,-1,29
 259 443 259 443 259 399 c 0,30,31
 259 313 259 313 259 234 c 128,-1,32
 259 155 259 155 259 59 c 1,33,-1
 347 38 l 1,34,-1
 333 0 l 1,35,36
 307 2 307 2 274 2.5 c 128,-1,37
 241 3 241 3 179 3 c 0,38,39
 133 3 133 3 99.5 2 c 128,-1,40
 66 1 66 1 35 0 c 1,41,-1
 20 38 l 1,42,-1
 108 59 l 1,43,44
 111 127 111 127 112 192 c 128,-1,45
 113 257 113 257 113 316 c 0,46,47
 113 394 113 394 111.5 464.5 c 128,-1,48
 110 535 110 535 108 596 c 1,49,-1
 20 622 l 1,50,-1
 31 660 l 1,51,52
 52 659 52 659 80.5 658 c 128,-1,53
 109 657 109 657 137 656.5 c 128,-1,54
 165 656 165 656 183 656 c 0,55,56
 214 656 214 656 237 657 c 128,-1,57
 260 658 260 658 288.5 659 c 128,-1,58
 317 660 317 660 364 660 c 0,0,1
410 327 m 0,59,60
 425 301 425 301 455.5 255.5 c 128,-1,61
 486 210 486 210 525 158 c 128,-1,62
 564 106 564 106 603 59 c 1,63,-1
 693 38 l 1,64,-1
 677 0 l 1,65,66
 659 2 659 2 626.5 2 c 128,-1,67
 594 2 594 2 568 2 c 0,68,69
 543 2 543 2 508 2 c 128,-1,70
 473 2 473 2 453 0 c 1,71,72
 432 38 432 38 406 83 c 128,-1,73
 380 128 380 128 354 172.5 c 128,-1,74
 328 217 328 217 307 252.5 c 128,-1,75
 286 288 286 288 274 305 c 1,76,77
 283 315 283 315 303.5 319.5 c 128,-1,78
 324 324 324 324 347.5 325.5 c 128,-1,79
 371 327 371 327 389 327 c 128,-1,80
 407 327 407 327 410 327 c 0,59,60
EndSplineSet
Validated: 1048581
EndChar

StartChar: S
Encoding: 51 83 67
Width: 589
GlyphClass: 2
Flags: W
AnchorPoint: "Anchor-6" 296 0 basechar 0
AnchorPoint: "Anchor-5" 300 660 basechar 0
LayerCount: 2
Fore
SplineSet
300 673 m 0,0,1
 355 673 355 673 412 660.5 c 128,-1,2
 469 648 469 648 510 627 c 1,3,4
 500 578 500 578 492 541.5 c 128,-1,5
 484 505 484 505 476 466 c 1,6,-1
 412 466 l 1,7,-1
 402 575 l 1,8,9
 388 595 388 595 358.5 605.5 c 128,-1,10
 329 616 329 616 297 616 c 0,11,12
 258 616 258 616 227 594 c 128,-1,13
 196 572 196 572 196 530 c 0,14,15
 196 497 196 497 220.5 474.5 c 128,-1,16
 245 452 245 452 283.5 433.5 c 128,-1,17
 322 415 322 415 365 395 c 128,-1,18
 408 375 408 375 446.5 347.5 c 128,-1,19
 485 320 485 320 509.5 279 c 128,-1,20
 534 238 534 238 534 177 c 0,21,22
 534 111 534 111 497 69.5 c 128,-1,23
 460 28 460 28 401.5 9 c 128,-1,24
 343 -10 343 -10 277 -10 c 0,25,26
 216 -10 216 -10 157 5 c 128,-1,27
 98 20 98 20 55 47 c 1,28,29
 66 92 66 92 73.5 127.5 c 128,-1,30
 81 163 81 163 88 212 c 1,31,-1
 153 212 l 1,32,-1
 167 82 l 1,33,34
 190 66 190 66 216.5 57 c 128,-1,35
 243 48 243 48 272 48 c 0,36,37
 319 48 319 48 354.5 71.5 c 128,-1,38
 390 95 390 95 390 149 c 0,39,40
 390 191 390 191 366.5 217 c 128,-1,41
 343 243 343 243 306 261 c 128,-1,42
 269 279 269 279 227.5 296 c 128,-1,43
 186 313 186 313 149 336 c 128,-1,44
 112 359 112 359 88.5 395 c 128,-1,45
 65 431 65 431 65 488 c 0,46,47
 65 550 65 550 97.5 591 c 128,-1,48
 130 632 130 632 183.5 652.5 c 128,-1,49
 237 673 237 673 300 673 c 0,0,1
EndSplineSet
Validated: 1048577
EndChar

StartChar: T
Encoding: 52 84 68
Width: 670
GlyphClass: 2
Flags: W
AnchorPoint: "Anchor-7" 335 353 basechar 0
AnchorPoint: "Anchor-6" 335 0 basechar 0
AnchorPoint: "Anchor-5" 335 660 basechar 0
LayerCount: 2
Fore
SplineSet
407 600 m 1,0,1
 406 501 406 501 406 424.5 c 128,-1,2
 406 348 406 348 406 279 c 0,3,4
 406 228 406 228 406 177 c 128,-1,5
 406 126 406 126 407 64 c 1,6,-1
 513 38 l 1,7,-1
 500 0 l 1,8,9
 474 2 474 2 427.5 2.5 c 128,-1,10
 381 3 381 3 333 3 c 0,11,12
 287 3 287 3 240.5 2 c 128,-1,13
 194 1 194 1 163 0 c 1,14,-1
 149 38 l 1,15,-1
 257 64 l 1,16,17
 259 138 259 138 260.5 199.5 c 128,-1,18
 262 261 262 261 262 324 c 0,19,20
 262 383 262 383 260.5 450.5 c 128,-1,21
 259 518 259 518 257 600 c 1,22,-1
 407 600 l 1,0,1
635 660 m 1,23,24
 628 599 628 599 626 543.5 c 128,-1,25
 624 488 624 488 624 441 c 1,26,-1
 559 441 l 1,27,-1
 533 586 l 1,28,29
 516 588 516 588 495 588.5 c 128,-1,30
 474 589 474 589 453 589 c 0,31,32
 422 589 422 589 391 587 c 128,-1,33
 360 585 360 585 335 580 c 1,34,35
 309 585 309 585 276 586.5 c 128,-1,36
 243 588 243 588 210 588 c 0,37,38
 191 588 191 588 173 587.5 c 128,-1,39
 155 587 155 587 139 586 c 1,40,-1
 113 441 l 1,41,-1
 48 441 l 1,42,43
 47 488 47 488 44 542 c 128,-1,44
 41 596 41 596 35 660 c 1,45,46
 69 659 69 659 118.5 658 c 128,-1,47
 168 657 168 657 225.5 656.5 c 128,-1,48
 283 656 283 656 342 656 c 0,49,50
 402 656 402 656 458 656.5 c 128,-1,51
 514 657 514 657 560 658 c 128,-1,52
 606 659 606 659 635 660 c 1,23,24
EndSplineSet
Validated: 5
EndChar

StartChar: U
Encoding: 53 85 69
Width: 788
GlyphClass: 2
Flags: W
AnchorPoint: "Anchor-5" 404 660 basechar 0
LayerCount: 2
Fore
SplineSet
754 660 m 1,0,-1
 768 621 l 1,1,-1
 680 600 l 1,2,3
 673 488 673 488 668.5 390.5 c 128,-1,4
 664 293 664 293 659 219 c 0,5,6
 655 156 655 156 630.5 113 c 128,-1,7
 606 70 606 70 568.5 44 c 128,-1,8
 531 18 531 18 486 6 c 128,-1,9
 441 -6 441 -6 396 -6 c 0,10,11
 323 -6 323 -6 263 14 c 128,-1,12
 203 34 203 34 165.5 79.5 c 128,-1,13
 128 125 128 125 119 203 c 0,14,15
 114 250 114 250 113 313 c 128,-1,16
 112 376 112 376 112 448.5 c 128,-1,17
 112 521 112 521 110 595 c 1,18,-1
 20 621 l 1,19,-1
 32 660 l 1,20,21
 63 659 63 659 104.5 657.5 c 128,-1,22
 146 656 146 656 185 656 c 0,23,24
 234 656 234 656 273 657.5 c 128,-1,25
 312 659 312 659 338 660 c 1,26,-1
 350 621 l 1,27,-1
 261 595 l 1,28,29
 258 517 258 517 258 443 c 0,30,31
 258 368 258 368 260.5 308.5 c 128,-1,32
 263 249 263 249 265 218 c 0,33,34
 272 142 272 142 310.5 102 c 128,-1,35
 349 62 349 62 419 62 c 0,36,37
 493 62 493 62 536.5 99.5 c 128,-1,38
 580 137 580 137 589 219 c 0,39,40
 591 241 591 241 592 277.5 c 128,-1,41
 593 314 593 314 593 356 c 0,42,43
 593 409 593 409 591.5 473.5 c 128,-1,44
 590 538 590 538 585 600 c 1,45,-1
 495 621 l 1,46,-1
 509 660 l 1,47,48
 539 658 539 658 571 657 c 128,-1,49
 603 656 603 656 629 656 c 0,50,51
 661 656 661 656 698 657.5 c 128,-1,52
 735 659 735 659 754 660 c 1,0,-1
EndSplineSet
Validated: 1048577
EndChar

StartChar: V
Encoding: 54 86 70
Width: 708
GlyphClass: 2
Flags: W
AnchorPoint: "Anchor-6" 375 0 basechar 0
AnchorPoint: "Anchor-5" 378 660 basechar 0
LayerCount: 2
Fore
SplineSet
341 -9 m 1,0,1
 277 164 277 164 212 312.5 c 128,-1,2
 147 461 147 461 85 601 c 1,3,-1
 7 621 l 1,4,-1
 20 660 l 1,5,6
 51 659 51 659 89.5 658 c 128,-1,7
 128 657 128 657 159 657 c 0,8,9
 177 657 177 657 206 657.5 c 128,-1,10
 235 658 235 658 264 658.5 c 128,-1,11
 293 659 293 659 311 660 c 1,12,-1
 325 621 l 1,13,-1
 248 601 l 1,14,15
 280 502 280 502 321 398.5 c 128,-1,16
 362 295 362 295 421 179 c 0,17,18
 423 171 423 171 418.5 150 c 128,-1,19
 414 129 414 129 406 102 c 128,-1,20
 398 75 398 75 387.5 49.5 c 128,-1,21
 377 24 377 24 365 7.5 c 128,-1,22
 353 -9 353 -9 341 -9 c 1,0,1
341 -9 m 1,23,24
 348 9 348 9 351.5 23 c 128,-1,25
 355 37 355 37 359 56.5 c 128,-1,26
 363 76 363 76 371 112 c 1,27,28
 399 175 399 175 429 258 c 128,-1,29
 459 341 459 341 486 430.5 c 128,-1,30
 513 520 513 520 530 601 c 1,31,-1
 455 621 l 1,32,-1
 468 660 l 1,33,34
 533 657 533 657 586 657 c 0,35,36
 612 657 612 657 636.5 658 c 128,-1,37
 661 659 661 659 688 660 c 1,38,-1
 701 621 l 1,39,-1
 630 601 l 1,40,41
 589 506 589 506 547.5 401.5 c 128,-1,42
 506 297 506 297 467.5 192.5 c 128,-1,43
 429 88 429 88 395 -9 c 1,44,-1
 341 -9 l 1,23,24
EndSplineSet
Validated: 1048581
EndChar

StartChar: W
Encoding: 55 87 71
Width: 1000
GlyphClass: 2
Flags: W
AnchorPoint: "Anchor-5" 528 660 basechar 0
LayerCount: 2
Fore
SplineSet
325 660 m 1,0,-1
 339 621 l 1,1,-1
 254 600 l 1,2,3
 272 531 272 531 288 476 c 128,-1,4
 304 421 304 421 320 372.5 c 128,-1,5
 336 324 336 324 354.5 274.5 c 128,-1,6
 373 225 373 225 396 166 c 1,7,-1
 352 -9 l 1,8,-1
 299 -9 l 1,9,10
 270 85 270 85 245 163 c 128,-1,11
 220 241 220 241 196 311 c 128,-1,12
 172 381 172 381 147.5 451.5 c 128,-1,13
 123 522 123 522 95 600 c 1,14,-1
 7 621 l 1,15,-1
 21 660 l 1,16,17
 56 657 56 657 87 656.5 c 128,-1,18
 118 656 118 656 167 656 c 0,19,20
 215 656 215 656 252.5 657 c 128,-1,21
 290 658 290 658 325 660 c 1,0,-1
557 660 m 1,22,-1
 538 494 l 1,23,24
 504 404 504 404 473.5 325.5 c 128,-1,25
 443 247 443 247 413.5 167 c 128,-1,26
 384 87 384 87 352 -9 c 1,27,-1
 324 92 l 1,28,29
 363 192 363 192 392.5 280.5 c 128,-1,30
 422 369 422 369 448 460 c 128,-1,31
 474 551 474 551 501 660 c 1,32,-1
 557 660 l 1,22,-1
557 660 m 1,33,34
 584 577 584 577 606 514.5 c 128,-1,35
 628 452 628 452 649 399 c 128,-1,36
 670 346 670 346 693 290.5 c 128,-1,37
 716 235 716 235 745 166 c 1,38,-1
 690 26 l 1,39,-1
 658 -8 l 1,40,41
 627 77 627 77 602.5 141 c 128,-1,42
 578 205 578 205 557.5 258 c 128,-1,43
 537 311 537 311 516 362.5 c 128,-1,44
 495 414 495 414 469 473 c 1,45,-1
 501 660 l 1,46,-1
 557 660 l 1,33,34
980 660 m 1,47,-1
 993 621 l 1,48,-1
 907 600 l 1,49,50
 881 530 881 530 858.5 463.5 c 128,-1,51
 836 397 836 397 813.5 326 c 128,-1,52
 791 255 791 255 766.5 173.5 c 128,-1,53
 742 92 742 92 711 -8 c 1,54,-1
 658 -8 l 1,55,-1
 683 125 l 1,56,57
 722 227 722 227 757 351.5 c 128,-1,58
 792 476 792 476 809 600 c 1,59,-1
 716 621 l 1,60,-1
 730 660 l 1,61,62
 764 659 764 659 797.5 657.5 c 128,-1,63
 831 656 831 656 864 656 c 0,64,65
 899 656 899 656 926 657.5 c 128,-1,66
 953 659 953 659 980 660 c 1,47,-1
EndSplineSet
Validated: 1048581
EndChar

StartChar: X
Encoding: 56 88 72
Width: 697
GlyphClass: 2
Flags: W
AnchorPoint: "Anchor-6" 342 0 basechar 0
AnchorPoint: "Anchor-5" 366 660 basechar 0
LayerCount: 2
Fore
SplineSet
328 660 m 1,0,-1
 342 621 l 1,1,-1
 281 605 l 1,2,3
 312 543 312 543 360.5 454.5 c 128,-1,4
 409 366 409 366 470 264 c 128,-1,5
 531 162 531 162 599 59 c 1,6,-1
 677 38 l 1,7,-1
 662 0 l 1,8,9
 632 1 632 1 599.5 2 c 128,-1,10
 567 3 567 3 531 3 c 0,11,12
 482 3 482 3 441 2.5 c 128,-1,13
 400 2 400 2 374 0 c 1,14,-1
 357 38 l 1,15,-1
 424 59 l 1,16,17
 377 148 377 148 323.5 241 c 128,-1,18
 270 334 270 334 214.5 426 c 128,-1,19
 159 518 159 518 105 603 c 1,20,-1
 24 621 l 1,21,-1
 38 660 l 1,22,23
 68 658 68 658 110 657.5 c 128,-1,24
 152 657 152 657 184 657 c 0,25,26
 205 657 205 657 231.5 657.5 c 128,-1,27
 258 658 258 658 284 659 c 128,-1,28
 310 660 310 660 328 660 c 1,0,-1
362 304 m 1,29,30
 312 231 312 231 273.5 170 c 128,-1,31
 235 109 235 109 210 59 c 1,32,-1
 292 38 l 1,33,-1
 278 0 l 1,34,35
 246 2 246 2 215 2.5 c 128,-1,36
 184 3 184 3 144 3 c 0,37,38
 112 3 112 3 86.5 2.5 c 128,-1,39
 61 2 61 2 34 0 c 1,40,-1
 20 38 l 1,41,-1
 104 59 l 1,42,43
 154 121 154 121 210.5 196.5 c 128,-1,44
 267 272 267 272 323 358 c 1,45,-1
 362 304 l 1,29,30
339 368 m 1,46,47
 394 446 394 446 429.5 507 c 128,-1,48
 465 568 465 568 479 602 c 1,49,-1
 403 621 l 1,50,-1
 417 660 l 1,51,52
 449 659 449 659 475.5 658 c 128,-1,53
 502 657 502 657 539 657 c 0,54,55
 566 657 566 657 590.5 658 c 128,-1,56
 615 659 615 659 642 660 c 1,57,-1
 656 621 l 1,58,-1
 582 600 l 1,59,60
 535 541 535 541 485 471 c 128,-1,61
 435 401 435 401 376 311 c 1,62,-1
 339 368 l 1,46,47
EndSplineSet
Validated: 1048581
EndChar

StartChar: Y
Encoding: 57 89 73
Width: 671
GlyphClass: 2
Flags: W
AnchorPoint: "Anchor-5" 366 660 basechar 0
LayerCount: 2
Fore
SplineSet
313 660 m 1,0,-1
 328 621 l 1,1,-1
 262 605 l 1,2,3
 277 572 277 572 298.5 520.5 c 128,-1,4
 320 469 320 469 349 409 c 128,-1,5
 378 349 378 349 413 287 c 1,6,-1
 292 198 l 1,7,8
 270 247 270 247 244.5 302 c 128,-1,9
 219 357 219 357 193.5 412.5 c 128,-1,10
 168 468 168 468 143 517 c 128,-1,11
 118 566 118 566 97 603 c 1,12,-1
 20 621 l 1,13,-1
 33 660 l 1,14,15
 64 659 64 659 94 658 c 128,-1,16
 124 657 124 657 163 657 c 0,17,18
 216 657 216 657 251 658 c 128,-1,19
 286 659 286 659 313 660 c 1,0,-1
413 297 m 1,20,21
 412 244 412 244 411.5 204.5 c 128,-1,22
 411 165 411 165 412 131 c 128,-1,23
 413 97 413 97 414 59 c 1,24,-1
 515 38 l 1,25,-1
 502 0 l 1,26,27
 476 2 476 2 437 2.5 c 128,-1,28
 398 3 398 3 339 3 c 0,29,30
 278 3 278 3 245 2 c 128,-1,31
 212 1 212 1 182 0 c 1,32,-1
 169 38 l 1,33,-1
 271 59 l 1,34,35
 273 98 273 98 273.5 129 c 128,-1,36
 274 160 274 160 273.5 194 c 128,-1,37
 273 228 273 228 271 275 c 1,38,-1
 413 297 l 1,20,21
636 660 m 1,39,-1
 651 621 l 1,40,-1
 571 600 l 1,41,42
 552 568 552 568 528 520 c 128,-1,43
 504 472 504 472 478 417 c 128,-1,44
 452 362 452 362 428 307 c 128,-1,45
 404 252 404 252 386 205 c 1,46,-1
 346 279 l 1,47,48
 364 312 364 312 383 354.5 c 128,-1,49
 402 397 402 397 419.5 442.5 c 128,-1,50
 437 488 437 488 451.5 529.5 c 128,-1,51
 466 571 466 571 476 602 c 1,52,-1
 393 621 l 1,53,-1
 407 660 l 1,54,55
 438 659 438 659 464 658 c 128,-1,56
 490 657 490 657 524 657 c 256,57,58
 558 657 558 657 584 658 c 128,-1,59
 610 659 610 659 636 660 c 1,39,-1
EndSplineSet
Validated: 1048613
EndChar

StartChar: Z
Encoding: 58 90 74
Width: 588
GlyphClass: 2
Flags: W
AnchorPoint: "Anchor-5" 309 660 basechar 0
LayerCount: 2
Fore
SplineSet
77 0 m 1,0,1
 54 20 54 20 40 46 c 1,2,3
 90 123 90 123 137 200 c 128,-1,4
 184 277 184 277 225 349 c 128,-1,5
 266 421 266 421 298 482 c 128,-1,6
 330 543 330 543 349 588 c 1,7,8
 335 590 335 590 322 590 c 128,-1,9
 309 590 309 590 296 590 c 0,10,11
 264 590 264 590 234 586.5 c 128,-1,12
 204 583 204 583 180 575 c 1,13,14
 164 547 164 547 152 521.5 c 128,-1,15
 140 496 140 496 128 462 c 1,16,-1
 67 462 l 1,17,18
 71 511 71 511 73 561 c 128,-1,19
 75 611 75 611 76 660 c 1,20,21
 138 659 138 659 193 658.5 c 128,-1,22
 248 658 248 658 300 658 c 256,23,24
 352 658 352 658 402.5 658.5 c 128,-1,25
 453 659 453 659 506 660 c 1,26,27
 514 649 514 649 522 634.5 c 128,-1,28
 530 620 530 620 535 608 c 1,29,30
 434 447 434 447 358.5 315 c 128,-1,31
 283 183 283 183 230 67 c 1,32,33
 242 66 242 66 254.5 65.5 c 128,-1,34
 267 65 267 65 279 65 c 0,35,36
 316 65 316 65 351.5 69.5 c 128,-1,37
 387 74 387 74 412 82 c 1,38,39
 430 105 430 105 449 140 c 128,-1,40
 468 175 468 175 484 206 c 1,41,-1
 548 186 l 1,42,43
 535 137 535 137 525.5 90 c 128,-1,44
 516 43 516 43 508 0 c 1,45,46
 459 2 459 2 400.5 2 c 128,-1,47
 342 2 342 2 283 2 c 256,48,49
 224 2 224 2 170 2 c 128,-1,50
 116 2 116 2 77 0 c 1,0,1
EndSplineSet
Validated: 1048577
EndChar

StartChar: bracketleft
Encoding: 59 91 75
Width: 372
Flags: W
LayerCount: 2
Fore
SplineSet
317 20 m 1,0,-1
 317 -30 l 1,1,-1
 35 -30 l 1,2,-1
 59 20 l 1,3,-1
 317 20 l 1,0,-1
317 763 m 1,4,-1
 317 715 l 1,5,-1
 59 715 l 1,6,-1
 35 763 l 1,7,-1
 317 763 l 1,4,-1
35 763 m 1,8,-1
 180 742 l 1,9,10
 176 648 176 648 174 554 c 128,-1,11
 172 460 172 460 172 366 c 256,12,13
 172 272 172 272 174 177.5 c 128,-1,14
 176 83 176 83 180 -11 c 1,15,-1
 35 -30 l 1,16,17
 40 70 40 70 42.5 169 c 128,-1,18
 45 268 45 268 45 367 c 256,19,20
 45 466 45 466 42.5 565 c 128,-1,21
 40 664 40 664 35 763 c 1,8,-1
EndSplineSet
Validated: 5
EndChar

StartChar: backslash
Encoding: 60 92 77
Width: 278
Flags: W
LayerCount: 2
Fore
SplineSet
304 -138 m 1,0,-1
 218 -138 l 1,1,-1
 -82 763 l 1,2,-1
 3 763 l 1,3,-1
 304 -138 l 1,0,-1
EndSplineSet
Validated: 1
EndChar

StartChar: underscore
Encoding: 63 95 78
Width: 560
Flags: W
LayerCount: 2
Fore
SplineSet
512 46 m 1,0,-1
 512 -31 l 1,1,-1
 48 -31 l 1,2,-1
 48 46 l 1,3,-1
 512 46 l 1,0,-1
EndSplineSet
Validated: 1
EndChar

StartChar: a
Encoding: 65 97 79
Width: 494
GlyphClass: 2
Flags: W
AnchorPoint: "Anchor-5" 241 434 basechar 0
LayerCount: 2
Fore
SplineSet
274 436 m 0,0,1
 327 436 327 436 366 403.5 c 128,-1,2
 405 371 405 371 405 305 c 0,3,4
 405 262 405 262 403.5 233 c 128,-1,5
 402 204 402 204 400.5 181.5 c 128,-1,6
 399 159 399 159 399 135 c 0,7,8
 399 107 399 107 402.5 95.5 c 128,-1,9
 406 84 406 84 422 84 c 0,10,11
 436 84 436 84 464 97 c 1,12,-1
 482 53 l 1,13,14
 446 28 446 28 413 11.5 c 128,-1,15
 380 -5 380 -5 343 -5 c 0,16,17
 312 -5 312 -5 289 19.5 c 128,-1,18
 266 44 266 44 266 97 c 0,19,20
 266 146 266 146 270.5 193.5 c 128,-1,21
 275 241 275 241 275 278 c 0,22,23
 275 309 275 309 266 328 c 128,-1,24
 257 347 257 347 236 354 c 1,25,26
 190 352 190 352 148 337 c 128,-1,27
 106 322 106 322 62 299 c 1,28,-1
 36 342 l 1,29,30
 93 384 93 384 151.5 410 c 128,-1,31
 210 436 210 436 274 436 c 0,0,1
345 279 m 1,32,-1
 285 196 l 1,33,34
 263 191 263 191 246 186 c 128,-1,35
 229 181 229 181 215 178 c 0,36,37
 181 171 181 171 168 160.5 c 128,-1,38
 155 150 155 150 155 124 c 0,39,40
 155 103 155 103 166 91 c 128,-1,41
 177 79 177 79 196 79 c 0,42,43
 219 79 219 79 254.5 100.5 c 128,-1,44
 290 122 290 122 315 155 c 1,45,-1
 334 114 l 1,46,47
 318 94 318 94 288.5 65 c 128,-1,48
 259 36 259 36 218 13.5 c 128,-1,49
 177 -9 177 -9 128 -9 c 0,50,51
 103 -9 103 -9 79.5 4.5 c 128,-1,52
 56 18 56 18 40.5 45 c 128,-1,53
 25 72 25 72 25 112 c 0,54,55
 25 154 25 154 50.5 177.5 c 128,-1,56
 76 201 76 201 120 214 c 128,-1,57
 164 227 164 227 217 236 c 0,58,59
 253 242 253 242 284 251.5 c 128,-1,60
 315 261 315 261 345 279 c 1,32,-1
EndSplineSet
Validated: 1048581
EndChar

StartChar: b
Encoding: 66 98 80
Width: 576
Flags: W
LayerCount: 2
Fore
SplineSet
244 745 m 1,0,1
 243 717 243 717 243 687.5 c 128,-1,2
 243 658 243 658 243 629 c 0,3,4
 243 577 243 577 243.5 535 c 128,-1,5
 244 493 244 493 244.5 451.5 c 128,-1,6
 245 410 245 410 245 358 c 0,7,8
 245 337 245 337 245 298.5 c 128,-1,9
 245 260 245 260 245 217 c 128,-1,10
 245 174 245 174 245.5 137 c 128,-1,11
 246 100 246 100 246 82 c 1,12,-1
 224 63 l 2,13,14
 213 50 213 50 196.5 33.5 c 128,-1,15
 180 17 180 17 163 0 c 1,16,-1
 101 0 l 1,17,18
 103 26 103 26 104 68 c 128,-1,19
 105 110 105 110 106 160 c 128,-1,20
 107 210 107 210 107.5 261 c 128,-1,21
 108 312 108 312 108.5 357 c 128,-1,22
 109 402 109 402 109 434 c 0,23,24
 109 493 109 493 106 548 c 128,-1,25
 103 603 103 603 96 671 c 1,26,-1
 16 684 l 1,27,-1
 7 727 l 1,28,29
 24 728 24 728 53.5 729 c 128,-1,30
 83 730 83 730 118 732.5 c 128,-1,31
 153 735 153 735 186.5 738 c 128,-1,32
 220 741 220 741 244 745 c 1,0,1
383 436 m 0,33,34
 438 436 438 436 475 405.5 c 128,-1,35
 512 375 512 375 531.5 326.5 c 128,-1,36
 551 278 551 278 551 224 c 0,37,38
 551 167 551 167 529.5 114.5 c 128,-1,39
 508 62 508 62 465 28.5 c 128,-1,40
 422 -5 422 -5 357 -5 c 0,41,42
 302 -5 302 -5 260.5 26 c 128,-1,43
 219 57 219 57 189 105 c 1,44,-1
 215 147 l 1,45,46
 231 115 231 115 258 90 c 128,-1,47
 285 65 285 65 331 65 c 0,48,49
 358 65 358 65 377 85.5 c 128,-1,50
 396 106 396 106 406 139 c 128,-1,51
 416 172 416 172 416 208 c 256,52,53
 416 244 416 244 406 278.5 c 128,-1,54
 396 313 396 313 376 337 c 128,-1,55
 356 361 356 361 326 365 c 1,56,57
 295 360 295 360 270 318.5 c 128,-1,58
 245 277 245 277 245 204 c 1,59,-1
 216 291 l 1,60,61
 226 330 226 330 247.5 363 c 128,-1,62
 269 396 269 396 303 416 c 128,-1,63
 337 436 337 436 383 436 c 0,33,34
EndSplineSet
Validated: 5
EndChar

StartChar: c
Encoding: 67 99 81
Width: 433
GlyphClass: 2
Flags: W
AnchorPoint: "Anchor-6" 230 0 basechar 0
AnchorPoint: "Anchor-5" 230 434 basechar 0
LayerCount: 2
Fore
SplineSet
425 69 m 1,0,1
 391 38 391 38 344.5 16 c 128,-1,2
 298 -6 298 -6 238 -6 c 0,3,4
 166 -6 166 -6 117.5 26 c 128,-1,5
 69 58 69 58 45 108 c 128,-1,6
 21 158 21 158 21 213 c 0,7,8
 21 269 21 269 46 320 c 128,-1,9
 71 371 71 371 121.5 403.5 c 128,-1,10
 172 436 172 436 250 436 c 0,11,12
 292 436 292 436 332.5 426.5 c 128,-1,13
 373 417 373 417 410 394 c 1,14,15
 396 342 396 342 390 308.5 c 128,-1,16
 384 275 384 275 378 245 c 1,17,-1
 328 245 l 1,18,-1
 313 336 l 1,19,20
 288 357 288 357 256 369 c 128,-1,21
 224 381 224 381 192 379 c 1,22,23
 171 354 171 354 159.5 320 c 128,-1,24
 148 286 148 286 148 250 c 0,25,26
 148 196 148 196 167 157 c 128,-1,27
 186 118 186 118 217.5 96.5 c 128,-1,28
 249 75 249 75 286 75 c 0,29,30
 311 75 311 75 339.5 85.5 c 128,-1,31
 368 96 368 96 398 118 c 1,32,-1
 425 69 l 1,0,1
EndSplineSet
Validated: 1048609
EndChar

StartChar: d
Encoding: 68 100 82
Width: 542
GlyphClass: 2
Flags: W
AnchorPoint: "Anchor-7" 264 218 basechar 0
LayerCount: 2
Fore
SplineSet
466 747 m 1,0,1
 466 683 466 683 465.5 607 c 128,-1,2
 465 531 465 531 465 434 c 0,3,4
 465 353 465 353 465 277.5 c 128,-1,5
 465 202 465 202 465.5 144.5 c 128,-1,6
 466 87 466 87 467 58 c 1,7,-1
 542 37 l 1,8,-1
 527 0 l 1,9,10
 501 2 501 2 476 2 c 128,-1,11
 451 2 451 2 415 2 c 0,12,13
 388 2 388 2 370 1.5 c 128,-1,14
 352 1 352 1 338 0 c 1,15,16
 337 20 337 20 334.5 37.5 c 128,-1,17
 332 55 332 55 330 74 c 0,18,19
 331 119 331 119 331.5 164 c 128,-1,20
 332 209 332 209 332 251 c 0,21,22
 332 280 332 280 332 308 c 128,-1,23
 332 336 332 336 331 366 c 0,24,25
 331 412 331 412 329.5 466 c 128,-1,26
 328 520 328 520 325.5 574 c 128,-1,27
 323 628 323 628 319 672 c 1,28,-1
 238 685 l 1,29,-1
 229 728 l 1,30,31
 246 728 246 728 276 730 c 128,-1,32
 306 732 306 732 341.5 734.5 c 128,-1,33
 377 737 377 737 410 740.5 c 128,-1,34
 443 744 443 744 466 747 c 1,0,1
205 436 m 0,35,36
 260 436 260 436 302 407 c 128,-1,37
 344 378 344 378 363 325 c 1,38,-1
 332 240 l 1,39,40
 332 275 332 275 317.5 303.5 c 128,-1,41
 303 332 303 332 282 350.5 c 128,-1,42
 261 369 261 369 242 373 c 1,43,44
 202 361 202 361 179.5 318 c 128,-1,45
 157 275 157 275 157 219 c 0,46,47
 157 143 157 143 186 106 c 128,-1,48
 215 69 215 69 252 69 c 0,49,50
 287 69 287 69 318.5 107 c 128,-1,51
 350 145 350 145 362 207 c 1,52,-1
 393 162 l 1,53,54
 366 89 366 89 319.5 41 c 128,-1,55
 273 -7 273 -7 205 -7 c 0,56,57
 160 -7 160 -7 117.5 18.5 c 128,-1,58
 75 44 75 44 48 94.5 c 128,-1,59
 21 145 21 145 21 221 c 0,60,61
 21 292 21 292 49 340 c 128,-1,62
 77 388 77 388 119.5 412 c 128,-1,63
 162 436 162 436 205 436 c 0,35,36
EndSplineSet
Validated: 1048581
EndChar

StartChar: e
Encoding: 69 101 83
Width: 440
GlyphClass: 2
Flags: W
AnchorPoint: "Anchor-6" 229 0 basechar 0
AnchorPoint: "Anchor-5" 229 434 basechar 0
LayerCount: 2
Fore
SplineSet
233 437 m 0,0,1
 283 437 283 437 325.5 415 c 128,-1,2
 368 393 368 393 393.5 348.5 c 128,-1,3
 419 304 419 304 419 237 c 1,4,5
 397 233 397 233 361 230 c 128,-1,6
 325 227 325 227 282 225.5 c 128,-1,7
 239 224 239 224 196 224 c 0,8,9
 164 224 164 224 141 225 c 128,-1,10
 118 226 118 226 110 227 c 1,11,-1
 110 275 l 1,12,13
 121 275 121 275 143.5 275 c 128,-1,14
 166 275 166 275 194 276 c 128,-1,15
 222 277 222 277 248.5 279 c 128,-1,16
 275 281 275 281 293 284 c 1,17,18
 292 305 292 305 281.5 326.5 c 128,-1,19
 271 348 271 348 250 363 c 128,-1,20
 229 378 229 378 196 378 c 1,21,22
 176 359 176 359 164 325.5 c 128,-1,23
 152 292 152 292 152 248 c 0,24,25
 152 158 152 158 189.5 115.5 c 128,-1,26
 227 73 227 73 282 73 c 0,27,28
 338 73 338 73 400 113 c 1,29,-1
 422 67 l 1,30,31
 379 28 379 28 330 11 c 128,-1,32
 281 -6 281 -6 233 -6 c 0,33,34
 177 -6 177 -6 128.5 18.5 c 128,-1,35
 80 43 80 43 50.5 92 c 128,-1,36
 21 141 21 141 21 214 c 0,37,38
 21 288 21 288 51.5 337.5 c 128,-1,39
 82 387 82 387 130.5 412 c 128,-1,40
 179 437 179 437 233 437 c 0,0,1
EndSplineSet
Validated: 1048581
EndChar

StartChar: f
Encoding: 70 102 84
Width: 346
Flags: W
LayerCount: 2
Fore
SplineSet
109 455 m 0,0,1
 114 560 114 560 148.5 624 c 128,-1,2
 183 688 183 688 233.5 717 c 128,-1,3
 284 746 284 746 336 746 c 0,4,5
 426 746 426 746 462 700 c 1,6,7
 460 663 460 663 450 636 c 128,-1,8
 440 609 440 609 423 583 c 1,9,-1
 369 583 l 1,10,11
 353 635 353 635 331.5 660 c 128,-1,12
 310 685 310 685 284 689 c 1,13,14
 262 664 262 664 250 615.5 c 128,-1,15
 238 567 238 567 238 487 c 0,16,17
 238 451 238 451 238 400.5 c 128,-1,18
 238 350 238 350 238.5 292 c 128,-1,19
 239 234 239 234 240 176 c 128,-1,20
 241 118 241 118 242 68 c 1,21,-1
 346 37 l 1,22,-1
 331 0 l 1,23,24
 314 1 314 1 286 1.5 c 128,-1,25
 258 2 258 2 228 2.5 c 128,-1,26
 198 3 198 3 174 3 c 0,27,28
 144 2 144 2 103.5 1.5 c 128,-1,29
 63 1 63 1 32 0 c 1,30,-1
 15 37 l 1,31,-1
 102 58 l 1,32,33
 104 125 104 125 104 183 c 128,-1,34
 104 241 104 241 104.5 305 c 128,-1,35
 105 369 105 369 109 455 c 0,0,1
30 420 m 1,36,-1
 344 420 l 1,37,-1
 356 340 l 1,38,39
 271 349 271 349 184 357.5 c 128,-1,40
 97 366 97 366 14 366 c 1,41,-1
 30 420 l 1,36,-1
EndSplineSet
Validated: 5
EndChar

StartChar: g
Encoding: 71 103 85
Width: 492
GlyphClass: 2
Flags: W
AnchorPoint: "Anchor-5" 214 434 basechar 0
LayerCount: 2
Fore
SplineSet
140 183 m 1,0,-1
 188 171 l 1,1,2
 165 131 165 131 165 111 c 0,3,4
 165 84 165 84 194 78 c 128,-1,5
 223 72 223 72 263 70 c 0,6,7
 294 68 294 68 327 63.5 c 128,-1,8
 360 59 360 59 388.5 45.5 c 128,-1,9
 417 32 417 32 434.5 3.5 c 128,-1,10
 452 -25 452 -25 452 -75 c 0,11,12
 452 -124 452 -124 425.5 -167.5 c 128,-1,13
 399 -211 399 -211 344 -238 c 128,-1,14
 289 -265 289 -265 205 -265 c 0,15,16
 141 -265 141 -265 98 -246 c 128,-1,17
 55 -227 55 -227 33 -196 c 128,-1,18
 11 -165 11 -165 11 -130 c 0,19,20
 11 -86 11 -86 44.5 -44.5 c 128,-1,21
 78 -3 78 -3 146 20 c 1,22,-1
 165 9 l 1,23,24
 145 -15 145 -15 135.5 -39 c 128,-1,25
 126 -63 126 -63 126 -86 c 0,26,27
 126 -131 126 -131 162.5 -162 c 128,-1,28
 199 -193 199 -193 264 -193 c 0,29,30
 306 -193 306 -193 339 -173.5 c 128,-1,31
 372 -154 372 -154 372 -110 c 0,32,33
 372 -78 372 -78 334.5 -61.5 c 128,-1,34
 297 -45 297 -45 203 -45 c 0,35,36
 138 -45 138 -45 96 -20 c 128,-1,37
 54 5 54 5 54 63 c 1,38,39
 85 103 85 103 103 129 c 128,-1,40
 121 155 121 155 140 183 c 1,0,-1
193 389 m 1,41,42
 173 375 173 375 165.5 346 c 128,-1,43
 158 317 158 317 158 293 c 0,44,45
 158 267 158 267 170 239 c 128,-1,46
 182 211 182 211 203 192 c 128,-1,47
 224 173 224 173 252 173 c 1,48,49
 269 181 269 181 279.5 208 c 128,-1,50
 290 235 290 235 290 269 c 0,51,52
 290 295 290 295 276 322.5 c 128,-1,53
 262 350 262 350 240 369.5 c 128,-1,54
 218 389 218 389 193 389 c 1,41,42
220 431 m 0,55,56
 289 431 289 431 331.5 409.5 c 128,-1,57
 374 388 374 388 394 353.5 c 128,-1,58
 414 319 414 319 414 280 c 0,59,60
 414 238 414 238 392 202.5 c 128,-1,61
 370 167 370 167 326 145.5 c 128,-1,62
 282 124 282 124 216 124 c 0,63,64
 158 124 158 124 116.5 144.5 c 128,-1,65
 75 165 75 165 53 199 c 128,-1,66
 31 233 31 233 31 274 c 0,67,68
 31 316 31 316 52.5 351.5 c 128,-1,69
 74 387 74 387 116 409 c 128,-1,70
 158 431 158 431 220 431 c 0,55,56
513 423 m 1,71,72
 513 398 513 398 512 368.5 c 128,-1,73
 511 339 511 339 511 325 c 1,74,75
 462 346 462 346 425.5 357 c 128,-1,76
 389 368 389 368 354 372 c 1,77,-1
 307 410 l 1,78,79
 339 414 339 414 381 417 c 128,-1,80
 423 420 423 420 459.5 421.5 c 128,-1,81
 496 423 496 423 513 423 c 1,71,72
EndSplineSet
Validated: 1048581
EndChar

StartChar: h
Encoding: 72 104 86
Width: 617
GlyphClass: 2
Flags: W
AnchorPoint: "Anchor-7" 311 178 basechar 0
AnchorPoint: "Anchor-5" 330 710 basechar 0
LayerCount: 2
Fore
SplineSet
232 745 m 1,0,1
 232 644 232 644 232 555 c 128,-1,2
 232 466 232 466 231.5 398 c 128,-1,3
 231 330 231 330 230 291 c 2,4,-1
 233 58 l 1,5,-1
 307 37 l 1,6,-1
 293 0 l 1,7,8
 260 2 260 2 227.5 2.5 c 128,-1,9
 195 3 195 3 155 3 c 0,10,11
 116 3 116 3 82 2 c 128,-1,12
 48 1 48 1 19 0 c 1,13,-1
 2 37 l 1,14,-1
 89 58 l 1,15,16
 92 123 92 123 93.5 201 c 128,-1,17
 95 279 95 279 95 358 c 0,18,19
 95 447 95 447 92.5 524 c 128,-1,20
 90 601 90 601 84 673 c 1,21,-1
 6 686 l 1,22,-1
 -5 727 l 1,23,24
 45 728 45 728 106 733 c 128,-1,25
 167 738 167 738 232 745 c 1,0,1
400 435 m 0,26,27
 462 435 462 435 498.5 392 c 128,-1,28
 535 349 535 349 539 281 c 0,29,30
 541 263 541 263 540 224.5 c 128,-1,31
 539 186 539 186 538.5 141 c 128,-1,32
 538 96 538 96 538 58 c 1,33,-1
 612 37 l 1,34,-1
 597 0 l 1,35,36
 543 3 543 3 467 3 c 0,37,38
 429 3 429 3 398 2 c 128,-1,39
 367 1 367 1 341 0 c 1,40,-1
 327 37 l 1,41,-1
 400 58 l 1,42,43
 402 92 402 92 403 115.5 c 128,-1,44
 404 139 404 139 404.5 162.5 c 128,-1,45
 405 186 405 186 404 218 c 0,46,47
 403 288 403 288 379.5 314 c 128,-1,48
 356 340 356 340 309 340 c 1,49,50
 265 311 265 311 247.5 271 c 128,-1,51
 230 231 230 231 231 193 c 1,52,-1
 195 237 l 1,53,54
 202 294 202 294 230.5 339 c 128,-1,55
 259 384 259 384 303 409.5 c 128,-1,56
 347 435 347 435 400 435 c 0,26,27
EndSplineSet
Validated: 1048613
EndChar

StartChar: i
Encoding: 73 105 87
Width: 305
Flags: W
LayerCount: 2
Fore
SplineSet
230 435 m 1,0,1
 229 377 229 377 227.5 324 c 128,-1,2
 226 271 226 271 226 228 c 0,3,4
 226 191 226 191 227.5 143 c 128,-1,5
 229 95 229 95 230 58 c 1,6,-1
 310 37 l 1,7,-1
 293 0 l 1,8,9
 267 2 267 2 240.5 2.5 c 128,-1,10
 214 3 214 3 161 3 c 0,11,12
 112 3 112 3 84.5 2 c 128,-1,13
 57 1 57 1 26 0 c 1,14,-1
 10 37 l 1,15,-1
 95 58 l 1,16,17
 97 108 97 108 97.5 145 c 128,-1,18
 98 182 98 182 97 226 c 0,19,20
 97 249 97 249 96.5 267 c 128,-1,21
 96 285 96 285 95 307.5 c 128,-1,22
 94 330 94 330 91 365 c 1,23,-1
 20 378 l 1,24,-1
 5 416 l 1,25,26
 28 417 28 417 64.5 419 c 128,-1,27
 101 421 101 421 144 425 c 128,-1,28
 187 429 187 429 230 435 c 1,0,1
155 509 m 256,29,30
 123 509 123 509 100 533 c 128,-1,31
 77 557 77 557 77 592 c 0,32,33
 77 625 77 625 100 649 c 128,-1,34
 123 673 123 673 155 673 c 256,35,36
 187 673 187 673 210 649 c 128,-1,37
 233 625 233 625 233 592 c 0,38,39
 233 557 233 557 210 533 c 128,-1,40
 187 509 187 509 155 509 c 256,29,30
EndSplineSet
Validated: 33
EndChar

StartChar: j
Encoding: 74 106 88
Width: 285
Flags: W
LayerCount: 2
Fore
SplineSet
230 433 m 1,0,1
 229 380 229 380 228 325.5 c 128,-1,2
 227 271 227 271 227 228 c 0,3,4
 227 210 227 210 227 179 c 128,-1,5
 227 148 227 148 227.5 112.5 c 128,-1,6
 228 77 228 77 228 43 c 128,-1,7
 228 9 228 9 228 -15 c 0,8,9
 228 -56 228 -56 214 -95.5 c 128,-1,10
 200 -135 200 -135 160.5 -178 c 128,-1,11
 121 -221 121 -221 44 -273 c 1,12,-1
 7 -235 l 1,13,14
 42 -198 42 -198 57.5 -171 c 128,-1,15
 73 -144 73 -144 83 -110 c 0,16,17
 96 -63 96 -63 97 -1 c 128,-1,18
 98 61 98 61 97 149 c 0,19,20
 97 171 97 171 95.5 209 c 128,-1,21
 94 247 94 247 91.5 289.5 c 128,-1,22
 89 332 89 332 86 367 c 1,23,-1
 17 378 l 1,24,-1
 5 420 l 1,25,26
 22 420 22 420 50.5 421 c 128,-1,27
 79 422 79 422 112 423.5 c 128,-1,28
 145 425 145 425 176.5 427.5 c 128,-1,29
 208 430 208 430 230 433 c 1,0,1
155 509 m 256,30,31
 123 509 123 509 100 533 c 128,-1,32
 77 557 77 557 77 592 c 0,33,34
 77 622 77 622 100.5 647.5 c 128,-1,35
 124 673 124 673 155 673 c 0,36,37
 187 673 187 673 210 649 c 128,-1,38
 233 625 233 625 233 592 c 0,39,40
 233 557 233 557 210 533 c 128,-1,41
 187 509 187 509 155 509 c 256,30,31
EndSplineSet
Validated: 33
EndChar

StartChar: k
Encoding: 75 107 89
Width: 599
GlyphClass: 2
Flags: W
AnchorPoint: "Anchor-6" 295 0 basechar 0
LayerCount: 2
Fore
SplineSet
232 745 m 1,0,1
 232 720 232 720 232 665 c 128,-1,2
 232 610 232 610 231.5 540 c 128,-1,3
 231 470 231 470 230.5 397.5 c 128,-1,4
 230 325 230 325 230 264 c 2,5,-1
 235 58 l 1,6,-1
 303 37 l 1,7,-1
 288 0 l 1,8,9
 251 2 251 2 221.5 2.5 c 128,-1,10
 192 3 192 3 157 3 c 0,11,12
 117 3 117 3 84.5 2.5 c 128,-1,13
 52 2 52 2 19 0 c 1,14,-1
 2 37 l 1,15,-1
 88 58 l 1,16,17
 94 171 94 171 94 293 c 0,18,19
 94 405 94 405 92 501.5 c 128,-1,20
 90 598 90 598 84 673 c 1,21,-1
 4 686 l 1,22,-1
 -5 727 l 1,23,24
 12 728 12 728 42 730 c 128,-1,25
 72 732 72 732 107 734.5 c 128,-1,26
 142 737 142 737 175 739.5 c 128,-1,27
 208 742 208 742 232 745 c 1,0,1
240 219 m 1,28,29
 266 245 266 245 287 264.5 c 128,-1,30
 308 284 308 284 328 307 c 128,-1,31
 348 330 348 330 371 363 c 1,32,-1
 288 384 l 1,33,-1
 300 421 l 1,34,35
 331 420 331 420 360.5 419 c 128,-1,36
 390 418 390 418 426 418 c 0,37,38
 491 418 491 418 543 421 c 1,39,-1
 557 384 l 1,40,-1
 474 364 l 1,41,42
 436 331 436 331 411.5 309 c 128,-1,43
 387 287 387 287 366.5 266.5 c 128,-1,44
 346 246 346 246 318 219 c 1,45,-1
 353 272 l 1,46,47
 384 221 384 221 404.5 187 c 128,-1,48
 425 153 425 153 446 124 c 128,-1,49
 467 95 467 95 497 58 c 1,50,-1
 574 37 l 1,51,-1
 564 0 l 1,52,53
 536 2 536 2 511.5 2 c 128,-1,54
 487 2 487 2 458 2 c 0,55,56
 430 2 430 2 405.5 2 c 128,-1,57
 381 2 381 2 357 0 c 1,58,59
 328 52 328 52 301.5 105 c 128,-1,60
 275 158 275 158 240 219 c 1,28,29
EndSplineSet
Validated: 1048581
EndChar

StartChar: l
Encoding: 76 108 90
Width: 319
GlyphClass: 2
Flags: W
AnchorPoint: "Anchor-6" 166 0 basechar 0
AnchorPoint: "Anchor-5" 152 734 basechar 0
LayerCount: 2
Fore
SplineSet
232 745 m 1,0,1
 231 575 231 575 231.5 398.5 c 128,-1,2
 232 222 232 222 235 58 c 1,3,-1
 314 37 l 1,4,-1
 295 0 l 1,5,6
 277 1 277 1 261.5 1.5 c 128,-1,7
 246 2 246 2 224.5 2.5 c 128,-1,8
 203 3 203 3 166 3 c 0,9,10
 133 3 133 3 111.5 2.5 c 128,-1,11
 90 2 90 2 73 1.5 c 128,-1,12
 56 1 56 1 35 0 c 1,13,-1
 16 37 l 1,14,-1
 95 58 l 1,15,16
 97 165 97 165 97.5 277.5 c 128,-1,17
 98 390 98 390 96.5 492.5 c 128,-1,18
 95 595 95 595 91 672 c 1,19,-1
 5 686 l 1,20,-1
 -5 725 l 1,21,22
 18 727 18 727 57 729 c 128,-1,23
 96 731 96 731 142.5 735 c 128,-1,24
 189 739 189 739 232 745 c 1,0,1
EndSplineSet
Validated: 1048609
EndChar

StartChar: m
Encoding: 77 109 91
Width: 925
GlyphClass: 2
Flags: W
AnchorPoint: "Anchor-6" 467 0 basechar 0
AnchorPoint: "Anchor-5" 469 430 basechar 0
LayerCount: 2
Fore
SplineSet
398 435 m 0,0,1
 459 435 459 435 495.5 392 c 128,-1,2
 532 349 532 349 536 278 c 0,3,4
 538 260 538 260 537 222.5 c 128,-1,5
 536 185 536 185 535.5 140.5 c 128,-1,6
 535 96 535 96 535 58 c 1,7,-1
 609 37 l 1,8,-1
 595 0 l 1,9,10
 568 2 568 2 534.5 2.5 c 128,-1,11
 501 3 501 3 465 3 c 0,12,13
 431 3 431 3 400 2 c 128,-1,14
 369 1 369 1 343 0 c 1,15,-1
 329 37 l 1,16,-1
 403 58 l 1,17,18
 404 92 404 92 405 114.5 c 128,-1,19
 406 137 406 137 406.5 159.5 c 128,-1,20
 407 182 407 182 406 214 c 0,21,22
 405 287 405 287 381.5 313.5 c 128,-1,23
 358 340 358 340 311 340 c 1,24,25
 267 311 267 311 250 268.5 c 128,-1,26
 233 226 233 226 234 190 c 1,27,-1
 197 232 l 1,28,29
 204 290 204 290 231 335.5 c 128,-1,30
 258 381 258 381 301.5 408 c 128,-1,31
 345 435 345 435 398 435 c 0,0,1
234 438 m 1,32,33
 234 405 234 405 234 383.5 c 128,-1,34
 234 362 234 362 234 341 c 128,-1,35
 234 320 234 320 233 286 c 2,36,-1
 235 58 l 1,37,-1
 308 37 l 1,38,-1
 295 0 l 1,39,40
 262 2 262 2 230 2.5 c 128,-1,41
 198 3 198 3 163 3 c 256,42,43
 128 3 128 3 100.5 2 c 128,-1,44
 73 1 73 1 43 0 c 1,45,-1
 27 37 l 1,46,-1
 102 58 l 1,47,48
 103 97 103 97 104 121.5 c 128,-1,49
 105 146 105 146 105.5 166 c 128,-1,50
 106 186 106 186 106 211 c 0,51,52
 106 241 106 241 105.5 262.5 c 128,-1,53
 105 284 105 284 103 307.5 c 128,-1,54
 101 331 101 331 98 366 c 1,55,-1
 24 378 l 1,56,-1
 12 420 l 1,57,58
 62 422 62 422 115.5 425.5 c 128,-1,59
 169 429 169 429 234 438 c 1,32,33
701 435 m 0,60,61
 763 435 763 435 799.5 392 c 128,-1,62
 836 349 836 349 840 278 c 0,63,64
 841 260 841 260 840 222.5 c 128,-1,65
 839 185 839 185 838.5 140.5 c 128,-1,66
 838 96 838 96 839 58 c 1,67,-1
 913 37 l 1,68,-1
 898 0 l 1,69,70
 871 2 871 2 837.5 2.5 c 128,-1,71
 804 3 804 3 768 3 c 0,72,73
 734 3 734 3 703.5 2 c 128,-1,74
 673 1 673 1 647 0 c 1,75,-1
 633 37 l 1,76,-1
 706 58 l 1,77,78
 708 92 708 92 708.5 114.5 c 128,-1,79
 709 137 709 137 709.5 159.5 c 128,-1,80
 710 182 710 182 710 214 c 0,81,82
 709 287 709 287 685.5 313.5 c 128,-1,83
 662 340 662 340 614 340 c 1,84,85
 571 311 571 311 553.5 268.5 c 128,-1,86
 536 226 536 226 536 190 c 1,87,-1
 500 232 l 1,88,89
 507 290 507 290 534.5 335.5 c 128,-1,90
 562 381 562 381 605 408 c 128,-1,91
 648 435 648 435 701 435 c 0,60,61
EndSplineSet
Validated: 1048613
EndChar

StartChar: n
Encoding: 78 110 92
Width: 623
GlyphClass: 2
Flags: W
AnchorPoint: "Anchor-6" 312 0 basechar 0
AnchorPoint: "Anchor-5" 312 434 basechar 0
LayerCount: 2
Fore
SplineSet
404 435 m 0,0,1
 461 435 461 435 497.5 392 c 128,-1,2
 534 349 534 349 538 281 c 0,3,4
 539 263 539 263 538 224.5 c 128,-1,5
 537 186 537 186 536.5 141 c 128,-1,6
 536 96 536 96 536 58 c 1,7,-1
 611 37 l 1,8,-1
 595 0 l 1,9,10
 569 2 569 2 536 2.5 c 128,-1,11
 503 3 503 3 471 3 c 0,12,13
 432 3 432 3 401 2 c 128,-1,14
 370 1 370 1 344 0 c 1,15,-1
 331 37 l 1,16,-1
 404 58 l 1,17,18
 405 92 405 92 406 115.5 c 128,-1,19
 407 139 407 139 407.5 162.5 c 128,-1,20
 408 186 408 186 407 218 c 0,21,22
 406 279 406 279 385 307 c 128,-1,23
 364 335 364 335 323 344 c 1,24,25
 279 315 279 315 259 273 c 128,-1,26
 239 231 239 231 240 193 c 1,27,-1
 203 237 l 1,28,29
 210 294 210 294 237.5 339 c 128,-1,30
 265 384 265 384 308 409.5 c 128,-1,31
 351 435 351 435 404 435 c 0,0,1
241 440 m 1,32,33
 241 407 241 407 241 386.5 c 128,-1,34
 241 366 241 366 240.5 345.5 c 128,-1,35
 240 325 240 325 238 291 c 2,36,-1
 242 58 l 1,37,-1
 315 37 l 1,38,-1
 302 0 l 1,39,40
 268 2 268 2 238 2.5 c 128,-1,41
 208 3 208 3 172 3 c 0,42,43
 133 3 133 3 104.5 2 c 128,-1,44
 76 1 76 1 47 0 c 1,45,-1
 31 37 l 1,46,-1
 106 58 l 1,47,48
 106 90 106 90 108.5 133.5 c 128,-1,49
 111 177 111 177 111 216 c 0,50,51
 111 245 111 245 110.5 264.5 c 128,-1,52
 110 284 110 284 108 305.5 c 128,-1,53
 106 327 106 327 102 362 c 1,54,-1
 24 381 l 1,55,-1
 12 419 l 1,56,57
 71 422 71 422 123.5 427.5 c 128,-1,58
 176 433 176 433 241 440 c 1,32,33
EndSplineSet
Validated: 1048613
EndChar

StartChar: o
Encoding: 79 111 93
Width: 504
GlyphClass: 2
Flags: W
AnchorPoint: "Anchor-5" 253 434 basechar 0
LayerCount: 2
Fore
SplineSet
257 434 m 0,0,1
 331 434 331 434 380.5 403 c 128,-1,2
 430 372 430 372 454.5 322 c 128,-1,3
 479 272 479 272 479 214 c 0,4,5
 479 155 479 155 454 103.5 c 128,-1,6
 429 52 429 52 379 21 c 128,-1,7
 329 -10 329 -10 254 -10 c 256,8,9
 179 -10 179 -10 128 21.5 c 128,-1,10
 77 53 77 53 51 105 c 128,-1,11
 25 157 25 157 25 216 c 0,12,13
 25 274 25 274 50.5 323.5 c 128,-1,14
 76 373 76 373 127.5 403.5 c 128,-1,15
 179 434 179 434 257 434 c 0,0,1
165 237 m 0,16,17
 165 187 165 187 176.5 142 c 128,-1,18
 188 97 188 97 211 69 c 128,-1,19
 234 41 234 41 266 41 c 0,20,21
 304 41 304 41 322.5 82.5 c 128,-1,22
 341 124 341 124 341 186 c 0,23,24
 341 236 341 236 329.5 280.5 c 128,-1,25
 318 325 318 325 295.5 353.5 c 128,-1,26
 273 382 273 382 240 382 c 0,27,28
 202 382 202 382 183.5 340.5 c 128,-1,29
 165 299 165 299 165 237 c 0,16,17
EndSplineSet
Validated: 1048577
EndChar

StartChar: p
Encoding: 80 112 94
Width: 582
Flags: W
LayerCount: 2
Fore
SplineSet
239 435 m 1,0,1
 241 399 241 399 243.5 370 c 128,-1,2
 246 341 246 341 247 321 c 0,3,4
 246 289 246 289 246 258 c 128,-1,5
 246 227 246 227 246 192 c 0,6,7
 246 158 246 158 246 122.5 c 128,-1,8
 246 87 246 87 247 43.5 c 128,-1,9
 248 0 248 0 249 -58.5 c 128,-1,10
 250 -117 250 -117 251 -197 c 1,11,-1
 351 -221 l 1,12,-1
 337 -260 l 1,13,14
 311 -258 311 -258 271 -257 c 128,-1,15
 231 -256 231 -256 187 -256 c 0,16,17
 138 -256 138 -256 107 -257 c 128,-1,18
 76 -258 76 -258 47 -260 c 1,19,-1
 32 -221 l 1,20,-1
 111 -201 l 1,21,22
 113 -181 113 -181 113.5 -145 c 128,-1,23
 114 -109 114 -109 114.5 -67.5 c 128,-1,24
 115 -26 115 -26 115 9.5 c 128,-1,25
 115 45 115 45 115 63 c 0,26,27
 115 109 115 109 114.5 151 c 128,-1,28
 114 193 114 193 112.5 243 c 128,-1,29
 111 293 111 293 107 363 c 1,30,-1
 23 378 l 1,31,-1
 12 419 l 1,32,33
 29 420 29 420 58 421 c 128,-1,34
 87 422 87 422 120 423.5 c 128,-1,35
 153 425 153 425 184.5 428 c 128,-1,36
 216 431 216 431 239 435 c 1,0,1
385 436 m 0,37,38
 442 436 442 436 480.5 405.5 c 128,-1,39
 519 375 519 375 538 326.5 c 128,-1,40
 557 278 557 278 557 224 c 0,41,42
 557 167 557 167 535 114.5 c 128,-1,43
 513 62 513 62 469 28.5 c 128,-1,44
 425 -5 425 -5 358 -5 c 0,45,46
 303 -5 303 -5 261.5 26 c 128,-1,47
 220 57 220 57 190 105 c 1,48,-1
 211 147 l 1,49,50
 226 115 226 115 259.5 90 c 128,-1,51
 293 65 293 65 332 65 c 0,52,53
 362 65 362 65 382 85.5 c 128,-1,54
 402 106 402 106 412 139 c 128,-1,55
 422 172 422 172 422 208 c 256,56,57
 422 244 422 244 412 278.5 c 128,-1,58
 402 313 402 313 381 337 c 128,-1,59
 360 361 360 361 327 365 c 1,60,61
 313 362 313 362 293.5 341 c 128,-1,62
 274 320 274 320 260 289 c 128,-1,63
 246 258 246 258 246 224 c 1,64,-1
 218 291 l 1,65,66
 227 339 227 339 252.5 371 c 128,-1,67
 278 403 278 403 313 419.5 c 128,-1,68
 348 436 348 436 385 436 c 0,37,38
EndSplineSet
Validated: 5
EndChar

StartChar: q
Encoding: 81 113 95
Width: 530
Flags: W
LayerCount: 2
Fore
SplineSet
463 434 m 1,0,1
 461 322 461 322 459.5 221 c 128,-1,2
 458 120 458 120 458 24 c 0,3,4
 458 -37 458 -37 459 -87.5 c 128,-1,5
 460 -138 460 -138 461 -201 c 1,6,-1
 540 -221 l 1,7,-1
 527 -260 l 1,8,9
 501 -258 501 -258 471 -257 c 128,-1,10
 441 -256 441 -256 389 -256 c 0,11,12
 369 -256 369 -256 340.5 -256.5 c 128,-1,13
 312 -257 312 -257 283.5 -258 c 128,-1,14
 255 -259 255 -259 235 -260 c 1,15,-1
 223 -221 l 1,16,-1
 321 -198 l 1,17,18
 322 -94 322 -94 323.5 5.5 c 128,-1,19
 325 105 325 105 325 205 c 0,20,21
 325 250 325 250 325 291.5 c 128,-1,22
 325 333 325 333 323 367 c 1,23,24
 341 383 341 383 352 392 c 128,-1,25
 363 401 363 401 374 410.5 c 128,-1,26
 385 420 385 420 402 434 c 1,27,-1
 463 434 l 1,0,1
205 436 m 0,28,29
 260 436 260 436 297.5 407 c 128,-1,30
 335 378 335 378 357 325 c 1,31,-1
 326 240 l 1,32,33
 326 275 326 275 313 303.5 c 128,-1,34
 300 332 300 332 280.5 350.5 c 128,-1,35
 261 369 261 369 242 373 c 1,36,37
 202 361 202 361 179.5 318 c 128,-1,38
 157 275 157 275 157 219 c 0,39,40
 157 143 157 143 186 106 c 128,-1,41
 215 69 215 69 252 69 c 0,42,43
 287 69 287 69 318.5 107 c 128,-1,44
 350 145 350 145 362 207 c 1,45,-1
 393 162 l 1,46,47
 366 89 366 89 319.5 41 c 128,-1,48
 273 -7 273 -7 205 -7 c 0,49,50
 160 -7 160 -7 117.5 18.5 c 128,-1,51
 75 44 75 44 48 94.5 c 128,-1,52
 21 145 21 145 21 221 c 0,53,54
 21 292 21 292 49 340 c 128,-1,55
 77 388 77 388 119.5 412 c 128,-1,56
 162 436 162 436 205 436 c 0,28,29
EndSplineSet
Validated: 5
EndChar

StartChar: r
Encoding: 82 114 96
Width: 482
GlyphClass: 2
Flags: W
AnchorPoint: "Anchor-6" 171 0 basechar 0
AnchorPoint: "Anchor-5" 260 430 basechar 0
LayerCount: 2
Fore
SplineSet
228 434 m 1,0,1
 229 411 229 411 231 380 c 128,-1,2
 233 349 233 349 235 323.5 c 128,-1,3
 237 298 237 298 237 289 c 2,4,-1
 244 62 l 1,5,-1
 343 37 l 1,6,-1
 328 0 l 1,7,8
 311 1 311 1 283 1.5 c 128,-1,9
 255 2 255 2 225 2.5 c 128,-1,10
 195 3 195 3 171 3 c 0,11,12
 140 3 140 3 104 2 c 128,-1,13
 68 1 68 1 38 0 c 1,14,-1
 23 37 l 1,15,-1
 104 58 l 1,16,17
 104 103 104 103 104 138.5 c 128,-1,18
 104 174 104 174 104 216 c 0,19,20
 104 239 104 239 103.5 258.5 c 128,-1,21
 103 278 103 278 102 302.5 c 128,-1,22
 101 327 101 327 98 363 c 1,23,-1
 30 374 l 1,24,-1
 16 416 l 1,25,26
 39 417 39 417 77.5 419 c 128,-1,27
 116 421 116 421 157 425 c 128,-1,28
 198 429 198 429 228 434 c 1,0,1
362 436 m 0,29,30
 390 436 390 436 414 425.5 c 128,-1,31
 438 415 438 415 460 392 c 1,32,33
 454 362 454 362 449 340 c 128,-1,34
 444 318 444 318 437.5 296.5 c 128,-1,35
 431 275 431 275 422 244 c 1,36,-1
 366 244 l 1,37,38
 359 281 359 281 345.5 308.5 c 128,-1,39
 332 336 332 336 309 346 c 1,40,41
 284 330 284 330 261.5 286.5 c 128,-1,42
 239 243 239 243 239 171 c 1,43,-1
 200 229 l 1,44,45
 208 285 208 285 231 332 c 128,-1,46
 254 379 254 379 287.5 407.5 c 128,-1,47
 321 436 321 436 362 436 c 0,29,30
EndSplineSet
Validated: 1048581
EndChar

StartChar: s
Encoding: 83 115 97
Width: 387
GlyphClass: 2
Flags: W
AnchorPoint: "Anchor-6" 198 0 basechar 0
AnchorPoint: "Anchor-5" 198 434 basechar 0
LayerCount: 2
Fore
SplineSet
26 26 m 1,0,1
 34 64 34 64 39.5 89.5 c 128,-1,2
 45 115 45 115 49 145 c 1,3,-1
 99 145 l 1,4,-1
 115 67 l 1,5,6
 128 56 128 56 146 50 c 128,-1,7
 164 44 164 44 182 44 c 0,8,9
 207 44 207 44 226.5 56 c 128,-1,10
 246 68 246 68 246 93 c 0,11,12
 246 114 246 114 230.5 127.5 c 128,-1,13
 215 141 215 141 191 151.5 c 128,-1,14
 167 162 167 162 140 172.5 c 128,-1,15
 113 183 113 183 89 199 c 128,-1,16
 65 215 65 215 49.5 239 c 128,-1,17
 34 263 34 263 34 300 c 0,18,19
 34 351 34 351 59 380.5 c 128,-1,20
 84 410 84 410 124.5 423 c 128,-1,21
 165 436 165 436 210 436 c 0,22,23
 245 436 245 436 283 428 c 128,-1,24
 321 420 321 420 352 405 c 1,25,26
 344 370 344 370 337.5 343 c 128,-1,27
 331 316 331 316 326 290 c 1,28,-1
 274 291 l 1,29,-1
 261 359 l 1,30,31
 243 383 243 383 202 383 c 0,32,33
 180 383 180 383 161.5 373 c 128,-1,34
 143 363 143 363 143 340 c 0,35,36
 143 318 143 318 159 304.5 c 128,-1,37
 175 291 175 291 200.5 281 c 128,-1,38
 226 271 226 271 255 259.5 c 128,-1,39
 284 248 284 248 309.5 231 c 128,-1,40
 335 214 335 214 351 187.5 c 128,-1,41
 367 161 367 161 367 120 c 0,42,43
 367 72 367 72 341 43.5 c 128,-1,44
 315 15 315 15 272 2.5 c 128,-1,45
 229 -10 229 -10 179 -10 c 0,46,47
 141 -10 141 -10 102 -2 c 128,-1,48
 63 6 63 6 26 26 c 1,0,1
EndSplineSet
Validated: 1048577
EndChar

StartChar: t
Encoding: 84 116 98
Width: 346
GlyphClass: 2
Flags: W
AnchorPoint: "Anchor-7" 177 218 basechar 0
AnchorPoint: "Anchor-6" 177 0 basechar 0
LayerCount: 2
Fore
SplineSet
200 552 m 1,0,1
 198 517 198 517 197 470.5 c 128,-1,2
 196 424 196 424 195.5 374.5 c 128,-1,3
 195 325 195 325 195.5 280 c 128,-1,4
 196 235 196 235 196.5 202 c 128,-1,5
 197 169 197 169 198 156 c 0,6,7
 200 119 200 119 211 104 c 128,-1,8
 222 89 222 89 246 89 c 0,9,10
 263 89 263 89 282 95 c 128,-1,11
 301 101 301 101 332 120 c 1,12,-1
 352 80 l 1,13,14
 327 59 327 59 298.5 38 c 128,-1,15
 270 17 270 17 236.5 3.5 c 128,-1,16
 203 -10 203 -10 162 -10 c 0,17,18
 139 -10 139 -10 117 -0.5 c 128,-1,19
 95 9 95 9 81.5 32.5 c 128,-1,20
 68 56 68 56 68 96 c 1,21,22
 68 95 68 95 68.5 114 c 128,-1,23
 69 133 69 133 69.5 164.5 c 128,-1,24
 70 196 70 196 71 231 c 128,-1,25
 72 266 72 266 72.5 297 c 128,-1,26
 73 328 73 328 73.5 347.5 c 128,-1,27
 74 367 74 367 74 365 c 1,28,29
 73 376 73 376 61.5 384 c 128,-1,30
 50 392 50 392 35 398 c 128,-1,31
 20 404 20 404 8 409 c 128,-1,32
 -4 414 -4 414 -5 420 c 1,33,34
 19 424 19 424 36 428 c 128,-1,35
 53 432 53 432 73 437 c 1,36,37
 95 466 95 466 112.5 491.5 c 128,-1,38
 130 517 130 517 153 552 c 1,39,40
 162 552 162 552 176 552 c 128,-1,41
 190 552 190 552 200 552 c 1,0,1
338 421 m 1,42,-1
 338 348 l 1,43,-1
 -5 368 l 1,44,-1
 -5 420 l 1,45,-1
 338 421 l 1,42,-1
EndSplineSet
Validated: 1048613
EndChar

StartChar: u
Encoding: 85 117 99
Width: 611
GlyphClass: 2
Flags: W
AnchorPoint: "Anchor-5" 302 434 basechar 0
LayerCount: 2
Fore
SplineSet
230 -17 m 0,0,1
 167 -17 167 -17 131.5 26 c 128,-1,2
 96 69 96 69 91 151 c 0,3,4
 89 186 89 186 89 237.5 c 128,-1,5
 89 289 89 289 90 367 c 1,6,-1
 19 378 l 1,7,-1
 7 419 l 1,8,9
 65 419 65 419 121.5 423 c 128,-1,10
 178 427 178 427 227 434 c 1,11,12
 225 388 225 388 222.5 349.5 c 128,-1,13
 220 311 220 311 220 271.5 c 128,-1,14
 220 232 220 232 223 180 c 0,15,16
 226 122 226 122 250 100 c 128,-1,17
 274 78 274 78 297 78 c 1,18,19
 321 83 321 83 342 110.5 c 128,-1,20
 363 138 363 138 376 177.5 c 128,-1,21
 389 217 389 217 389 256 c 1,22,-1
 415 171 l 1,23,24
 409 122 409 122 384 79 c 128,-1,25
 359 36 359 36 319.5 9.5 c 128,-1,26
 280 -17 280 -17 230 -17 c 0,0,1
397 0 m 1,27,28
 396 30 396 30 393.5 64 c 128,-1,29
 391 98 391 98 390 145 c 2,30,-1
 384 366 l 1,31,-1
 312 378 l 1,32,-1
 300 419 l 1,33,34
 359 419 359 419 414 423 c 128,-1,35
 469 427 469 427 519 434 c 1,36,37
 519 434 519 434 518.5 411 c 128,-1,38
 518 388 518 388 517.5 354 c 128,-1,39
 517 320 517 320 516 286.5 c 128,-1,40
 515 253 515 253 514.5 230 c 128,-1,41
 514 207 514 207 514 207 c 2,42,43
 515 173 515 173 517.5 142.5 c 128,-1,44
 520 112 520 112 524 58 c 1,45,-1
 599 37 l 1,46,-1
 580 0 l 1,47,48
 554 2 554 2 531.5 2 c 128,-1,49
 509 2 509 2 474 2 c 0,50,51
 459 2 459 2 435 1 c 128,-1,52
 411 0 411 0 397 0 c 1,27,28
EndSplineSet
Validated: 1048581
EndChar

StartChar: v
Encoding: 86 118 100
Width: 579
Flags: W
LayerCount: 2
Fore
SplineSet
286 419 m 1,0,-1
 303 381 l 1,1,-1
 227 359 l 1,2,3
 243 322 243 322 254 295.5 c 128,-1,4
 265 269 265 269 276.5 244.5 c 128,-1,5
 288 220 288 220 303.5 190.5 c 128,-1,6
 319 161 319 161 343 118 c 0,7,8
 345 108 345 108 336 87.5 c 128,-1,9
 327 67 327 67 313.5 44.5 c 128,-1,10
 300 22 300 22 286.5 6.5 c 128,-1,11
 273 -9 273 -9 265 -9 c 1,12,13
 238 46 238 46 215.5 91 c 128,-1,14
 193 136 193 136 172.5 177 c 128,-1,15
 152 218 152 218 129 262 c 128,-1,16
 106 306 106 306 77 359 c 1,17,-1
 10 381 l 1,18,-1
 20 419 l 1,19,20
 50 418 50 418 78.5 417 c 128,-1,21
 107 416 107 416 145 416 c 0,22,23
 187 416 187 416 223 417 c 128,-1,24
 259 418 259 418 286 419 c 1,0,-1
563 419 m 1,25,-1
 579 381 l 1,26,-1
 504 359 l 1,27,28
 466 288 466 288 439.5 229.5 c 128,-1,29
 413 171 413 171 389 114 c 128,-1,30
 365 57 365 57 336 -9 c 1,31,-1
 265 -9 l 1,32,33
 307 77 307 77 345.5 165.5 c 128,-1,34
 384 254 384 254 415 359 c 1,35,-1
 338 381 l 1,36,-1
 353 419 l 1,37,38
 385 418 385 418 409.5 417 c 128,-1,39
 434 416 434 416 460 416 c 0,40,41
 494 416 494 416 515 417 c 128,-1,42
 536 418 536 418 563 419 c 1,25,-1
EndSplineSet
Validated: 37
EndChar

StartChar: w
Encoding: 87 119 101
Width: 794
GlyphClass: 2
Flags: W
AnchorPoint: "Anchor-5" 405 434 basechar 0
LayerCount: 2
Fore
SplineSet
292 419 m 1,0,-1
 307 381 l 1,1,-1
 236 360 l 1,2,3
 248 323 248 323 257.5 294.5 c 128,-1,4
 267 266 267 266 277 240.5 c 128,-1,5
 287 215 287 215 299 185.5 c 128,-1,6
 311 156 311 156 329 117 c 1,7,8
 329 107 329 107 319 86.5 c 128,-1,9
 309 66 309 66 295 44 c 128,-1,10
 281 22 281 22 267.5 6.5 c 128,-1,11
 254 -9 254 -9 246 -9 c 1,12,13
 217 65 217 65 192 124.5 c 128,-1,14
 167 184 167 184 141.5 240.5 c 128,-1,15
 116 297 116 297 86 360 c 1,16,-1
 10 381 l 1,17,-1
 26 419 l 1,18,19
 56 418 56 418 86 417 c 128,-1,20
 116 416 116 416 150 416 c 0,21,22
 238 416 238 416 292 419 c 1,0,-1
391 424 m 1,23,-1
 445 423 l 1,24,-1
 436 317 l 1,25,26
 401 238 401 238 368 154.5 c 128,-1,27
 335 71 335 71 305 -9 c 1,28,-1
 246 -9 l 1,29,30
 267 38 267 38 288 94.5 c 128,-1,31
 309 151 309 151 328.5 210 c 128,-1,32
 348 269 348 269 364.5 324 c 128,-1,33
 381 379 381 379 391 424 c 1,23,-1
445 423 m 1,34,35
 471 354 471 354 491 302.5 c 128,-1,36
 511 251 511 251 530.5 203.5 c 128,-1,37
 550 156 550 156 574 98 c 0,38,39
 574 88 574 88 564 70 c 128,-1,40
 554 52 554 52 539 34 c 128,-1,41
 524 16 524 16 509.5 3.5 c 128,-1,42
 495 -9 495 -9 486 -9 c 1,43,44
 463 53 463 53 445.5 99 c 128,-1,45
 428 145 428 145 410 186 c 128,-1,46
 392 227 392 227 366 275 c 1,47,-1
 445 423 l 1,34,35
767 419 m 1,48,-1
 784 381 l 1,49,-1
 702 360 l 1,50,51
 672 293 672 293 645.5 233.5 c 128,-1,52
 619 174 619 174 594.5 115.5 c 128,-1,53
 570 57 570 57 544 -9 c 1,54,-1
 486 -9 l 1,55,56
 521 71 521 71 557 166 c 128,-1,57
 593 261 593 261 615 360 c 1,58,-1
 535 381 l 1,59,-1
 550 419 l 1,60,61
 612 416 612 416 663 416 c 0,62,63
 697 416 697 416 718.5 417 c 128,-1,64
 740 418 740 418 767 419 c 1,48,-1
EndSplineSet
Validated: 1048581
EndChar

StartChar: x
Encoding: 88 120 102
Width: 530
Flags: W
LayerCount: 2
Fore
SplineSet
258 419 m 1,0,-1
 275 381 l 1,1,-1
 229 362 l 1,2,3
 266 307 266 307 299.5 260 c 128,-1,4
 333 213 333 213 372 165.5 c 128,-1,5
 411 118 411 118 461 60 c 1,6,-1
 530 38 l 1,7,-1
 517 0 l 1,8,9
 487 2 487 2 462 2.5 c 128,-1,10
 437 3 437 3 402 3 c 0,11,12
 353 3 353 3 322 2.5 c 128,-1,13
 291 2 291 2 264 0 c 1,14,-1
 247 38 l 1,15,-1
 300 57 l 1,16,17
 269 96 269 96 243.5 130 c 128,-1,18
 218 164 218 164 193.5 198 c 128,-1,19
 169 232 169 232 140.5 271 c 128,-1,20
 112 310 112 310 76 359 c 1,21,-1
 0 381 l 1,22,-1
 12 419 l 1,23,24
 42 418 42 418 77.5 417 c 128,-1,25
 113 416 113 416 144 416 c 0,26,27
 204 416 204 416 258 419 c 1,0,-1
282 192 m 1,28,29
 248 154 248 154 220.5 116.5 c 128,-1,30
 193 79 193 79 177 60 c 1,31,-1
 239 38 l 1,32,-1
 224 0 l 1,33,34
 193 2 193 2 172 2.5 c 128,-1,35
 151 3 151 3 119 3 c 0,36,37
 85 3 85 3 64 2.5 c 128,-1,38
 43 2 43 2 16 0 c 1,39,-1
 0 38 l 1,40,-1
 87 60 l 1,41,42
 105 78 105 78 131 109.5 c 128,-1,43
 157 141 157 141 186.5 177.5 c 128,-1,44
 216 214 216 214 245 247 c 1,45,-1
 282 192 l 1,28,29
242 227 m 1,46,47
 275 265 275 265 302.5 303.5 c 128,-1,48
 330 342 330 342 345 359 c 1,49,-1
 283 381 l 1,50,-1
 298 419 l 1,51,52
 323 418 323 418 341.5 417 c 128,-1,53
 360 416 360 416 390 416 c 0,54,55
 424 416 424 416 445 417 c 128,-1,56
 466 418 466 418 493 419 c 1,57,-1
 509 381 l 1,58,-1
 433 359 l 1,59,60
 413 336 413 336 387 303.5 c 128,-1,61
 361 271 361 271 333.5 237 c 128,-1,62
 306 203 306 203 279 172 c 1,63,-1
 242 227 l 1,46,47
EndSplineSet
Validated: 5
EndChar

StartChar: y
Encoding: 89 121 103
Width: 586
GlyphClass: 2
Flags: W
AnchorPoint: "Anchor-5" 318 430 basechar 0
LayerCount: 2
Fore
SplineSet
571 421 m 1,0,-1
 586 383 l 1,1,-1
 509 364 l 1,2,3
 442 219 442 219 378.5 80.5 c 128,-1,4
 315 -58 315 -58 275 -190 c 1,5,-1
 367 -221 l 1,6,-1
 351 -260 l 1,7,8
 327 -258 327 -258 292 -257 c 128,-1,9
 257 -256 257 -256 221 -256 c 0,10,11
 197 -256 197 -256 166.5 -256.5 c 128,-1,12
 136 -257 136 -257 109 -258 c 128,-1,13
 82 -259 82 -259 66 -260 c 1,14,-1
 50 -220 l 1,15,-1
 167 -188 l 1,16,17
 195 -148 195 -148 229.5 -84 c 128,-1,18
 264 -20 264 -20 300 56.5 c 128,-1,19
 336 133 336 133 367.5 212.5 c 128,-1,20
 399 292 399 292 421 364 c 1,21,-1
 343 383 l 1,22,-1
 357 421 l 1,23,24
 388 420 388 420 412.5 419.5 c 128,-1,25
 437 419 437 419 463 419 c 0,26,27
 490 419 490 419 517 419.5 c 128,-1,28
 544 420 544 420 571 421 c 1,0,-1
284 420 m 1,29,-1
 302 382 l 1,30,-1
 230 362 l 1,31,32
 242 325 242 325 252 297 c 128,-1,33
 262 269 262 269 272.5 243.5 c 128,-1,34
 283 218 283 218 297.5 187 c 128,-1,35
 312 156 312 156 333 113 c 0,36,37
 335 103 335 103 328 79.5 c 128,-1,38
 321 56 321 56 309.5 30.5 c 128,-1,39
 298 5 298 5 285.5 -13 c 128,-1,40
 273 -31 273 -31 265 -31 c 1,41,42
 237 31 237 31 214 80 c 128,-1,43
 191 129 191 129 170 173.5 c 128,-1,44
 149 218 149 218 126 263 c 128,-1,45
 103 308 103 308 76 362 c 1,46,-1
 0 382 l 1,47,-1
 14 420 l 1,48,49
 44 419 44 419 74.5 418 c 128,-1,50
 105 417 105 417 144 417 c 0,51,52
 186 417 186 417 222 418 c 128,-1,53
 258 419 258 419 284 420 c 1,29,-1
EndSplineSet
Validated: 1048613
EndChar

StartChar: z
Encoding: 90 122 104
Width: 420
GlyphClass: 2
Flags: W
AnchorPoint: "Anchor-5" 217 430 basechar 0
LayerCount: 2
Fore
SplineSet
39 0 m 1,0,1
 30 8 30 8 24.5 17.5 c 128,-1,2
 19 27 19 27 16 37 c 1,3,4
 59 94 59 94 100.5 154.5 c 128,-1,5
 142 215 142 215 177.5 269.5 c 128,-1,6
 213 324 213 324 236 360 c 1,7,8
 231 361 231 361 225 361 c 128,-1,9
 219 361 219 361 213 361 c 0,10,11
 187 361 187 361 158.5 357.5 c 128,-1,12
 130 354 130 354 116 348 c 1,13,14
 99 318 99 318 82 272 c 1,15,-1
 27 272 l 1,16,17
 31 308 31 308 33.5 350.5 c 128,-1,18
 36 393 36 393 36 420 c 1,19,20
 71 418 71 418 100 417.5 c 128,-1,21
 129 417 129 417 157 417 c 2,22,-1
 217 417 l 2,23,24
 254 417 254 417 293.5 418 c 128,-1,25
 333 419 333 419 380 420 c 1,26,27
 386 413 386 413 392.5 401.5 c 128,-1,28
 399 390 399 390 402 382 c 1,29,30
 376 348 376 348 343 300.5 c 128,-1,31
 310 253 310 253 278.5 204.5 c 128,-1,32
 247 156 247 156 223.5 116.5 c 128,-1,33
 200 77 200 77 192 58 c 1,34,35
 197 57 197 57 203 56.5 c 128,-1,36
 209 56 209 56 216 56 c 0,37,38
 236 56 236 56 262 60.5 c 128,-1,39
 288 65 288 65 310 75 c 1,40,41
 324 92 324 92 334.5 111 c 128,-1,42
 345 130 345 130 356 152 c 1,43,-1
 410 139 l 1,44,45
 403 108 403 108 396 71.5 c 128,-1,46
 389 35 389 35 385 0 c 1,47,48
 350 2 350 2 301.5 2 c 128,-1,49
 253 2 253 2 203 2 c 0,50,51
 154 2 154 2 110 2 c 128,-1,52
 66 2 66 2 39 0 c 1,0,1
EndSplineSet
Validated: 1048577
EndChar

StartChar: braceleft
Encoding: 91 123 105
Width: 265
Flags: W
LayerCount: 2
Fore
SplineSet
20 381 m 1,0,1
 45 389 45 389 61 405 c 128,-1,2
 77 421 77 421 77 446 c 0,3,4
 77 492 77 492 68 528.5 c 128,-1,5
 59 565 59 565 49.5 596 c 128,-1,6
 40 627 40 627 40 654 c 0,7,8
 40 693 40 693 76.5 730 c 128,-1,9
 113 767 113 767 208 813 c 1,10,11
 220 799 220 799 230 778 c 1,12,13
 198 759 198 759 185.5 737.5 c 128,-1,14
 173 716 173 716 173 692 c 0,15,16
 173 665 173 665 182.5 635 c 128,-1,17
 192 605 192 605 201.5 571.5 c 128,-1,18
 211 538 211 538 211 500 c 0,19,20
 211 469 211 469 190 444.5 c 128,-1,21
 169 420 169 420 142 402 c 128,-1,22
 115 384 115 384 96 369 c 1,23,24
 115 355 115 355 142 336.5 c 128,-1,25
 169 318 169 318 190 294 c 128,-1,26
 211 270 211 270 211 238 c 0,27,28
 211 201 211 201 201.5 167 c 128,-1,29
 192 133 192 133 182.5 103 c 128,-1,30
 173 73 173 73 173 46 c 0,31,32
 173 22 173 22 185.5 1 c 128,-1,33
 198 -20 198 -20 230 -40 c 1,34,35
 220 -61 220 -61 208 -75 c 1,36,37
 113 -28 113 -28 76.5 8.5 c 128,-1,38
 40 45 40 45 40 84 c 0,39,40
 40 112 40 112 49.5 142.5 c 128,-1,41
 59 173 59 173 68 209.5 c 128,-1,42
 77 246 77 246 77 292 c 0,43,44
 77 317 77 317 61 333 c 128,-1,45
 45 349 45 349 20 357 c 1,46,-1
 20 381 l 1,0,1
EndSplineSet
Validated: 1
EndChar

StartChar: bar
Encoding: 92 124 107
Width: 261
Flags: W
LayerCount: 2
Fore
SplineSet
186 763 m 1,0,1
 182 651 182 651 181 538.5 c 128,-1,2
 180 426 180 426 180 313 c 256,3,4
 180 200 180 200 182.5 87.5 c 128,-1,5
 185 -25 185 -25 186 -138 c 1,6,-1
 75 -138 l 1,7,8
 77 -25 77 -25 79 87.5 c 128,-1,9
 81 200 81 200 81 313 c 256,10,11
 81 426 81 426 80.5 538.5 c 128,-1,12
 80 651 80 651 75 763 c 1,13,-1
 186 763 l 1,0,1
EndSplineSet
Validated: 1
EndChar

StartChar: asciitilde
Encoding: 94 126 108
AltUni2: 00223d.ffffffff.0
Width: 620
Flags: W
LayerCount: 2
Fore
SplineSet
421 390 m 0,0,1
 381 390 381 390 349 375.5 c 128,-1,2
 317 361 317 361 288.5 342.5 c 128,-1,3
 260 324 260 324 229.5 309.5 c 128,-1,4
 199 295 199 295 162 295 c 1,5,6
 147 300 147 300 127 315 c 128,-1,7
 107 330 107 330 88 346.5 c 128,-1,8
 69 363 69 363 56 375 c 1,9,-1
 24 355 l 1,10,11
 45 325 45 325 72.5 290 c 128,-1,12
 100 255 100 255 133.5 230.5 c 128,-1,13
 167 206 167 206 205 206 c 0,14,15
 245 206 245 206 275.5 219 c 128,-1,16
 306 232 306 232 331.5 248.5 c 128,-1,17
 357 265 357 265 383.5 278 c 128,-1,18
 410 291 410 291 443 291 c 1,19,20
 472 283 472 283 508.5 262 c 128,-1,21
 545 241 545 241 567 221 c 1,22,-1
 595 241 l 1,23,24
 571 281 571 281 542 315 c 128,-1,25
 513 349 513 349 482.5 369.5 c 128,-1,26
 452 390 452 390 421 390 c 0,0,1
EndSplineSet
Validated: 9
Substitution2: "display latin glyph lookup 0" asciitilde.latn
EndChar

StartChar: cent
Encoding: 97 162 112
Width: 433
Flags: W
LayerCount: 2
Fore
SplineSet
275 -90 m 1,0,-1
 212 -90 l 1,1,2
 215 -1 215 -1 216 71 c 128,-1,3
 217 143 217 143 217 210.5 c 128,-1,4
 217 278 217 278 216 350 c 128,-1,5
 215 422 215 422 212 511 c 1,6,-1
 275 511 l 1,7,8
 272 422 272 422 271 350 c 128,-1,9
 270 278 270 278 270 210.5 c 128,-1,10
 270 143 270 143 271 71 c 128,-1,11
 272 -1 272 -1 275 -90 c 1,0,-1
425 69 m 1,12,13
 391 38 391 38 344.5 16 c 128,-1,14
 298 -6 298 -6 238 -6 c 0,15,16
 166 -6 166 -6 117.5 26 c 128,-1,17
 69 58 69 58 45 108 c 128,-1,18
 21 158 21 158 21 213 c 0,19,20
 21 269 21 269 46 320 c 128,-1,21
 71 371 71 371 121.5 403.5 c 128,-1,22
 172 436 172 436 250 436 c 0,23,24
 292 436 292 436 332.5 426.5 c 128,-1,25
 373 417 373 417 410 394 c 1,26,27
 396 342 396 342 390 308.5 c 128,-1,28
 384 275 384 275 378 245 c 1,29,-1
 328 245 l 1,30,-1
 313 336 l 1,31,32
 288 357 288 357 256 369 c 128,-1,33
 224 381 224 381 192 379 c 1,34,35
 171 354 171 354 159.5 320 c 128,-1,36
 148 286 148 286 148 250 c 0,37,38
 148 196 148 196 167 157 c 128,-1,39
 186 118 186 118 217.5 96.5 c 128,-1,40
 249 75 249 75 286 75 c 0,41,42
 311 75 311 75 339.5 85.5 c 128,-1,43
 368 96 368 96 398 118 c 1,44,-1
 425 69 l 1,12,13
EndSplineSet
Validated: 37
EndChar

StartChar: sterling
Encoding: 98 163 113
Width: 639
Flags: W
LayerCount: 2
Fore
SplineSet
589 0 m 1,0,-1
 84 0 l 1,1,-1
 71 38 l 1,2,-1
 160 60 l 1,3,4
 182 80 182 80 192 108.5 c 128,-1,5
 202 137 202 137 202 171 c 0,6,7
 202 203 202 203 191.5 238.5 c 128,-1,8
 181 274 181 274 166.5 311.5 c 128,-1,9
 152 349 152 349 141.5 387.5 c 128,-1,10
 131 426 131 426 131 464 c 0,11,12
 131 530 131 530 163 576.5 c 128,-1,13
 195 623 195 623 248 647 c 128,-1,14
 301 671 301 671 364 671 c 0,15,16
 411 671 411 671 459.5 660.5 c 128,-1,17
 508 650 508 650 552 615 c 1,18,19
 550 578 550 578 540 541 c 128,-1,20
 530 504 530 504 513 478 c 1,21,-1
 459 478 l 1,22,23
 443 545 443 545 404.5 580 c 128,-1,24
 366 615 366 615 299 619 c 1,25,26
 283 591 283 591 276.5 565 c 128,-1,27
 270 539 270 539 270 513 c 0,28,29
 270 473 270 473 281 434.5 c 128,-1,30
 292 396 292 396 306.5 357 c 128,-1,31
 321 318 321 318 332 278 c 128,-1,32
 343 238 343 238 343 194 c 0,33,34
 343 154 343 154 311 123.5 c 128,-1,35
 279 93 279 93 239 74 c 1,36,37
 264 71 264 71 296.5 67.5 c 128,-1,38
 329 64 329 64 363 64 c 0,39,40
 399 64 399 64 433 69.5 c 128,-1,41
 467 75 467 75 492 89 c 1,42,-1
 516 210 l 1,43,-1
 580 210 l 1,44,45
 582 105 582 105 589 0 c 1,0,-1
53 303 m 1,46,-1
 53 366 l 1,47,48
 111 364 111 364 157.5 362.5 c 128,-1,49
 204 361 204 361 249 361 c 0,50,51
 293 361 293 361 340 362.5 c 128,-1,52
 387 364 387 364 444 366 c 1,53,-1
 444 303 l 1,54,55
 387 306 387 306 340 307 c 128,-1,56
 293 308 293 308 249 308 c 0,57,58
 204 308 204 308 157.5 307 c 128,-1,59
 111 306 111 306 53 303 c 1,46,-1
EndSplineSet
Validated: 5
EndChar

StartChar: currency
Encoding: 99 164 114
Width: 521
GlyphClass: 2
Flags: W
AnchorPoint: "Anchor-5" 260 551 basechar 0
LayerCount: 2
Fore
SplineSet
260 162 m 0,0,1
 205 162 205 162 168 185.5 c 128,-1,2
 131 209 131 209 112.5 245.5 c 128,-1,3
 94 282 94 282 94 322 c 256,4,5
 94 362 94 362 112.5 398.5 c 128,-1,6
 131 435 131 435 168.5 458 c 128,-1,7
 206 481 206 481 262 481 c 0,8,9
 316 481 316 481 351.5 458 c 128,-1,10
 387 435 387 435 404.5 399 c 128,-1,11
 422 363 422 363 422 323 c 256,12,13
 422 283 422 283 404 246 c 128,-1,14
 386 209 386 209 350 185.5 c 128,-1,15
 314 162 314 162 260 162 c 0,0,1
259 237 m 0,16,17
 302 237 302 237 323.5 263.5 c 128,-1,18
 345 290 345 290 345 321 c 0,19,20
 345 353 345 353 322.5 379.5 c 128,-1,21
 300 406 300 406 256 406 c 0,22,23
 213 406 213 406 191.5 380.5 c 128,-1,24
 170 355 170 355 170 323 c 256,25,26
 170 291 170 291 192.5 264 c 128,-1,27
 215 237 215 237 259 237 c 0,16,17
412 531 m 1,28,29
 426 515 426 515 440.5 500 c 128,-1,30
 455 485 455 485 471 471 c 1,31,32
 432 440 432 440 399 400 c 1,33,-1
 341 457 l 1,34,35
 360 475 360 475 377.5 493 c 128,-1,36
 395 511 395 511 412 531 c 1,28,29
50 169 m 1,37,38
 70 186 70 186 88 204 c 128,-1,39
 106 222 106 222 124 241 c 1,40,-1
 181 182 l 1,41,42
 141 149 141 149 110 110 c 1,43,44
 96 127 96 127 81.5 141.5 c 128,-1,45
 67 156 67 156 50 169 c 1,37,38
471 169 m 1,46,47
 455 156 455 156 440.5 141.5 c 128,-1,48
 426 127 426 127 412 110 c 1,49,50
 396 130 396 130 378.5 148 c 128,-1,51
 361 166 361 166 341 182 c 1,52,-1
 399 241 l 1,53,54
 431 203 431 203 471 169 c 1,46,47
110 531 m 1,55,56
 127 511 127 511 144.5 493 c 128,-1,57
 162 475 162 475 181 457 c 1,58,-1
 124 400 l 1,59,60
 107 420 107 420 89 437.5 c 128,-1,61
 71 455 71 455 50 471 c 1,62,63
 82 499 82 499 110 531 c 1,55,56
EndSplineSet
Validated: 1048581
EndChar

StartChar: yen
Encoding: 100 165 115
Width: 600
Flags: W
LayerCount: 2
Fore
SplineSet
554 256 m 1,0,-1
 554 193 l 1,1,2
 478 197 478 197 411 198 c 128,-1,3
 344 199 344 199 277 198 c 128,-1,4
 210 197 210 197 133 193 c 1,5,-1
 133 256 l 1,6,7
 210 253 210 253 277 251.5 c 128,-1,8
 344 250 344 250 411 251.5 c 128,-1,9
 478 253 478 253 554 256 c 1,0,-1
554 346 m 1,10,-1
 554 283 l 1,11,12
 478 287 478 287 411 288 c 128,-1,13
 344 289 344 289 277 288 c 128,-1,14
 210 287 210 287 133 283 c 1,15,-1
 133 346 l 1,16,17
 210 343 210 343 277 341.5 c 128,-1,18
 344 340 344 340 411 341.5 c 128,-1,19
 478 343 478 343 554 346 c 1,10,-1
313 660 m 1,20,-1
 328 621 l 1,21,-1
 262 605 l 1,22,23
 277 572 277 572 298.5 520.5 c 128,-1,24
 320 469 320 469 349 409 c 128,-1,25
 378 349 378 349 413 287 c 1,26,-1
 292 198 l 1,27,28
 270 247 270 247 244.5 302 c 128,-1,29
 219 357 219 357 193.5 412.5 c 128,-1,30
 168 468 168 468 143 517 c 128,-1,31
 118 566 118 566 97 603 c 1,32,-1
 20 621 l 1,33,-1
 33 660 l 1,34,35
 64 659 64 659 94 658 c 128,-1,36
 124 657 124 657 163 657 c 0,37,38
 216 657 216 657 251 658 c 128,-1,39
 286 659 286 659 313 660 c 1,20,-1
413 297 m 1,40,41
 412 244 412 244 411.5 204.5 c 128,-1,42
 411 165 411 165 412 131 c 128,-1,43
 413 97 413 97 414 59 c 1,44,-1
 515 38 l 1,45,-1
 502 0 l 1,46,47
 476 2 476 2 437 2.5 c 128,-1,48
 398 3 398 3 339 3 c 0,49,50
 278 3 278 3 245 2 c 128,-1,51
 212 1 212 1 182 0 c 1,52,-1
 169 38 l 1,53,-1
 271 59 l 1,54,55
 273 98 273 98 273.5 129 c 128,-1,56
 274 160 274 160 273.5 194 c 128,-1,57
 273 228 273 228 271 275 c 1,58,-1
 413 297 l 1,40,41
636 660 m 1,59,-1
 651 621 l 1,60,-1
 571 600 l 1,61,62
 552 568 552 568 528 520 c 128,-1,63
 504 472 504 472 478 417 c 128,-1,64
 452 362 452 362 428 307 c 128,-1,65
 404 252 404 252 386 205 c 1,66,-1
 346 279 l 1,67,68
 364 312 364 312 383 354.5 c 128,-1,69
 402 397 402 397 419.5 442.5 c 128,-1,70
 437 488 437 488 451.5 529.5 c 128,-1,71
 466 571 466 571 476 602 c 1,72,-1
 393 621 l 1,73,-1
 407 660 l 1,74,75
 438 659 438 659 464 658 c 128,-1,76
 490 657 490 657 524 657 c 256,77,78
 558 657 558 657 584 658 c 128,-1,79
 610 659 610 659 636 660 c 1,59,-1
EndSplineSet
Validated: 37
EndChar

StartChar: brokenbar
Encoding: 101 166 116
Width: 413
Flags: W
LayerCount: 2
Fore
SplineSet
248 430 m 1,0,-1
 165 430 l 1,1,2
 169 586 169 586 165 741 c 1,3,-1
 248 741 l 1,4,5
 244 586 244 586 248 430 c 1,0,-1
248 -100 m 1,6,-1
 165 -100 l 1,7,8
 169 56 169 56 165 211 c 1,9,-1
 248 211 l 1,10,11
 244 56 244 56 248 -100 c 1,6,-1
EndSplineSet
Validated: 33
EndChar

StartChar: section
Encoding: 102 167 117
Width: 557
Flags: W
LayerCount: 2
Fore
SplineSet
249 310 m 1,0,1
 221 304 221 304 200.5 284 c 128,-1,2
 180 264 180 264 180 232 c 256,3,4
 180 200 180 200 203.5 178.5 c 128,-1,5
 227 157 227 157 263.5 140.5 c 128,-1,6
 300 124 300 124 341 106 c 128,-1,7
 382 88 382 88 418.5 64 c 128,-1,8
 455 40 455 40 478.5 4 c 128,-1,9
 502 -32 502 -32 502 -85 c 0,10,11
 502 -147 502 -147 467 -186.5 c 128,-1,12
 432 -226 432 -226 376 -244.5 c 128,-1,13
 320 -263 320 -263 257 -263 c 0,14,15
 208 -263 208 -263 153 -248.5 c 128,-1,16
 98 -234 98 -234 57 -208 c 1,17,18
 68 -165 68 -165 75 -131.5 c 128,-1,19
 82 -98 82 -98 89 -51 c 1,20,-1
 151 -51 l 1,21,-1
 164 -175 l 1,22,23
 198 -198 198 -198 233 -204.5 c 128,-1,24
 268 -211 268 -211 297.5 -201.5 c 128,-1,25
 327 -192 327 -192 345.5 -169 c 128,-1,26
 364 -146 364 -146 364 -111 c 256,27,28
 364 -76 364 -76 341.5 -54.5 c 128,-1,29
 319 -33 319 -33 284 -18.5 c 128,-1,30
 249 -4 249 -4 209.5 11 c 128,-1,31
 170 26 170 26 135 47.5 c 128,-1,32
 100 69 100 69 77.5 103.5 c 128,-1,33
 55 138 55 138 55 192 c 0,34,35
 55 269 55 269 105.5 312 c 128,-1,36
 156 355 156 355 230 365 c 1,37,-1
 249 310 l 1,0,1
285 69 m 1,38,39
 318 76 318 76 341 98 c 128,-1,40
 364 120 364 120 364 162 c 0,41,42
 364 202 364 202 341.5 227 c 128,-1,43
 319 252 319 252 284 269 c 128,-1,44
 249 286 249 286 209.5 302 c 128,-1,45
 170 318 170 318 135 340 c 128,-1,46
 100 362 100 362 77.5 396.5 c 128,-1,47
 55 431 55 431 55 485 c 0,48,49
 55 544 55 544 86 583 c 128,-1,50
 117 622 117 622 168 641.5 c 128,-1,51
 219 661 219 661 279 661 c 0,52,53
 331 661 331 661 385 649 c 128,-1,54
 439 637 439 637 479 617 c 1,55,56
 469 571 469 571 461.5 536 c 128,-1,57
 454 501 454 501 446 464 c 1,58,-1
 385 464 l 1,59,-1
 376 567 l 1,60,61
 363 586 363 586 335 596 c 128,-1,62
 307 606 307 606 276 606 c 0,63,64
 239 606 239 606 209.5 585.5 c 128,-1,65
 180 565 180 565 180 525 c 0,66,67
 180 493 180 493 203.5 471.5 c 128,-1,68
 227 450 227 450 263.5 432.5 c 128,-1,69
 300 415 300 415 341 396 c 128,-1,70
 382 377 382 377 418.5 351 c 128,-1,71
 455 325 455 325 478.5 285.5 c 128,-1,72
 502 246 502 246 502 188 c 0,73,74
 502 136 502 136 477 99.5 c 128,-1,75
 452 63 452 63 410 42.5 c 128,-1,76
 368 22 368 22 317 14 c 1,77,-1
 285 69 l 1,38,39
EndSplineSet
Validated: 37
EndChar

StartChar: copyright
Encoding: 104 169 118
Width: 786
GlyphClass: 2
Flags: W
AnchorPoint: "Anchor-6" 393 121 basechar 0
AnchorPoint: "Anchor-5" 393 529 basechar 0
LayerCount: 2
Fore
SplineSet
395 15 m 0,0,1
 457 15 457 15 512.5 39.5 c 128,-1,2
 568 64 568 64 610.5 107 c 128,-1,3
 653 150 653 150 677.5 206.5 c 128,-1,4
 702 263 702 263 702 327 c 0,5,6
 702 389 702 389 677.5 444.5 c 128,-1,7
 653 500 653 500 610.5 542.5 c 128,-1,8
 568 585 568 585 512.5 609.5 c 128,-1,9
 457 634 457 634 395 634 c 0,10,11
 331 634 331 634 274.5 609.5 c 128,-1,12
 218 585 218 585 175 542.5 c 128,-1,13
 132 500 132 500 107.5 444.5 c 128,-1,14
 83 389 83 389 83 327 c 0,15,16
 83 263 83 263 108 206.5 c 128,-1,17
 133 150 133 150 176.5 107 c 128,-1,18
 220 64 220 64 276 39.5 c 128,-1,19
 332 15 332 15 395 15 c 0,0,1
394 -33 m 0,20,21
 319 -33 319 -33 254 -5 c 128,-1,22
 189 23 189 23 140 72 c 128,-1,23
 91 121 91 121 63 186 c 128,-1,24
 35 251 35 251 35 326 c 0,25,26
 35 400 35 400 63 464.5 c 128,-1,27
 91 529 91 529 140 578 c 128,-1,28
 189 627 189 627 254 655 c 128,-1,29
 319 683 319 683 394 683 c 0,30,31
 468 683 468 683 532.5 655 c 128,-1,32
 597 627 597 627 646 578 c 128,-1,33
 695 529 695 529 723 464.5 c 128,-1,34
 751 400 751 400 751 326 c 0,35,36
 751 251 751 251 723 186 c 128,-1,37
 695 121 695 121 646 72 c 128,-1,38
 597 23 597 23 532.5 -5 c 128,-1,39
 468 -33 468 -33 394 -33 c 0,20,21
521 227 m 1,40,-1
 549 191 l 1,41,42
 513 155 513 155 475.5 136 c 128,-1,43
 438 117 438 117 388 117 c 0,44,45
 319 117 319 117 272.5 147.5 c 128,-1,46
 226 178 226 178 202.5 226.5 c 128,-1,47
 179 275 179 275 179 327 c 0,48,49
 179 384 179 384 202.5 433 c 128,-1,50
 226 482 226 482 272 512.5 c 128,-1,51
 318 543 318 543 383 543 c 0,52,53
 435 543 435 543 473 532 c 128,-1,54
 511 521 511 521 547 501 c 1,55,56
 537 457 537 457 532 432.5 c 128,-1,57
 527 408 527 408 522 378 c 1,58,-1
 481 378 l 1,59,-1
 468 451 l 1,60,61
 442 472 442 472 409 485 c 128,-1,62
 376 498 376 498 345 498 c 1,63,64
 320 469 320 469 307.5 433.5 c 128,-1,65
 295 398 295 398 295 339 c 0,66,67
 295 261 295 261 323.5 216 c 128,-1,68
 352 171 352 171 404 171 c 0,69,70
 440 171 440 171 465.5 185 c 128,-1,71
 491 199 491 199 521 227 c 1,40,-1
EndSplineSet
Validated: 1048577
EndChar

StartChar: registered
Encoding: 109 174 119
Width: 786
GlyphClass: 2
Flags: W
AnchorPoint: "Anchor-6" 450 139 basechar 0
AnchorPoint: "Anchor-5" 405 522 basechar 0
LayerCount: 2
Fore
SplineSet
395 15 m 0,0,1
 457 15 457 15 512.5 39.5 c 128,-1,2
 568 64 568 64 610.5 107 c 128,-1,3
 653 150 653 150 677.5 206.5 c 128,-1,4
 702 263 702 263 702 327 c 0,5,6
 702 389 702 389 677.5 444.5 c 128,-1,7
 653 500 653 500 610.5 542.5 c 128,-1,8
 568 585 568 585 512.5 609.5 c 128,-1,9
 457 634 457 634 395 634 c 0,10,11
 331 634 331 634 274.5 609.5 c 128,-1,12
 218 585 218 585 175 542.5 c 128,-1,13
 132 500 132 500 107.5 444.5 c 128,-1,14
 83 389 83 389 83 327 c 0,15,16
 83 263 83 263 108 206.5 c 128,-1,17
 133 150 133 150 176.5 107 c 128,-1,18
 220 64 220 64 276 39.5 c 128,-1,19
 332 15 332 15 395 15 c 0,0,1
394 -33 m 0,20,21
 319 -33 319 -33 254 -5 c 128,-1,22
 189 23 189 23 140 72 c 128,-1,23
 91 121 91 121 63 186 c 128,-1,24
 35 251 35 251 35 326 c 0,25,26
 35 400 35 400 63 464.5 c 128,-1,27
 91 529 91 529 140 578 c 128,-1,28
 189 627 189 627 254 655 c 128,-1,29
 319 683 319 683 394 683 c 0,30,31
 468 683 468 683 532.5 655 c 128,-1,32
 597 627 597 627 646 578 c 128,-1,33
 695 529 695 529 723 464.5 c 128,-1,34
 751 400 751 400 751 326 c 0,35,36
 751 251 751 251 723 186 c 128,-1,37
 695 121 695 121 646 72 c 128,-1,38
 597 23 597 23 532.5 -5 c 128,-1,39
 468 -33 468 -33 394 -33 c 0,20,21
209 139 m 1,40,-1
 199 168 l 1,41,-1
 258 183 l 1,42,43
 260 221 260 221 260.5 257.5 c 128,-1,44
 261 294 261 294 261 336 c 0,45,46
 261 373 261 373 260.5 407.5 c 128,-1,47
 260 442 260 442 258 482 c 1,48,-1
 199 498 l 1,49,-1
 206 528 l 1,50,51
 231 525 231 525 251 524.5 c 128,-1,52
 271 524 271 524 313 524 c 0,53,54
 344 524 344 524 362.5 525 c 128,-1,55
 381 526 381 526 396.5 527 c 128,-1,56
 412 528 412 528 432 528 c 0,57,58
 498 528 498 528 530.5 494 c 128,-1,59
 563 460 563 460 563 419 c 0,60,61
 563 389 563 389 546 360 c 128,-1,62
 529 331 529 331 496 312.5 c 128,-1,63
 463 294 463 294 414 294 c 0,64,65
 397 294 397 294 388 294.5 c 128,-1,66
 379 295 379 295 371 296.5 c 128,-1,67
 363 298 363 298 348 300 c 1,68,-1
 348 344 l 1,69,70
 368 340 368 340 379.5 337.5 c 128,-1,71
 391 335 391 335 400 335 c 0,72,73
 405 335 405 335 410.5 335 c 128,-1,74
 416 335 416 335 420 336 c 0,75,76
 439 347 439 347 448 367.5 c 128,-1,77
 457 388 457 388 457 411 c 0,78,79
 457 440 457 440 443 463 c 128,-1,80
 429 486 429 486 402 486 c 0,81,82
 392 486 392 486 382 483.5 c 128,-1,83
 372 481 372 481 362 477 c 1,84,85
 361 441 361 441 360.5 405.5 c 128,-1,86
 360 370 360 370 360 330 c 256,87,88
 360 290 360 290 360.5 254 c 128,-1,89
 361 218 361 218 362 183 c 1,90,-1
 421 168 l 1,91,-1
 410 139 l 1,92,93
 391 140 391 140 372.5 140.5 c 128,-1,94
 354 141 354 141 314 141 c 0,95,96
 276 141 276 141 254 140.5 c 128,-1,97
 232 140 232 140 209 139 c 1,40,-1
464 139 m 1,98,99
 436 195 436 195 413 235.5 c 128,-1,100
 390 276 390 276 366 313 c 1,101,102
 378 313 378 313 399 316 c 128,-1,103
 420 319 420 319 438.5 321.5 c 128,-1,104
 457 324 457 324 460 324 c 0,105,106
 480 294 480 294 501.5 262 c 128,-1,107
 523 230 523 230 558 183 c 1,108,-1
 618 168 l 1,109,-1
 608 139 l 1,110,111
 595 140 595 140 578 140 c 128,-1,112
 561 140 561 140 541 140 c 0,113,114
 525 140 525 140 503 140 c 128,-1,115
 481 140 481 140 464 139 c 1,98,99
EndSplineSet
Validated: 1048581
EndChar

StartChar: ordfeminine
Encoding: 105 170 120
Width: 372
Flags: W
LayerCount: 2
Fore
SplineSet
25 316 m 1,0,1
 72 315 72 315 127 314.5 c 128,-1,2
 182 314 182 314 236.5 314.5 c 128,-1,3
 291 315 291 315 338 316 c 1,4,-1
 338 274 l 1,5,6
 291 275 291 275 236.5 275.5 c 128,-1,7
 182 276 182 276 127 275.5 c 128,-1,8
 72 275 72 275 25 274 c 1,9,-1
 25 316 l 1,0,1
206 680 m 0,10,11
 245 680 245 680 274.5 655.5 c 128,-1,12
 304 631 304 631 304 582 c 256,13,14
 304 533 304 533 301.5 507 c 128,-1,15
 299 481 299 481 299 454 c 0,16,17
 299 433 299 433 302 424.5 c 128,-1,18
 305 416 305 416 317 416 c 0,19,20
 327 416 327 416 348 426 c 1,21,-1
 362 393 l 1,22,23
 335 374 335 374 310 361.5 c 128,-1,24
 285 349 285 349 257 349 c 0,25,26
 234 349 234 349 217 367.5 c 128,-1,27
 200 386 200 386 200 426 c 0,28,29
 200 462 200 462 203 497.5 c 128,-1,30
 206 533 206 533 206 562 c 0,31,32
 206 609 206 609 177 619 c 1,33,34
 142 617 142 617 110.5 606 c 128,-1,35
 79 595 79 595 47 577 c 1,36,-1
 27 610 l 1,37,38
 70 641 70 641 114 660.5 c 128,-1,39
 158 680 158 680 206 680 c 0,10,11
259 562 m 1,40,-1
 214 500 l 1,41,42
 197 496 197 496 184 492.5 c 128,-1,43
 171 489 171 489 161 487 c 0,44,45
 135 481 135 481 125.5 473 c 128,-1,46
 116 465 116 465 116 446 c 0,47,48
 116 412 116 412 147 412 c 0,49,50
 164 412 164 412 190.5 428.5 c 128,-1,51
 217 445 217 445 236 469 c 1,52,-1
 251 439 l 1,53,54
 239 424 239 424 216.5 402 c 128,-1,55
 194 380 194 380 163.5 363 c 128,-1,56
 133 346 133 346 96 346 c 0,57,58
 68 346 68 346 43.5 368.5 c 128,-1,59
 19 391 19 391 19 437 c 0,60,61
 19 468 19 468 38 486 c 128,-1,62
 57 504 57 504 90 513.5 c 128,-1,63
 123 523 123 523 163 530 c 0,64,65
 190 535 190 535 213 542 c 128,-1,66
 236 549 236 549 259 562 c 1,40,-1
EndSplineSet
Validated: 37
EndChar

StartChar: logicalnot
Encoding: 107 172 122
Width: 571
Flags: W
LayerCount: 2
Fore
SplineSet
536 471 m 1,0,-1
 533 388 l 1,1,2
 458 390 458 390 371 390.5 c 128,-1,3
 284 391 284 391 197 390.5 c 128,-1,4
 110 390 110 390 35 388 c 1,5,-1
 35 471 l 1,6,7
 110 470 110 470 198 469.5 c 128,-1,8
 286 469 286 469 373.5 469.5 c 128,-1,9
 461 470 461 470 536 471 c 1,0,-1
453 465 m 1,10,-1
 536 471 l 1,11,12
 535 415 535 415 534.5 376.5 c 128,-1,13
 534 338 534 338 534 305.5 c 128,-1,14
 534 273 534 273 534.5 234.5 c 128,-1,15
 535 196 535 196 536 140 c 1,16,-1
 453 140 l 1,17,18
 454 196 454 196 454.5 233.5 c 128,-1,19
 455 271 455 271 455 302.5 c 128,-1,20
 455 334 455 334 454.5 371.5 c 128,-1,21
 454 409 454 409 453 465 c 1,10,-1
EndSplineSet
Validated: 37
EndChar

StartChar: degree
Encoding: 111 176 124
Width: 314
GlyphClass: 4
Flags: W
AnchorPoint: "Anchor-8" 120 450 mark 0
AnchorPoint: "Anchor-5" 120 450 mark 0
AnchorPoint: "Anchor-3" 120 450 mark 0
AnchorPoint: "Anchor-1" 120 450 mark 0
LayerCount: 2
Fore
SplineSet
140 487 m 0,0,1
 169 487 169 487 189.5 508 c 128,-1,2
 210 529 210 529 210 558 c 256,3,4
 210 587 210 587 189.5 607.5 c 128,-1,5
 169 628 169 628 140 628 c 256,6,7
 111 628 111 628 90 607.5 c 128,-1,8
 69 587 69 587 69 558 c 256,9,10
 69 529 69 529 90.5 508 c 128,-1,11
 112 487 112 487 140 487 c 0,0,1
140 428 m 256,12,13
 104 428 104 428 74.5 445.5 c 128,-1,14
 45 463 45 463 27.5 492.5 c 128,-1,15
 10 522 10 522 10 558 c 256,16,17
 10 594 10 594 27.5 623 c 128,-1,18
 45 652 45 652 74.5 669.5 c 128,-1,19
 104 687 104 687 140 687 c 256,20,21
 176 687 176 687 205 669.5 c 128,-1,22
 234 652 234 652 251.5 623 c 128,-1,23
 269 594 269 594 269 558 c 256,24,25
 269 522 269 522 251.5 492.5 c 128,-1,26
 234 463 234 463 205 445.5 c 128,-1,27
 176 428 176 428 140 428 c 256,12,13
EndSplineSet
Validated: 1
EndChar

StartChar: plusminus
Encoding: 112 177 125
Width: 571
Flags: W
LayerCount: 2
Fore
SplineSet
536 454 m 1,0,-1
 536 371 l 1,1,2
 461 373 461 373 373.5 373.5 c 128,-1,3
 286 374 286 374 198 373.5 c 128,-1,4
 110 373 110 373 35 371 c 1,5,-1
 35 454 l 1,6,7
 110 453 110 453 198 452.5 c 128,-1,8
 286 452 286 452 373.5 452.5 c 128,-1,9
 461 453 461 453 536 454 c 1,0,-1
327 195 m 1,10,-1
 244 195 l 1,11,12
 248 416 248 416 244 636 c 1,13,-1
 327 636 l 1,14,15
 323 416 323 416 327 195 c 1,10,-1
536 152 m 1,16,-1
 536 69 l 1,17,18
 461 71 461 71 373.5 71.5 c 128,-1,19
 286 72 286 72 198 71.5 c 128,-1,20
 110 71 110 71 35 69 c 1,21,-1
 35 152 l 1,22,23
 110 151 110 151 198 150.5 c 128,-1,24
 286 150 286 150 373.5 150.5 c 128,-1,25
 461 151 461 151 536 152 c 1,16,-1
EndSplineSet
Validated: 37
EndChar

StartChar: asciicircum
Encoding: 62 94 126
Width: 551
Flags: W
LayerCount: 2
Fore
SplineSet
299 671 m 1,0,1
 348 583 348 583 399.5 494 c 128,-1,2
 451 405 451 405 506 316 c 1,3,-1
 419 316 l 1,4,-1
 253 589 l 1,5,-1
 307 589 l 1,6,-1
 133 316 l 1,7,-1
 45 316 l 1,8,9
 104 405 104 405 159.5 494 c 128,-1,10
 215 583 215 583 267 671 c 1,11,-1
 299 671 l 1,0,1
EndSplineSet
Validated: 5
EndChar

StartChar: uni00B5
Encoding: 116 181 127
Width: 641
Flags: W
LayerCount: 2
Fore
SplineSet
207 434 m 1,0,1
 206 410 206 410 203 372 c 128,-1,2
 200 334 200 334 198 291 c 128,-1,3
 196 248 196 248 196 209 c 0,4,5
 196 199 196 199 196 189.5 c 128,-1,6
 196 180 196 180 197 171 c 0,7,8
 199 125 199 125 213 92 c 128,-1,9
 227 59 227 59 262 59 c 1,10,11
 278 66 278 66 295 85.5 c 128,-1,12
 312 105 312 105 324.5 133 c 128,-1,13
 337 161 337 161 337 191 c 1,14,-1
 385 188 l 1,15,16
 379 135 379 135 358 88.5 c 128,-1,17
 337 42 337 42 299 13.5 c 128,-1,18
 261 -15 261 -15 203 -15 c 0,19,20
 161 -15 161 -15 131 10.5 c 128,-1,21
 101 36 101 36 85 74.5 c 128,-1,22
 69 113 69 113 67 151 c 0,23,24
 66 162 66 162 66 181 c 128,-1,25
 66 200 66 200 66 223 c 0,26,27
 66 242 66 242 66 263 c 128,-1,28
 66 284 66 284 66 306 c 0,29,30
 66 339 66 339 66 372.5 c 128,-1,31
 66 406 66 406 64 434 c 1,32,-1
 207 434 l 1,0,1
117 182 m 1,33,34
 114 143 114 143 114 110 c 0,35,36
 114 19 114 19 131 -34.5 c 128,-1,37
 148 -88 148 -88 174.5 -116 c 128,-1,38
 201 -144 201 -144 228 -158 c 1,39,40
 218 -188 218 -188 174 -203 c 128,-1,41
 130 -218 130 -218 75 -218 c 1,42,43
 69 -167 69 -167 67 -104 c 128,-1,44
 65 -41 65 -41 65 17 c 0,45,46
 65 72 65 72 66 116.5 c 128,-1,47
 67 161 67 161 67 182 c 1,48,-1
 117 182 l 1,33,34
475 434 m 1,49,50
 473 396 473 396 469.5 349 c 128,-1,51
 466 302 466 302 463.5 260.5 c 128,-1,52
 461 219 461 219 461 195 c 0,53,54
 461 137 461 137 471 109 c 128,-1,55
 481 81 481 81 506 81 c 0,56,57
 520 81 520 81 539.5 89.5 c 128,-1,58
 559 98 559 98 584 114 c 1,59,-1
 611 75 l 1,60,61
 509 -16 509 -16 437 -16 c 0,62,63
 391 -16 391 -16 364 25 c 128,-1,64
 337 66 337 66 337 151 c 0,65,66
 337 205 337 205 336.5 246.5 c 128,-1,67
 336 288 336 288 335 331.5 c 128,-1,68
 334 375 334 375 330 434 c 1,69,-1
 475 434 l 1,49,50
EndSplineSet
Validated: 5
EndChar

StartChar: paragraph
Encoding: 117 182 128
Width: 595
Flags: W
LayerCount: 2
Fore
SplineSet
281 -60 m 1,0,1
 283 -26 283 -26 283.5 17.5 c 128,-1,2
 284 61 284 61 285 107 c 128,-1,3
 286 153 286 153 286 194.5 c 128,-1,4
 286 236 286 236 286 266 c 1,5,6
 220 266 220 266 164 285.5 c 128,-1,7
 108 305 108 305 74 349.5 c 128,-1,8
 40 394 40 394 40 468 c 0,9,10
 40 524 40 524 65 566.5 c 128,-1,11
 90 609 90 609 144.5 633 c 128,-1,12
 199 657 199 657 287 657 c 0,13,14
 315 657 315 657 347.5 656.5 c 128,-1,15
 380 656 380 656 411 656 c 0,16,17
 441 656 441 656 464 656.5 c 128,-1,18
 487 657 487 657 510.5 658 c 128,-1,19
 534 659 534 659 564 660 c 1,20,-1
 575 622 l 1,21,-1
 486 596 l 1,22,23
 485 556 485 556 483.5 523.5 c 128,-1,24
 482 491 482 491 481.5 454.5 c 128,-1,25
 481 418 481 418 481 366 c 0,26,27
 481 342 481 342 481 300.5 c 128,-1,28
 481 259 481 259 481.5 208 c 128,-1,29
 482 157 482 157 482.5 106 c 128,-1,30
 483 55 483 55 484 11 c 128,-1,31
 485 -33 485 -33 486 -60 c 1,32,-1
 405 -60 l 2,33,34
 405 -57 405 -57 404.5 -20 c 128,-1,35
 404 17 404 17 404 76 c 128,-1,36
 404 135 404 135 403.5 205 c 128,-1,37
 403 275 403 275 403 344.5 c 128,-1,38
 403 414 403 414 403 472 c 128,-1,39
 403 530 403 530 403 565 c 128,-1,40
 403 600 403 600 403 600 c 1,41,-1
 365 600 l 1,42,43
 365 600 365 600 365 565 c 128,-1,44
 365 530 365 530 365 472 c 128,-1,45
 365 414 365 414 364.5 344.5 c 128,-1,46
 364 275 364 275 364 205 c 128,-1,47
 364 135 364 135 363.5 76 c 128,-1,48
 363 17 363 17 362.5 -20 c 128,-1,49
 362 -57 362 -57 362 -60 c 2,50,-1
 281 -60 l 1,0,1
EndSplineSet
Validated: 1
EndChar

StartChar: periodcentered
Encoding: 118 183 129
Width: 179
Flags: W
LayerCount: 2
Fore
SplineSet
90 391 m 256,0,1
 103 391 103 391 116 388 c 128,-1,2
 129 385 129 385 142 381 c 1,3,4
 146 368 146 368 148.5 355 c 128,-1,5
 151 342 151 342 151 329 c 256,6,7
 151 316 151 316 148.5 303 c 128,-1,8
 146 290 146 290 142 277 c 1,9,10
 129 273 129 273 116 270 c 128,-1,11
 103 267 103 267 90 267 c 256,12,13
 77 267 77 267 64 270 c 128,-1,14
 51 273 51 273 37 277 c 1,15,16
 29 304 29 304 29 329 c 256,17,18
 29 354 29 354 37 381 c 1,19,20
 51 385 51 385 64 388 c 128,-1,21
 77 391 77 391 90 391 c 256,0,1
EndSplineSet
Validated: 1
EndChar

StartChar: ordmasculine
Encoding: 121 186 130
Width: 377
Flags: W
LayerCount: 2
Fore
SplineSet
25 316 m 1,0,1
 72 315 72 315 127 314.5 c 128,-1,2
 182 314 182 314 236.5 314.5 c 128,-1,3
 291 315 291 315 338 316 c 1,4,-1
 338 274 l 1,5,6
 291 275 291 275 236.5 275.5 c 128,-1,7
 182 276 182 276 127 275.5 c 128,-1,8
 72 275 72 275 25 274 c 1,9,-1
 25 316 l 1,0,1
193 684 m 0,10,11
 248 684 248 684 285 660.5 c 128,-1,12
 322 637 322 637 340.5 599.5 c 128,-1,13
 359 562 359 562 359 519 c 0,14,15
 359 474 359 474 340 435.5 c 128,-1,16
 321 397 321 397 283.5 374 c 128,-1,17
 246 351 246 351 191 351 c 0,18,19
 134 351 134 351 96 374.5 c 128,-1,20
 58 398 58 398 38.5 436.5 c 128,-1,21
 19 475 19 475 19 520 c 0,22,23
 19 564 19 564 38 601 c 128,-1,24
 57 638 57 638 95.5 661 c 128,-1,25
 134 684 134 684 193 684 c 0,10,11
124 536 m 0,26,27
 124 498 124 498 132.5 464.5 c 128,-1,28
 141 431 141 431 158 410 c 128,-1,29
 175 389 175 389 200 389 c 0,30,31
 228 389 228 389 242 420 c 128,-1,32
 256 451 256 451 256 498 c 0,33,34
 256 535 256 535 247 568.5 c 128,-1,35
 238 602 238 602 221 623.5 c 128,-1,36
 204 645 204 645 180 645 c 0,37,38
 151 645 151 645 137.5 613.5 c 128,-1,39
 124 582 124 582 124 536 c 0,26,27
EndSplineSet
Validated: 33
EndChar

StartChar: onesuperior
Encoding: 120 185 132
Width: 342
Flags: W
LayerCount: 2
Fore
SplineSet
238 670 m 1,0,1
 237 608 237 608 236.5 555 c 128,-1,2
 236 502 236 502 236 457 c 0,3,4
 236 424 236 424 236.5 383 c 128,-1,5
 237 342 237 342 238 304 c 1,6,-1
 322 282 l 1,7,-1
 311 251 l 1,8,9
 288 252 288 252 257.5 252.5 c 128,-1,10
 227 253 227 253 186 253 c 0,11,12
 166 253 166 253 140 252.5 c 128,-1,13
 114 252 114 252 89.5 251.5 c 128,-1,14
 65 251 65 251 49 251 c 1,15,-1
 38 282 l 1,16,-1
 130 304 l 1,17,18
 131 332 131 332 131 372 c 128,-1,19
 131 412 131 412 131 452 c 0,20,21
 131 470 131 470 130.5 494 c 128,-1,22
 130 518 130 518 129 540 c 128,-1,23
 128 562 128 562 127 573 c 1,24,-1
 38 572 l 1,25,-1
 20 613 l 1,26,27
 73 618 73 618 111.5 629 c 128,-1,28
 150 640 150 640 193 670 c 1,29,-1
 238 670 l 1,0,1
EndSplineSet
Validated: 1
EndChar

StartChar: twosuperior
Encoding: 113 178 133
Width: 356
Flags: W
LayerCount: 2
Fore
SplineSet
20 563 m 1,0,1
 57 605 57 605 98 636.5 c 128,-1,2
 139 668 139 668 198 668 c 0,3,4
 251 668 251 668 288 637.5 c 128,-1,5
 325 607 325 607 325 550 c 0,6,7
 325 506 325 506 292 463.5 c 128,-1,8
 259 421 259 421 206.5 380 c 128,-1,9
 154 339 154 339 94 298 c 1,10,-1
 124 329 l 1,11,12
 166 330 166 330 197.5 331 c 128,-1,13
 229 332 229 332 261.5 335 c 128,-1,14
 294 338 294 338 336 345 c 1,15,16
 335 323 335 323 334.5 297 c 128,-1,17
 334 271 334 271 333 251 c 1,18,19
 293 253 293 253 248.5 253.5 c 128,-1,20
 204 254 204 254 168 254 c 0,21,22
 151 254 151 254 112 253.5 c 128,-1,23
 73 253 73 253 37 251 c 1,24,-1
 22 283 l 1,25,26
 114 366 114 366 163 422 c 128,-1,27
 212 478 212 478 212 530 c 0,28,29
 212 565 212 565 187 582 c 128,-1,30
 162 599 162 599 122.5 586.5 c 128,-1,31
 83 574 83 574 40 522 c 1,32,-1
 20 563 l 1,0,1
EndSplineSet
Validated: 37
EndChar

StartChar: threesuperior
Encoding: 114 179 134
Width: 372
Flags: W
LayerCount: 2
Fore
SplineSet
170 247 m 0,0,1
 133 247 133 247 95.5 257.5 c 128,-1,2
 58 268 58 268 25 290 c 1,3,-1
 34 333 l 1,4,5
 66 315 66 315 93 308 c 128,-1,6
 120 301 120 301 148 301 c 0,7,8
 189 301 189 301 211.5 324.5 c 128,-1,9
 234 348 234 348 234 378 c 0,10,11
 234 405 234 405 213 430.5 c 128,-1,12
 192 456 192 456 147 464 c 1,13,-1
 138 485 l 1,14,15
 155 502 155 502 176 526.5 c 128,-1,16
 197 551 197 551 216 576 c 1,17,18
 202 577 202 577 188.5 577 c 128,-1,19
 175 577 175 577 162 577 c 0,20,21
 146 577 146 577 130 577 c 128,-1,22
 114 577 114 577 97 575 c 1,23,24
 90 561 90 561 85 549 c 128,-1,25
 80 537 80 537 74 517 c 1,26,-1
 34 517 l 1,27,28
 35 536 35 536 35.5 558 c 128,-1,29
 36 580 36 580 36 602 c 0,30,31
 36 619 36 619 35.5 634.5 c 128,-1,32
 35 650 35 650 34 660 c 1,33,34
 67 659 67 659 102 659 c 128,-1,35
 137 659 137 659 172 659 c 256,36,37
 207 659 207 659 242 659 c 128,-1,38
 277 659 277 659 310 660 c 1,39,-1
 327 610 l 1,40,41
 302 586 302 586 287 571 c 128,-1,42
 272 556 272 556 261 545.5 c 128,-1,43
 250 535 250 535 237 522 c 1,44,45
 290 507 290 507 314.5 469 c 128,-1,46
 339 431 339 431 339 391 c 0,47,48
 339 354 339 354 319.5 321 c 128,-1,49
 300 288 300 288 262 267.5 c 128,-1,50
 224 247 224 247 170 247 c 0,0,1
EndSplineSet
Validated: 1
EndChar

StartChar: onehalf
Encoding: 124 189 135
Width: 901
Flags: W
LayerCount: 2
Fore
SplineSet
774 693 m 1,0,-1
 224 -48 l 1,1,-1
 143 -48 l 1,2,-1
 692 693 l 1,3,-1
 774 693 l 1,0,-1
253 670 m 1,4,5
 252 608 252 608 251.5 555 c 128,-1,6
 251 502 251 502 251 457 c 0,7,8
 251 424 251 424 251.5 383 c 128,-1,9
 252 342 252 342 253 304 c 1,10,-1
 337 282 l 1,11,-1
 326 251 l 1,12,13
 303 252 303 252 272.5 252.5 c 128,-1,14
 242 253 242 253 201 253 c 0,15,16
 181 253 181 253 155 252.5 c 128,-1,17
 129 252 129 252 104.5 251.5 c 128,-1,18
 80 251 80 251 64 251 c 1,19,-1
 53 282 l 1,20,-1
 145 304 l 1,21,22
 146 332 146 332 146 372 c 128,-1,23
 146 412 146 412 146 452 c 0,24,25
 146 470 146 470 145.5 494 c 128,-1,26
 145 518 145 518 144 540 c 128,-1,27
 143 562 143 562 142 573 c 1,28,-1
 53 572 l 1,29,-1
 35 613 l 1,30,31
 88 618 88 618 126.5 629 c 128,-1,32
 165 640 165 640 208 670 c 1,33,-1
 253 670 l 1,4,5
550 312 m 1,34,35
 587 354 587 354 628 385.5 c 128,-1,36
 669 417 669 417 728 417 c 0,37,38
 781 417 781 417 818 386.5 c 128,-1,39
 855 356 855 356 855 299 c 0,40,41
 855 254 855 254 822 212 c 128,-1,42
 789 170 789 170 736.5 129 c 128,-1,43
 684 88 684 88 624 47 c 1,44,-1
 654 78 l 1,45,46
 696 79 696 79 727.5 80 c 128,-1,47
 759 81 759 81 791.5 84 c 128,-1,48
 824 87 824 87 866 94 c 1,49,50
 865 72 865 72 864.5 46 c 128,-1,51
 864 20 864 20 863 0 c 1,52,53
 823 2 823 2 778.5 2.5 c 128,-1,54
 734 3 734 3 698 3 c 0,55,56
 681 3 681 3 642 2.5 c 128,-1,57
 603 2 603 2 567 0 c 1,58,-1
 552 32 l 1,59,60
 644 115 644 115 693 171 c 128,-1,61
 742 227 742 227 742 279 c 0,62,63
 742 314 742 314 717 331 c 128,-1,64
 692 348 692 348 652.5 335.5 c 128,-1,65
 613 323 613 323 570 271 c 1,66,-1
 550 312 l 1,34,35
EndSplineSet
Validated: 37
Ligature2: "'frac' Diagonal Fractions lookup 34 subtable" one slash two
EndChar

StartChar: onequarter
Encoding: 123 188 136
Width: 865
Flags: W
LayerCount: 2
Fore
SplineSet
774 693 m 1,0,-1
 224 -48 l 1,1,-1
 143 -48 l 1,2,-1
 692 693 l 1,3,-1
 774 693 l 1,0,-1
253 670 m 1,4,5
 252 608 252 608 251.5 555 c 128,-1,6
 251 502 251 502 251 457 c 0,7,8
 251 424 251 424 251.5 383 c 128,-1,9
 252 342 252 342 253 304 c 1,10,-1
 337 282 l 1,11,-1
 326 251 l 1,12,13
 303 252 303 252 272.5 252.5 c 128,-1,14
 242 253 242 253 201 253 c 0,15,16
 181 253 181 253 155 252.5 c 128,-1,17
 129 252 129 252 104.5 251.5 c 128,-1,18
 80 251 80 251 64 251 c 1,19,-1
 53 282 l 1,20,-1
 145 304 l 1,21,22
 146 332 146 332 146 372 c 128,-1,23
 146 412 146 412 146 452 c 0,24,25
 146 470 146 470 145.5 494 c 128,-1,26
 145 518 145 518 144 540 c 128,-1,27
 143 562 143 562 142 573 c 1,28,-1
 53 572 l 1,29,-1
 35 613 l 1,30,31
 88 618 88 618 126.5 629 c 128,-1,32
 165 640 165 640 208 670 c 1,33,-1
 253 670 l 1,4,5
759 418 m 1,34,35
 758 315 758 315 758 242 c 128,-1,36
 758 169 758 169 759 112 c 128,-1,37
 760 55 760 55 763 -1 c 1,38,-1
 654 -1 l 1,39,40
 655 19 655 19 656 57 c 128,-1,41
 657 95 657 95 657.5 139.5 c 128,-1,42
 658 184 658 184 658.5 224 c 128,-1,43
 659 264 659 264 659 288 c 1,44,45
 634 250 634 250 617.5 225 c 128,-1,46
 601 200 601 200 588 181.5 c 128,-1,47
 575 163 575 163 562 143 c 1,48,49
 576 142 576 142 610.5 140.5 c 128,-1,50
 645 139 645 139 679 139 c 0,51,52
 716 139 716 139 748.5 139.5 c 128,-1,53
 781 140 781 140 822 143 c 1,54,-1
 822 88 l 1,55,56
 779 90 779 90 738 90.5 c 128,-1,57
 697 91 697 91 647 91 c 0,58,59
 614 91 614 91 592 91 c 128,-1,60
 570 91 570 91 545 90.5 c 128,-1,61
 520 90 520 90 477 88 c 1,62,-1
 477 139 l 1,63,64
 542 211 542 211 600.5 275 c 128,-1,65
 659 339 659 339 722 418 c 1,66,-1
 759 418 l 1,34,35
EndSplineSet
Validated: 5
Ligature2: "'frac' Diagonal Fractions lookup 34 subtable" one slash four
EndChar

StartChar: threequarters
Encoding: 125 190 137
Width: 840
Flags: W
LayerCount: 2
Fore
SplineSet
108 -48 m 1,0,-1
 657 693 l 1,1,-1
 739 693 l 1,2,-1
 189 -48 l 1,3,-1
 108 -48 l 1,0,-1
719 420 m 1,4,5
 718 317 718 317 718 244 c 128,-1,6
 718 171 718 171 719 114 c 128,-1,7
 720 57 720 57 723 1 c 1,8,-1
 614 1 l 1,9,10
 615 21 615 21 616 59 c 128,-1,11
 617 97 617 97 617.5 141.5 c 128,-1,12
 618 186 618 186 618.5 226 c 128,-1,13
 619 266 619 266 619 290 c 1,14,15
 594 252 594 252 577.5 227 c 128,-1,16
 561 202 561 202 548 183.5 c 128,-1,17
 535 165 535 165 522 145 c 1,18,19
 536 144 536 144 570.5 142.5 c 128,-1,20
 605 141 605 141 639 141 c 0,21,22
 676 141 676 141 708.5 141.5 c 128,-1,23
 741 142 741 142 782 145 c 1,24,-1
 782 90 l 1,25,26
 739 92 739 92 698 92.5 c 128,-1,27
 657 93 657 93 607 93 c 0,28,29
 574 93 574 93 552 93 c 128,-1,30
 530 93 530 93 505 92.5 c 128,-1,31
 480 92 480 92 437 90 c 1,32,-1
 437 141 l 1,33,34
 502 213 502 213 560.5 277 c 128,-1,35
 619 341 619 341 682 420 c 1,36,-1
 719 420 l 1,4,5
180 247 m 0,37,38
 143 247 143 247 105.5 257.5 c 128,-1,39
 68 268 68 268 35 290 c 1,40,-1
 44 333 l 1,41,42
 76 315 76 315 103 308 c 128,-1,43
 130 301 130 301 158 301 c 0,44,45
 199 301 199 301 221.5 324.5 c 128,-1,46
 244 348 244 348 244 378 c 0,47,48
 244 405 244 405 223 430.5 c 128,-1,49
 202 456 202 456 157 464 c 1,50,-1
 148 485 l 1,51,52
 165 502 165 502 186 526.5 c 128,-1,53
 207 551 207 551 226 576 c 1,54,55
 212 577 212 577 198.5 577 c 128,-1,56
 185 577 185 577 172 577 c 0,57,58
 156 577 156 577 140 577 c 128,-1,59
 124 577 124 577 107 575 c 1,60,61
 100 561 100 561 95 549 c 128,-1,62
 90 537 90 537 84 517 c 1,63,-1
 44 517 l 1,64,65
 45 536 45 536 45.5 558 c 128,-1,66
 46 580 46 580 46 602 c 0,67,68
 46 619 46 619 45.5 634.5 c 128,-1,69
 45 650 45 650 44 660 c 1,70,71
 77 659 77 659 112 659 c 128,-1,72
 147 659 147 659 182 659 c 256,73,74
 217 659 217 659 252 659 c 128,-1,75
 287 659 287 659 320 660 c 1,76,-1
 337 610 l 1,77,78
 312 586 312 586 297 571 c 128,-1,79
 282 556 282 556 271 545.5 c 128,-1,80
 260 535 260 535 247 522 c 1,81,82
 300 507 300 507 324.5 469 c 128,-1,83
 349 431 349 431 349 391 c 0,84,85
 349 354 349 354 329.5 321 c 128,-1,86
 310 288 310 288 272 267.5 c 128,-1,87
 234 247 234 247 180 247 c 0,37,38
EndSplineSet
Validated: 5
Ligature2: "'frac' Diagonal Fractions lookup 34 subtable" three slash four
EndChar

StartChar: AE
Encoding: 133 198 145
Width: 916
GlyphClass: 2
Flags: W
AnchorPoint: "Anchor-6" 500 0 basechar 0
AnchorPoint: "Anchor-5" 534 660 basechar 0
LayerCount: 2
Fore
SplineSet
469 596 m 1,0,1
 401 476 401 476 345 383 c 128,-1,2
 289 290 289 290 245 212 c 128,-1,3
 201 134 201 134 167 59 c 1,4,-1
 241 38 l 1,5,-1
 228 0 l 1,6,7
 164 3 164 3 110 3 c 0,8,9
 84 3 84 3 59.5 2.5 c 128,-1,10
 35 2 35 2 8 0 c 1,11,-1
 -5 38 l 1,12,-1
 67 59 l 1,13,14
 95 94 95 94 131 148 c 128,-1,15
 167 202 167 202 206 266.5 c 128,-1,16
 245 331 245 331 283 397.5 c 128,-1,17
 321 464 321 464 354.5 524.5 c 128,-1,18
 388 585 388 585 412 630 c 1,19,-1
 469 596 l 1,0,1
448 225 m 1,20,-1
 448 147 l 1,21,22
 411 152 411 152 378 153 c 128,-1,23
 345 154 345 154 317 154 c 0,24,25
 288 154 288 154 260 153 c 128,-1,26
 232 152 232 152 198 147 c 1,27,-1
 198 224 l 1,28,29
 232 219 232 219 260 217 c 128,-1,30
 288 215 288 215 317 215 c 0,31,32
 345 215 345 215 378 217 c 128,-1,33
 411 219 411 219 448 225 c 1,20,-1
727 371 m 1,34,-1
 727 287 l 1,35,36
 704 291 704 291 688 293.5 c 128,-1,37
 672 296 672 296 653.5 297.5 c 128,-1,38
 635 299 635 299 604 299 c 0,39,40
 580 299 580 299 552.5 298 c 128,-1,41
 525 297 525 297 492 292 c 1,42,-1
 492 366 l 1,43,44
 527 363 527 363 552.5 361.5 c 128,-1,45
 578 360 578 360 602 360 c 0,46,47
 633 360 633 360 652 361.5 c 128,-1,48
 671 363 671 363 687.5 365.5 c 128,-1,49
 704 368 704 368 727 371 c 1,34,-1
756 454 m 1,50,51
 755 424 755 424 753.5 394.5 c 128,-1,52
 752 365 752 365 752 333 c 0,53,54
 752 300 752 300 753.5 262.5 c 128,-1,55
 755 225 755 225 756 204 c 1,56,-1
 701 204 l 1,57,-1
 668 308 l 1,58,-1
 668 351 l 1,59,-1
 701 454 l 1,60,-1
 756 454 l 1,50,51
878 0 m 1,61,62
 790 3 790 3 499 3 c 0,63,64
 464 3 464 3 430.5 2.5 c 128,-1,65
 397 2 397 2 342 0 c 1,66,-1
 330 38 l 1,67,-1
 419 59 l 1,68,69
 421 140 421 140 422.5 218.5 c 128,-1,70
 424 297 424 297 424 376 c 0,71,72
 424 439 424 439 422.5 492 c 128,-1,73
 421 545 421 545 419 597 c 1,74,-1
 323 621 l 1,75,-1
 336 660 l 1,76,77
 386 658 386 658 430 657 c 128,-1,78
 474 656 474 656 503 656 c 256,79,80
 532 656 532 656 573 656 c 128,-1,81
 614 656 614 656 659 656.5 c 128,-1,82
 704 657 704 657 746 657.5 c 128,-1,83
 788 658 788 658 820.5 658.5 c 128,-1,84
 853 659 853 659 868 660 c 1,85,86
 865 597 865 597 863 548.5 c 128,-1,87
 861 500 861 500 860 462 c 1,88,-1
 796 462 l 1,89,-1
 778 567 l 1,90,91
 753 580 753 580 718 586 c 128,-1,92
 683 592 683 592 644 592 c 0,93,94
 626 592 626 592 607.5 590.5 c 128,-1,95
 589 589 589 589 570 587 c 1,96,97
 569 497 569 497 568.5 417 c 128,-1,98
 568 337 568 337 568 263 c 0,99,100
 568 217 568 217 568.5 169 c 128,-1,101
 569 121 569 121 570 69 c 1,102,103
 587 67 587 67 605 65.5 c 128,-1,104
 623 64 623 64 641 64 c 0,105,106
 681 64 681 64 719 70 c 128,-1,107
 757 76 757 76 782 89 c 1,108,-1
 805 210 l 1,109,-1
 869 210 l 1,110,111
 869 164 869 164 871.5 107.5 c 128,-1,112
 874 51 874 51 878 0 c 1,61,62
EndSplineSet
Validated: 1048581
EndChar

StartChar: Eth
Encoding: 143 208 155
Width: 728
GlyphClass: 2
Flags: W
AnchorPoint: "Anchor-5" 350 679 basechar 0
LayerCount: 2
Fore
SplineSet
16 365 m 1,0,1
 49 364 49 364 95.5 363 c 128,-1,2
 142 362 142 362 192.5 362 c 128,-1,3
 243 362 243 362 289.5 363 c 128,-1,4
 336 364 336 364 369 365 c 1,5,-1
 369 294 l 1,6,7
 336 295 336 295 289.5 295.5 c 128,-1,8
 243 296 243 296 192.5 296 c 128,-1,9
 142 296 142 296 95.5 295.5 c 128,-1,10
 49 295 49 295 16 294 c 1,11,-1
 16 365 l 1,0,1
181 656 m 0,12,13
 222 656 222 656 261.5 658 c 128,-1,14
 301 660 301 660 361 660 c 0,15,16
 420 660 420 660 476 640 c 128,-1,17
 532 620 532 620 578 580 c 128,-1,18
 624 540 624 540 651 478.5 c 128,-1,19
 678 417 678 417 678 334 c 0,20,21
 678 246 678 246 649 182.5 c 128,-1,22
 620 119 620 119 573 78.5 c 128,-1,23
 526 38 526 38 471 18.5 c 128,-1,24
 416 -1 416 -1 364 -1 c 0,25,26
 315 -1 315 -1 274.5 1 c 128,-1,27
 234 3 234 3 184 3 c 1,28,-1
 258 76 l 1,29,30
 300 63 300 63 339 59 c 128,-1,31
 378 55 378 55 410 55 c 1,32,33
 449 80 449 80 474 121 c 128,-1,34
 499 162 499 162 511 212.5 c 128,-1,35
 523 263 523 263 523 315 c 0,36,37
 523 370 523 370 510.5 422 c 128,-1,38
 498 474 498 474 473.5 516 c 128,-1,39
 449 558 449 558 413.5 582.5 c 128,-1,40
 378 607 378 607 333 607 c 0,41,42
 310 607 310 607 293 604 c 128,-1,43
 276 601 276 601 258 596 c 1,44,45
 257 539 257 539 257 477 c 128,-1,46
 257 415 257 415 257 356 c 0,47,48
 257 283 257 283 257.5 212 c 128,-1,49
 258 141 258 141 259 73 c 1,50,-1
 300 30 l 1,51,-1
 289 1 l 1,52,53
 272 2 272 2 258 2 c 128,-1,54
 244 2 244 2 227.5 2.5 c 128,-1,55
 211 3 211 3 184 3 c 0,56,57
 134 4 134 4 99 2.5 c 128,-1,58
 64 1 64 1 33 0 c 1,59,-1
 20 38 l 1,60,-1
 108 58 l 1,61,62
 110 153 110 153 112 225 c 128,-1,63
 114 297 114 297 114 356 c 0,64,65
 114 424 114 424 112.5 486.5 c 128,-1,66
 111 549 111 549 109 597 c 1,67,-1
 21 621 l 1,68,-1
 33 660 l 1,69,70
 63 659 63 659 84 658 c 128,-1,71
 105 657 105 657 127.5 656.5 c 128,-1,72
 150 656 150 656 181 656 c 0,12,13
EndSplineSet
Validated: 1048613
EndChar

StartChar: multiply
Encoding: 150 215 162
Width: 513
Flags: W
LayerCount: 2
Fore
SplineSet
488 138 m 1,0,-1
 429 79 l 1,1,2
 370 141 370 141 299.5 212 c 128,-1,3
 229 283 229 283 158 353.5 c 128,-1,4
 87 424 87 424 25 483 c 1,5,-1
 84 542 l 1,6,7
 144 481 144 481 214 409.5 c 128,-1,8
 284 338 284 338 355.5 268 c 128,-1,9
 427 198 427 198 488 138 c 1,0,-1
84 79 m 1,10,-1
 25 138 l 1,11,12
 87 198 87 198 158 268 c 128,-1,13
 229 338 229 338 299.5 409.5 c 128,-1,14
 370 481 370 481 429 542 c 1,15,-1
 488 483 l 1,16,17
 427 424 427 424 355.5 353.5 c 128,-1,18
 284 283 284 283 214 212 c 128,-1,19
 144 141 144 141 84 79 c 1,10,-1
EndSplineSet
Validated: 5
EndChar

StartChar: Oslash
Encoding: 151 216 163
Width: 715
Flags: W
LayerCount: 2
Fore
SplineSet
78 4 m 1,0,-1
 547 708 l 1,1,-1
 616 667 l 1,2,-1
 146 -37 l 1,3,-1
 78 4 l 1,0,-1
357 670 m 0,4,5
 434 670 434 670 493 642 c 128,-1,6
 552 614 552 614 592.5 566.5 c 128,-1,7
 633 519 633 519 654 459.5 c 128,-1,8
 675 400 675 400 675 337 c 0,9,10
 675 268 675 268 656 206 c 128,-1,11
 637 144 637 144 598.5 95 c 128,-1,12
 560 46 560 46 500.5 18 c 128,-1,13
 441 -10 441 -10 361 -10 c 256,14,15
 281 -10 281 -10 220.5 18.5 c 128,-1,16
 160 47 160 47 120 95.5 c 128,-1,17
 80 144 80 144 60 206.5 c 128,-1,18
 40 269 40 269 40 338 c 0,19,20
 40 428 40 428 74.5 503.5 c 128,-1,21
 109 579 109 579 179.5 624.5 c 128,-1,22
 250 670 250 670 357 670 c 0,4,5
537 296 m 0,23,24
 537 358 537 358 522.5 415 c 128,-1,25
 508 472 508 472 482 516.5 c 128,-1,26
 456 561 456 561 419.5 587 c 128,-1,27
 383 613 383 613 338 613 c 0,28,29
 282 613 282 613 246.5 578.5 c 128,-1,30
 211 544 211 544 194.5 489 c 128,-1,31
 178 434 178 434 178 370 c 0,32,33
 178 308 178 308 192.5 250 c 128,-1,34
 207 192 207 192 234 146 c 128,-1,35
 261 100 261 100 298 73.5 c 128,-1,36
 335 47 335 47 379 47 c 0,37,38
 436 47 436 47 470.5 82.5 c 128,-1,39
 505 118 505 118 521 175 c 128,-1,40
 537 232 537 232 537 296 c 0,23,24
EndSplineSet
Validated: 5
EndChar

StartChar: Thorn
Encoding: 157 222 169
Width: 629
Flags: W
LayerCount: 2
Fore
SplineSet
340 660 m 1,0,-1
 353 621 l 1,1,-1
 262 597 l 1,2,3
 262 512 262 512 261.5 447 c 128,-1,4
 261 382 261 382 261 324.5 c 128,-1,5
 261 267 261 267 261 204 c 128,-1,6
 261 141 261 141 262 59 c 1,7,-1
 353 38 l 1,8,-1
 340 0 l 1,9,10
 286 3 286 3 188 3 c 0,11,12
 142 3 142 3 103 2 c 128,-1,13
 64 1 64 1 33 0 c 1,14,-1
 20 38 l 1,15,-1
 112 59 l 1,16,17
 114 140 114 140 115.5 203 c 128,-1,18
 117 266 117 266 117 323.5 c 128,-1,19
 117 381 117 381 116 446.5 c 128,-1,20
 115 512 115 512 112 597 c 1,21,-1
 20 621 l 1,22,-1
 33 660 l 1,23,24
 72 658 72 658 109 657 c 128,-1,25
 146 656 146 656 192 656 c 0,26,27
 233 656 233 656 273 657.5 c 128,-1,28
 313 659 313 659 340 660 c 1,0,-1
198 525 m 1,29,30
 229 530 229 530 254 532.5 c 128,-1,31
 279 535 279 535 305.5 536 c 128,-1,32
 332 537 332 537 369 537 c 0,33,34
 439 537 439 537 488 512 c 128,-1,35
 537 487 537 487 563 443 c 128,-1,36
 589 399 589 399 589 343 c 0,37,38
 589 279 589 279 557.5 230.5 c 128,-1,39
 526 182 526 182 467.5 155 c 128,-1,40
 409 128 409 128 328 128 c 0,41,42
 310 128 310 128 284 131 c 128,-1,43
 258 134 258 134 229 140 c 1,44,-1
 229 203 l 1,45,46
 259 193 259 193 298.5 189 c 128,-1,47
 338 185 338 185 376 192 c 1,48,49
 408 213 408 213 423.5 250.5 c 128,-1,50
 439 288 439 288 439 330 c 0,51,52
 439 418 439 418 389 453.5 c 128,-1,53
 339 489 339 489 244 472 c 1,54,-1
 198 525 l 1,29,30
EndSplineSet
Validated: 37
EndChar

StartChar: germandbls
Encoding: 158 223 170
Width: 637
Flags: W
LayerCount: 2
Fore
SplineSet
46 0 m 1,0,-1
 30 37 l 1,1,-1
 106 58 l 1,2,3
 108 63 108 63 109 71.5 c 128,-1,4
 110 80 110 80 111 101.5 c 128,-1,5
 112 123 112 123 112.5 165 c 128,-1,6
 113 207 113 207 113.5 278 c 128,-1,7
 114 349 114 349 114 457 c 0,8,9
 114 534 114 534 148 598 c 128,-1,10
 182 662 182 662 241.5 700.5 c 128,-1,11
 301 739 301 739 378 739 c 0,12,13
 451 739 451 739 494 716 c 128,-1,14
 537 693 537 693 556 657 c 128,-1,15
 575 621 575 621 575 581 c 0,16,17
 575 537 575 537 559.5 506.5 c 128,-1,18
 544 476 544 476 521.5 455.5 c 128,-1,19
 499 435 499 435 476 420 c 128,-1,20
 453 405 453 405 437.5 391.5 c 128,-1,21
 422 378 422 378 422 361 c 0,22,23
 422 334 422 334 443 317 c 128,-1,24
 464 300 464 300 495.5 284.5 c 128,-1,25
 527 269 527 269 558.5 249.5 c 128,-1,26
 590 230 590 230 611 199.5 c 128,-1,27
 632 169 632 169 632 120 c 0,28,29
 632 75 632 75 604.5 46 c 128,-1,30
 577 17 577 17 533.5 3 c 128,-1,31
 490 -11 490 -11 441 -11 c 0,32,33
 361 -11 361 -11 296 20 c 1,34,35
 304 58 304 58 307 94 c 128,-1,36
 310 130 310 130 314 160 c 1,37,-1
 366 160 l 1,38,-1
 379 67 l 1,39,40
 392 57 392 57 409 51 c 128,-1,41
 426 45 426 45 443 45 c 0,42,43
 468 45 468 45 487 58.5 c 128,-1,44
 506 72 506 72 506 97 c 0,45,46
 506 127 506 127 485.5 145.5 c 128,-1,47
 465 164 465 164 435 178 c 128,-1,48
 405 192 405 192 375 208 c 128,-1,49
 345 224 345 224 324.5 248 c 128,-1,50
 304 272 304 272 304 312 c 0,51,52
 304 346 304 346 317.5 366 c 128,-1,53
 331 386 331 386 350.5 401 c 128,-1,54
 370 416 370 416 390 434 c 128,-1,55
 410 452 410 452 423.5 481.5 c 128,-1,56
 437 511 437 511 437 562 c 0,57,58
 437 589 437 589 426 616.5 c 128,-1,59
 415 644 415 644 390 662.5 c 128,-1,60
 365 681 365 681 323 681 c 1,61,62
 301 665 301 665 283 639 c 128,-1,63
 265 613 265 613 254 568.5 c 128,-1,64
 243 524 243 524 243 452 c 0,65,66
 243 414 243 414 243.5 363 c 128,-1,67
 244 312 244 312 244 259 c 128,-1,68
 244 206 244 206 244.5 161 c 128,-1,69
 245 116 245 116 245 89 c 0,70,71
 245 52 245 52 242.5 34.5 c 128,-1,72
 240 17 240 17 235 0 c 1,73,74
 229 0 229 0 203.5 0 c 128,-1,75
 178 0 178 0 146 0 c 128,-1,76
 114 0 114 0 86 0 c 128,-1,77
 58 0 58 0 46 0 c 1,0,-1
EndSplineSet
Validated: 1
EndChar

StartChar: ae
Encoding: 165 230 177
Width: 692
GlyphClass: 2
Flags: W
AnchorPoint: "Anchor-6" 347 0 basechar 0
AnchorPoint: "Anchor-5" 367 434 basechar 0
LayerCount: 2
Fore
SplineSet
345 279 m 1,0,-1
 285 196 l 1,1,2
 263 191 263 191 246 186 c 128,-1,3
 229 181 229 181 215 178 c 0,4,5
 181 171 181 171 168 160.5 c 128,-1,6
 155 150 155 150 155 124 c 0,7,8
 155 103 155 103 166 91 c 128,-1,9
 177 79 177 79 196 79 c 0,10,11
 219 79 219 79 254.5 100.5 c 128,-1,12
 290 122 290 122 315 155 c 1,13,-1
 344 114 l 1,14,15
 332 99 332 99 310.5 78 c 128,-1,16
 289 57 289 57 260.5 37.5 c 128,-1,17
 232 18 232 18 198.5 4.5 c 128,-1,18
 165 -9 165 -9 128 -9 c 0,19,20
 103 -9 103 -9 79.5 4.5 c 128,-1,21
 56 18 56 18 40.5 45 c 128,-1,22
 25 72 25 72 25 112 c 0,23,24
 25 154 25 154 50.5 177.5 c 128,-1,25
 76 201 76 201 120 214 c 128,-1,26
 164 227 164 227 217 236 c 0,27,28
 253 242 253 242 284 251.5 c 128,-1,29
 315 261 315 261 345 279 c 1,0,-1
671 237 m 1,30,31
 649 233 649 233 613 230 c 128,-1,32
 577 227 577 227 534 225.5 c 128,-1,33
 491 224 491 224 448 224 c 0,34,35
 416 224 416 224 393 225 c 128,-1,36
 370 226 370 226 362 227 c 1,37,-1
 362 275 l 1,38,39
 373 275 373 275 395.5 275 c 128,-1,40
 418 275 418 275 446 276 c 128,-1,41
 474 277 474 277 500.5 279 c 128,-1,42
 527 281 527 281 545 284 c 1,43,44
 544 305 544 305 533.5 326.5 c 128,-1,45
 523 348 523 348 502 363 c 128,-1,46
 481 378 481 378 448 378 c 1,47,48
 428 359 428 359 416 325.5 c 128,-1,49
 404 292 404 292 404 248 c 0,50,51
 404 158 404 158 441.5 115.5 c 128,-1,52
 479 73 479 73 534 73 c 0,53,54
 590 73 590 73 652 113 c 1,55,-1
 674 67 l 1,56,57
 631 28 631 28 582 11 c 128,-1,58
 533 -6 533 -6 485 -6 c 0,59,60
 429 -6 429 -6 380.5 18.5 c 128,-1,61
 332 43 332 43 302.5 92 c 128,-1,62
 273 141 273 141 273 214 c 0,63,64
 273 288 273 288 303.5 337.5 c 128,-1,65
 334 387 334 387 382.5 412 c 128,-1,66
 431 437 431 437 485 437 c 0,67,68
 535 437 535 437 577.5 415 c 128,-1,69
 620 393 620 393 645.5 348.5 c 128,-1,70
 671 304 671 304 671 237 c 1,30,31
273 224 m 1,71,72
 274 238 274 238 274.5 252 c 128,-1,73
 275 266 275 266 275 278 c 0,74,75
 275 309 275 309 266 328 c 128,-1,76
 257 347 257 347 236 354 c 1,77,78
 190 352 190 352 148 337 c 128,-1,79
 106 322 106 322 62 299 c 1,80,-1
 36 342 l 1,81,82
 93 384 93 384 151.5 410 c 128,-1,83
 210 436 210 436 274 436 c 0,84,85
 327 436 327 436 366 403.5 c 128,-1,86
 405 371 405 371 405 305 c 0,87,88
 405 274 405 274 404.5 250.5 c 128,-1,89
 404 227 404 227 402 207 c 1,90,-1
 273 224 l 1,71,72
EndSplineSet
Validated: 1048581
EndChar

StartChar: eth
Encoding: 175 240 187
Width: 503
GlyphClass: 2
Flags: W
AnchorPoint: "Anchor-7" 264 218 basechar 0
LayerCount: 2
Fore
SplineSet
336 336 m 0,0,1
 335 409 335 409 295.5 488.5 c 128,-1,2
 256 568 256 568 191 655 c 1,3,-1
 98 641 l 1,4,-1
 79 681 l 1,5,6
 102 685 102 685 141.5 695 c 128,-1,7
 181 705 181 705 223 717 c 128,-1,8
 265 729 265 729 295 740 c 1,9,10
 325 697 325 697 357 647 c 128,-1,11
 389 597 389 597 416.5 538.5 c 128,-1,12
 444 480 444 480 461 412 c 128,-1,13
 478 344 478 344 478 265 c 0,14,15
 478 197 478 197 457.5 147.5 c 128,-1,16
 437 98 437 98 405 65 c 128,-1,17
 373 32 373 32 336.5 15 c 128,-1,18
 300 -2 300 -2 267 -5 c 0,19,20
 205 -10 205 -10 148.5 15 c 128,-1,21
 92 40 92 40 56.5 92 c 128,-1,22
 21 144 21 144 21 221 c 0,23,24
 21 275 21 275 39.5 315 c 128,-1,25
 58 355 58 355 88.5 382 c 128,-1,26
 119 409 119 409 155.5 422 c 128,-1,27
 192 435 192 435 227 435 c 256,28,29
 262 435 262 435 292 418 c 128,-1,30
 322 401 322 401 343 373 c 128,-1,31
 364 345 364 345 370 311 c 1,32,-1
 338 237 l 1,33,34
 338 272 338 272 321 302 c 128,-1,35
 304 332 304 332 280.5 351.5 c 128,-1,36
 257 371 257 371 238 375 c 1,37,38
 198 363 198 363 177.5 320 c 128,-1,39
 157 277 157 277 157 227 c 0,40,41
 157 183 157 183 164.5 141 c 128,-1,42
 172 99 172 99 193 72 c 128,-1,43
 214 45 214 45 252 45 c 0,44,45
 287 45 287 45 306.5 74 c 128,-1,46
 326 103 326 103 333 167 c 128,-1,47
 340 231 340 231 336 336 c 0,0,1
121 564 m 1,48,49
 154 568 154 568 200 575.5 c 128,-1,50
 246 583 246 583 296 591.5 c 128,-1,51
 346 600 346 600 391.5 609 c 128,-1,52
 437 618 437 618 469 625 c 1,53,-1
 481 555 l 1,54,55
 448 550 448 550 402.5 542.5 c 128,-1,56
 357 535 357 535 307 526 c 128,-1,57
 257 517 257 517 211.5 508.5 c 128,-1,58
 166 500 166 500 134 494 c 1,59,-1
 121 564 l 1,48,49
EndSplineSet
Validated: 1048613
EndChar

StartChar: divide
Encoding: 182 247 194
Width: 571
Flags: W
LayerCount: 2
Fore
SplineSet
536 372 m 1,0,-1
 536 289 l 1,1,2
 461 292 461 292 373.5 292.5 c 128,-1,3
 286 293 286 293 198 292.5 c 128,-1,4
 110 292 110 292 35 289 c 1,5,-1
 35 372 l 1,6,7
 110 370 110 370 198 369 c 128,-1,8
 286 368 286 368 373.5 369 c 128,-1,9
 461 370 461 370 536 372 c 1,0,-1
286 441 m 0,10,11
 262 441 262 441 245 458 c 128,-1,12
 228 475 228 475 228 499 c 0,13,14
 228 522 228 522 245 539 c 128,-1,15
 262 556 262 556 286 556 c 0,16,17
 309 556 309 556 326 539 c 128,-1,18
 343 522 343 522 343 499 c 0,19,20
 343 475 343 475 326 458 c 128,-1,21
 309 441 309 441 286 441 c 0,10,11
286 105 m 0,22,23
 262 105 262 105 245 122 c 128,-1,24
 228 139 228 139 228 163 c 0,25,26
 228 186 228 186 245 203 c 128,-1,27
 262 220 262 220 286 220 c 0,28,29
 309 220 309 220 326 203 c 128,-1,30
 343 186 343 186 343 163 c 0,31,32
 343 139 343 139 326 122 c 128,-1,33
 309 105 309 105 286 105 c 0,22,23
EndSplineSet
Validated: 33
EndChar

StartChar: oslash
Encoding: 183 248 195
Width: 492
GlyphClass: 2
Flags: W
AnchorPoint: "Anchor-5" 246 430 basechar 0
LayerCount: 2
Fore
SplineSet
382 493 m 1,0,-1
 195 -67 l 1,1,-1
 110 -67 l 1,2,-1
 297 493 l 1,3,-1
 382 493 l 1,0,-1
257 434 m 0,4,5
 331 434 331 434 380.5 403 c 128,-1,6
 430 372 430 372 454.5 322 c 128,-1,7
 479 272 479 272 479 214 c 0,8,9
 479 155 479 155 454 103.5 c 128,-1,10
 429 52 429 52 379 21 c 128,-1,11
 329 -10 329 -10 254 -10 c 256,12,13
 179 -10 179 -10 128 21.5 c 128,-1,14
 77 53 77 53 51 105 c 128,-1,15
 25 157 25 157 25 216 c 0,16,17
 25 274 25 274 50.5 323.5 c 128,-1,18
 76 373 76 373 127.5 403.5 c 128,-1,19
 179 434 179 434 257 434 c 0,4,5
165 237 m 0,20,21
 165 187 165 187 176.5 142 c 128,-1,22
 188 97 188 97 211 69 c 128,-1,23
 234 41 234 41 266 41 c 0,24,25
 304 41 304 41 322.5 82.5 c 128,-1,26
 341 124 341 124 341 186 c 0,27,28
 341 236 341 236 329.5 280.5 c 128,-1,29
 318 325 318 325 295.5 353.5 c 128,-1,30
 273 382 273 382 240 382 c 0,31,32
 202 382 202 382 183.5 340.5 c 128,-1,33
 165 299 165 299 165 237 c 0,20,21
EndSplineSet
Validated: 1048581
EndChar

StartChar: thorn
Encoding: 189 254 201
Width: 600
Flags: W
LayerCount: 2
Fore
SplineSet
269 745 m 1,0,1
 268 671 268 671 267 610 c 128,-1,2
 266 549 266 549 265.5 489 c 128,-1,3
 265 429 265 429 264.5 358 c 128,-1,4
 264 287 264 287 264 192 c 0,5,6
 264 153 264 153 264.5 103 c 128,-1,7
 265 53 265 53 266 -18.5 c 128,-1,8
 267 -90 267 -90 269 -197 c 1,9,-1
 369 -221 l 1,10,-1
 355 -260 l 1,11,12
 329 -258 329 -258 289 -257 c 128,-1,13
 249 -256 249 -256 205 -256 c 0,14,15
 156 -256 156 -256 125 -257 c 128,-1,16
 94 -258 94 -258 65 -260 c 1,17,-1
 50 -221 l 1,18,-1
 129 -201 l 1,19,20
 130 -125 130 -125 131 -73 c 128,-1,21
 132 -21 132 -21 132.5 20 c 128,-1,22
 133 61 133 61 133 101 c 128,-1,23
 133 141 133 141 133 193 c 0,24,25
 133 238 133 238 132.5 298 c 128,-1,26
 132 358 132 358 131.5 424 c 128,-1,27
 131 490 131 490 129.5 553.5 c 128,-1,28
 128 617 128 617 125 669 c 1,29,-1
 41 684 l 1,30,-1
 30 725 l 1,31,32
 47 726 47 726 77.5 727.5 c 128,-1,33
 108 729 108 729 143.5 731.5 c 128,-1,34
 179 734 179 734 212.5 737.5 c 128,-1,35
 246 741 246 741 269 745 c 1,0,1
403 436 m 0,36,37
 460 436 460 436 498.5 405.5 c 128,-1,38
 537 375 537 375 556 326.5 c 128,-1,39
 575 278 575 278 575 224 c 0,40,41
 575 167 575 167 553 114.5 c 128,-1,42
 531 62 531 62 487 28.5 c 128,-1,43
 443 -5 443 -5 376 -5 c 0,44,45
 321 -5 321 -5 279.5 26 c 128,-1,46
 238 57 238 57 208 105 c 1,47,-1
 229 147 l 1,48,49
 244 115 244 115 277.5 90 c 128,-1,50
 311 65 311 65 350 65 c 0,51,52
 380 65 380 65 400 85.5 c 128,-1,53
 420 106 420 106 430 139 c 128,-1,54
 440 172 440 172 440 208 c 256,55,56
 440 244 440 244 430 278.5 c 128,-1,57
 420 313 420 313 399 337 c 128,-1,58
 378 361 378 361 345 365 c 1,59,60
 331 362 331 362 311.5 345 c 128,-1,61
 292 328 292 328 278 298 c 128,-1,62
 264 268 264 268 264 224 c 1,63,-1
 236 291 l 1,64,65
 245 339 245 339 270.5 371 c 128,-1,66
 296 403 296 403 331 419.5 c 128,-1,67
 366 436 366 436 403 436 c 0,36,37
EndSplineSet
Validated: 5
EndChar

StartChar: dotlessi
Encoding: 191 305 203
Width: 336
GlyphClass: 2
Flags: W
AnchorPoint: "Anchor-5" 169 434 basechar 0
LayerCount: 2
Fore
SplineSet
240 445 m 1,0,1
 237 331 237 331 237 228 c 0,2,3
 237 191 237 191 238 143 c 128,-1,4
 239 95 239 95 240 58 c 1,5,-1
 320 37 l 1,6,-1
 304 0 l 1,7,8
 286 1 286 1 269 1.5 c 128,-1,9
 252 2 252 2 229.5 2.5 c 128,-1,10
 207 3 207 3 171 3 c 0,11,12
 122 3 122 3 94.5 2 c 128,-1,13
 67 1 67 1 37 0 c 1,14,-1
 21 37 l 1,15,-1
 100 58 l 1,16,17
 102 108 102 108 103 145 c 128,-1,18
 104 182 104 182 103 226 c 0,19,20
 103 249 103 249 102.5 268 c 128,-1,21
 102 287 102 287 101 310 c 128,-1,22
 100 333 100 333 97 368 c 1,23,-1
 30 381 l 1,24,-1
 16 426 l 1,25,26
 51 428 51 428 113.5 432 c 128,-1,27
 176 436 176 436 240 445 c 1,0,1
EndSplineSet
Validated: 1048609
EndChar

StartChar: OE
Encoding: 192 338 204
Width: 985
GlyphClass: 2
Flags: W
AnchorPoint: "Anchor-6" 543 0 basechar 0
AnchorPoint: "Anchor-5" 563 660 basechar 0
LayerCount: 2
Fore
SplineSet
792 369 m 1,0,-1
 792 312 l 1,1,2
 760 314 760 314 732.5 314 c 128,-1,3
 705 314 705 314 679 314 c 0,4,5
 662 314 662 314 647.5 314 c 128,-1,6
 633 314 633 314 615 313.5 c 128,-1,7
 597 313 597 313 566 312 c 1,8,-1
 566 369 l 1,9,10
 597 369 597 369 615 368.5 c 128,-1,11
 633 368 633 368 647.5 367.5 c 128,-1,12
 662 367 662 367 679 367 c 0,13,14
 705 367 705 367 732.5 367.5 c 128,-1,15
 760 368 760 368 792 369 c 1,0,-1
823 454 m 1,16,17
 822 426 822 426 821.5 396.5 c 128,-1,18
 821 367 821 367 821 335 c 256,19,20
 821 303 821 303 821.5 265.5 c 128,-1,21
 822 228 822 228 823 204 c 1,22,-1
 776 204 l 1,23,-1
 756 320 l 1,24,-1
 756 363 l 1,25,-1
 776 454 l 1,26,-1
 823 454 l 1,16,17
566 4 m 0,27,28
 526 3 526 3 500 0.5 c 128,-1,29
 474 -2 474 -2 454.5 -4 c 128,-1,30
 435 -6 435 -6 416 -7.5 c 128,-1,31
 397 -9 397 -9 371 -9 c 0,32,33
 284 -9 284 -9 221.5 20 c 128,-1,34
 159 49 159 49 119 98 c 128,-1,35
 79 147 79 147 59.5 208 c 128,-1,36
 40 269 40 269 40 333 c 0,37,38
 40 396 40 396 57.5 456 c 128,-1,39
 75 516 75 516 113.5 564 c 128,-1,40
 152 612 152 612 215.5 640.5 c 128,-1,41
 279 669 279 669 370 669 c 0,42,43
 402 669 402 669 422 667 c 128,-1,44
 442 665 442 665 459.5 662 c 128,-1,45
 477 659 477 659 501 657 c 128,-1,46
 525 655 525 655 565 655 c 0,47,48
 590 655 590 655 619.5 655 c 128,-1,49
 649 655 649 655 671 655 c 0,50,51
 745 655 745 655 812 656 c 128,-1,52
 879 657 879 657 937 659 c 1,53,54
 934 606 934 606 932 552.5 c 128,-1,55
 930 499 930 499 929 462 c 1,56,-1
 865 462 l 1,57,-1
 846 569 l 1,58,59
 809 582 809 582 780 587 c 128,-1,60
 751 592 751 592 712 592 c 0,61,62
 690 592 690 592 675 591 c 128,-1,63
 660 590 660 590 639 587 c 1,64,65
 638 493 638 493 637.5 414 c 128,-1,66
 637 335 637 335 637 253 c 0,67,68
 637 203 637 203 637.5 161.5 c 128,-1,69
 638 120 638 120 639 70 c 1,70,71
 652 68 652 68 665.5 66.5 c 128,-1,72
 679 65 679 65 705 65 c 0,73,74
 799 65 799 65 852 89 c 1,75,-1
 873 210 l 1,76,-1
 938 210 l 1,77,78
 938 167 938 167 940.5 108 c 128,-1,79
 943 49 943 49 947 0 c 1,80,81
 884 1 884 1 814 1.5 c 128,-1,82
 744 2 744 2 679.5 3 c 128,-1,83
 615 4 615 4 566 4 c 0,27,28
489 20 m 1,84,85
 490 71 490 71 491 132.5 c 128,-1,86
 492 194 492 194 492.5 256.5 c 128,-1,87
 493 319 493 319 493 372 c 0,88,89
 493 437 493 437 492 498 c 128,-1,90
 491 559 491 559 489 610 c 1,91,92
 522 590 522 590 527.5 549.5 c 128,-1,93
 533 509 533 509 533 446 c 1,94,95
 504 536 504 536 457 575 c 128,-1,96
 410 614 410 614 357 614 c 0,97,98
 275 614 275 614 226.5 545 c 128,-1,99
 178 476 178 476 178 357 c 0,100,101
 178 304 178 304 192 250 c 128,-1,102
 206 196 206 196 233 151 c 128,-1,103
 260 106 260 106 299.5 78.5 c 128,-1,104
 339 51 339 51 390 51 c 0,105,106
 421 51 421 51 452 63 c 128,-1,107
 483 75 483 75 509.5 107.5 c 128,-1,108
 536 140 536 140 550 199 c 1,109,110
 556 152 556 152 550 126 c 128,-1,111
 544 100 544 100 532.5 85 c 128,-1,112
 521 70 521 70 509 56.5 c 128,-1,113
 497 43 497 43 489 20 c 1,84,85
EndSplineSet
Validated: 1048613
EndChar

StartChar: florin
Encoding: 199 402 211
Width: 460
Flags: W
LayerCount: 2
Fore
SplineSet
412 418 m 1,0,-1
 415 346 l 1,1,2
 332 357 332 357 253 360.5 c 128,-1,3
 174 364 174 364 122 365 c 1,4,-1
 132 418 l 1,5,-1
 412 418 l 1,0,-1
248 -63 m 0,6,7
 233 -132 233 -132 196 -178.5 c 128,-1,8
 159 -225 159 -225 111 -249 c 128,-1,9
 63 -273 63 -273 13 -273 c 0,10,11
 -24 -273 -24 -273 -58.5 -260 c 128,-1,12
 -93 -247 -93 -247 -120 -219 c 1,13,14
 -120 -141 -120 -141 -67 -97 c 1,15,-1
 -23 -97 l 1,16,17
 -20 -140 -20 -140 1 -175 c 128,-1,18
 22 -210 22 -210 56 -220 c 1,19,20
 85 -197 85 -197 98.5 -154 c 128,-1,21
 112 -111 112 -111 126 -47 c 0,22,23
 128 -40 128 -40 133 -8.5 c 128,-1,24
 138 23 138 23 145 70 c 128,-1,25
 152 117 152 117 160.5 172.5 c 128,-1,26
 169 228 169 228 177.5 283 c 128,-1,27
 186 338 186 338 193 385 c 128,-1,28
 200 432 200 432 205 463.5 c 128,-1,29
 210 495 210 495 211 502 c 0,30,31
 226 585 226 585 263 638.5 c 128,-1,32
 300 692 300 692 349 718 c 128,-1,33
 398 744 398 744 447 744 c 0,34,35
 526 744 526 744 580 688 c 1,36,37
 580 610 580 610 527 566 c 1,38,-1
 483 566 l 1,39,40
 480 609 480 609 459.5 644 c 128,-1,41
 439 679 439 679 404 689 c 1,42,43
 376 666 376 666 362.5 623.5 c 128,-1,44
 349 581 349 581 338 516 c 0,45,46
 337 509 337 509 332 476 c 128,-1,47
 327 443 327 443 319.5 393 c 128,-1,48
 312 343 312 343 303 284.5 c 128,-1,49
 294 226 294 226 285 168 c 128,-1,50
 276 110 276 110 268 60 c 128,-1,51
 260 10 260 10 255 -23 c 128,-1,52
 250 -56 250 -56 248 -63 c 0,6,7
EndSplineSet
Validated: 5
EndChar

StartChar: uni02D0
Encoding: 203 720 212
Width: 269
Flags: W
LayerCount: 2
Fore
SplineSet
145 152 m 1,0,-1
 219 16 l 1,1,-1
 208 0 l 1,2,3
 175 -4 175 -4 134.5 -4 c 128,-1,4
 94 -4 94 -4 61 0 c 1,5,-1
 50 16 l 1,6,-1
 125 152 l 1,7,-1
 145 152 l 1,0,-1
145 263 m 1,8,-1
 125 263 l 1,9,-1
 50 400 l 1,10,-1
 61 416 l 1,11,12
 94 421 94 421 134.5 421 c 128,-1,13
 175 421 175 421 208 416 c 1,14,-1
 219 400 l 1,15,-1
 145 263 l 1,8,-1
EndSplineSet
Validated: 1
EndChar

StartChar: grave
Encoding: 64 96 213
Width: 149
GlyphClass: 4
Flags: W
AnchorPoint: "Anchor-8" 110 430 mark 0
AnchorPoint: "Anchor-5" 110 430 mark 0
AnchorPoint: "Anchor-3" 110 430 mark 0
AnchorPoint: "Anchor-1" 110 430 mark 0
LayerCount: 2
Fore
SplineSet
50 715 m 1,0,1
 59 711 59 711 69.5 705 c 128,-1,2
 80 699 80 699 88 696 c 1,3,4
 103 642 103 642 124.5 589 c 128,-1,5
 146 536 146 536 174 483 c 1,6,-1
 131 456 l 1,7,8
 83 509 83 509 47.5 554.5 c 128,-1,9
 12 600 12 600 -20 649 c 1,10,11
 -7 669 -7 669 12 686 c 128,-1,12
 31 703 31 703 50 715 c 1,0,1
EndSplineSet
Validated: 1
EndChar

StartChar: macron
Encoding: 110 175 214
Width: 263
GlyphClass: 4
Flags: W
AnchorPoint: "Anchor-8" 132 430 mark 0
AnchorPoint: "Anchor-5" 132 430 mark 0
AnchorPoint: "Anchor-3" 132 430 mark 0
AnchorPoint: "Anchor-1" 132 430 mark 0
LayerCount: 2
Fore
SplineSet
-10 578 m 1,0,1
 56 575 56 575 131.5 575 c 128,-1,2
 207 575 207 575 273 578 c 1,3,-1
 273 497 l 1,4,5
 207 499 207 499 131.5 499 c 128,-1,6
 56 499 56 499 -10 497 c 1,7,-1
 -10 578 l 1,0,1
EndSplineSet
Validated: 1
EndChar

StartChar: dieresis
Encoding: 103 168 215
Width: 306
GlyphClass: 4
Flags: W
AnchorPoint: "Anchor-8" 153 430 mark 0
AnchorPoint: "Anchor-5" 153 430 mark 0
AnchorPoint: "Anchor-3" 153 430 mark 0
AnchorPoint: "Anchor-1" 153 430 mark 0
LayerCount: 2
Fore
SplineSet
67 476 m 256,0,1
 41 476 41 476 22.5 495.5 c 128,-1,2
 4 515 4 515 4 543 c 0,3,4
 4 570 4 570 22.5 589 c 128,-1,5
 41 608 41 608 67 608 c 256,6,7
 93 608 93 608 111.5 589 c 128,-1,8
 130 570 130 570 130 543 c 0,9,10
 130 515 130 515 111.5 495.5 c 128,-1,11
 93 476 93 476 67 476 c 256,0,1
239 476 m 0,12,13
 213 476 213 476 194.5 495.5 c 128,-1,14
 176 515 176 515 176 543 c 0,15,16
 176 570 176 570 194.5 589 c 128,-1,17
 213 608 213 608 239 608 c 0,18,19
 264 608 264 608 283 589 c 128,-1,20
 302 570 302 570 302 543 c 0,21,22
 302 515 302 515 283 495.5 c 128,-1,23
 264 476 264 476 239 476 c 0,12,13
EndSplineSet
Validated: 1
EndChar

StartChar: acute
Encoding: 115 180 216
Width: 124
GlyphClass: 4
Flags: W
AnchorPoint: "Anchor-8" 49 430 mark 0
AnchorPoint: "Anchor-5" 49 430 mark 0
AnchorPoint: "Anchor-3" 49 430 mark 0
AnchorPoint: "Anchor-1" 49 430 mark 0
LayerCount: 2
Fore
SplineSet
104 715 m 1,0,1
 124 703 124 703 142.5 686 c 128,-1,2
 161 669 161 669 174 649 c 1,3,4
 143 600 143 600 107 554.5 c 128,-1,5
 71 509 71 509 23 456 c 1,6,-1
 -20 483 l 1,7,8
 9 536 9 536 30 589 c 128,-1,9
 51 642 51 642 66 696 c 1,10,11
 74 699 74 699 84.5 705 c 128,-1,12
 95 711 95 711 104 715 c 1,0,1
EndSplineSet
Validated: 1
EndChar

StartChar: cedilla
Encoding: 119 184 217
Width: 162
GlyphClass: 4
Flags: W
AnchorPoint: "Anchor-9" 76 0 mark 0
AnchorPoint: "Anchor-6" 76 0 mark 0
AnchorPoint: "Anchor-4" 76 0 mark 0
AnchorPoint: "Anchor-2" 76 0 mark 0
LayerCount: 2
Fore
SplineSet
49 3 m 1,0,-1
 101 3 l 1,1,-1
 88 -52 l 1,2,3
 129 -61 129 -61 154.5 -83 c 128,-1,4
 180 -105 180 -105 180 -134 c 0,5,6
 180 -165 180 -165 146.5 -199.5 c 128,-1,7
 113 -234 113 -234 23 -284 c 1,8,-1
 -5 -243 l 1,9,10
 30 -220 30 -220 52 -203 c 128,-1,11
 74 -186 74 -186 84 -167 c 1,12,13
 82 -155 82 -155 67 -143.5 c 128,-1,14
 52 -132 52 -132 9 -126 c 1,15,-1
 49 3 l 1,0,-1
EndSplineSet
Validated: 1
EndChar

StartChar: circumflex
Encoding: 200 710 218
Width: 335
Flags: W
LayerCount: 2
Fore
SplineSet
192 670 m 1,0,1
 226 635 226 635 260 597.5 c 128,-1,2
 294 560 294 560 335 513 c 1,3,-1
 304 477 l 1,4,5
 259 506 259 506 221.5 529 c 128,-1,6
 184 552 184 552 146 568 c 1,7,8
 117 549 117 549 92.5 528.5 c 128,-1,9
 68 508 68 508 36 479 c 1,10,-1
 0 515 l 1,11,12
 35 552 35 552 76.5 594.5 c 128,-1,13
 118 637 118 637 151 670 c 1,14,-1
 192 670 l 1,0,1
EndSplineSet
Validated: 1
EndChar

StartChar: caron
Encoding: 201 711 219
Width: 335
Flags: W
LayerCount: 2
Fore
SplineSet
192 477 m 1,0,-1
 151 477 l 1,1,2
 118 510 118 510 76.5 552.5 c 128,-1,3
 35 595 35 595 0 632 c 1,4,-1
 36 668 l 1,5,6
 68 640 68 640 92.5 619.5 c 128,-1,7
 117 599 117 599 146 579 c 1,8,9
 184 596 184 596 221.5 618.5 c 128,-1,10
 259 641 259 641 304 670 c 1,11,-1
 335 634 l 1,12,13
 294 587 294 587 260 549.5 c 128,-1,14
 226 512 226 512 192 477 c 1,0,-1
EndSplineSet
Validated: 1
EndChar

StartChar: uni02C9
Encoding: 202 713 220
Width: 571
Flags: W
LayerCount: 2
Fore
SplineSet
536 580 m 1,0,-1
 536 497 l 1,1,2
 461 499 461 499 373.5 499.5 c 128,-1,3
 286 500 286 500 198 499.5 c 128,-1,4
 110 499 110 499 35 497 c 1,5,-1
 35 580 l 1,6,7
 110 579 110 579 198 578.5 c 128,-1,8
 286 578 286 578 373.5 578.5 c 128,-1,9
 461 579 461 579 536 580 c 1,0,-1
EndSplineSet
Validated: 33
EndChar

StartChar: breve
Encoding: 204 728 221
Width: 311
Flags: W
LayerCount: 2
Fore
SplineSet
268 666 m 1,0,-1
 311 654 l 1,1,2
 311 600 311 600 289.5 560.5 c 128,-1,3
 268 521 268 521 233.5 499.5 c 128,-1,4
 199 478 199 478 159 478 c 0,5,6
 116 478 116 478 80 498.5 c 128,-1,7
 44 519 44 519 22 558 c 128,-1,8
 0 597 0 597 0 654 c 1,9,-1
 82 671 l 1,10,11
 88 607 88 607 115.5 573 c 128,-1,12
 143 539 143 539 183 534 c 1,13,14
 216 540 216 540 234.5 563 c 128,-1,15
 253 586 253 586 260.5 615 c 128,-1,16
 268 644 268 644 268 666 c 1,0,-1
EndSplineSet
Validated: 1
EndChar

